%TF.GenerationSoftware,KiCad,Pcbnew,9.0.5-9.0.5~ubuntu24.04.1*%
%TF.CreationDate,2026-01-14T09:13:17+02:00*%
%TF.ProjectId,uv39_res,75763339-5f72-4657-932e-6b696361645f,rev?*%
%TF.SameCoordinates,Original*%
%TF.FileFunction,Legend,Top*%
%TF.FilePolarity,Positive*%
%FSLAX45Y45*%
G04 Gerber Fmt 4.5, Leading zero omitted, Abs format (unit mm)*
G04 Created by KiCad (PCBNEW 9.0.5-9.0.5~ubuntu24.04.1) date 2026-01-14 09:13:17*
%MOMM*%
%LPD*%
G01*
G04 APERTURE LIST*
%ADD10C,0.150000*%
%ADD11C,0.076200*%
%ADD12C,0.100000*%
%ADD13C,0.200000*%
%ADD14C,0.010000*%
%ADD15C,0.120000*%
G04 APERTURE END LIST*
D10*
X11925892Y-11174653D02*
X11868749Y-11174653D01*
X11897321Y-11174653D02*
X11897321Y-11074653D01*
X11897321Y-11074653D02*
X11887797Y-11088939D01*
X11887797Y-11088939D02*
X11878273Y-11098463D01*
X11878273Y-11098463D02*
X11868749Y-11103225D01*
X11968749Y-11165129D02*
X11973511Y-11169891D01*
X11973511Y-11169891D02*
X11968749Y-11174653D01*
X11968749Y-11174653D02*
X11963988Y-11169891D01*
X11963988Y-11169891D02*
X11968749Y-11165129D01*
X11968749Y-11165129D02*
X11968749Y-11174653D01*
X12068749Y-11174653D02*
X12011607Y-11174653D01*
X12040178Y-11174653D02*
X12040178Y-11074653D01*
X12040178Y-11074653D02*
X12030654Y-11088939D01*
X12030654Y-11088939D02*
X12021130Y-11098463D01*
X12021130Y-11098463D02*
X12011607Y-11103225D01*
X12111607Y-11165129D02*
X12116368Y-11169891D01*
X12116368Y-11169891D02*
X12111607Y-11174653D01*
X12111607Y-11174653D02*
X12106845Y-11169891D01*
X12106845Y-11169891D02*
X12111607Y-11165129D01*
X12111607Y-11165129D02*
X12111607Y-11174653D01*
X12178273Y-11074653D02*
X12187797Y-11074653D01*
X12187797Y-11074653D02*
X12197321Y-11079415D01*
X12197321Y-11079415D02*
X12202083Y-11084177D01*
X12202083Y-11084177D02*
X12206845Y-11093701D01*
X12206845Y-11093701D02*
X12211606Y-11112749D01*
X12211606Y-11112749D02*
X12211606Y-11136558D01*
X12211606Y-11136558D02*
X12206845Y-11155606D01*
X12206845Y-11155606D02*
X12202083Y-11165129D01*
X12202083Y-11165129D02*
X12197321Y-11169891D01*
X12197321Y-11169891D02*
X12187797Y-11174653D01*
X12187797Y-11174653D02*
X12178273Y-11174653D01*
X12178273Y-11174653D02*
X12168749Y-11169891D01*
X12168749Y-11169891D02*
X12163987Y-11165129D01*
X12163987Y-11165129D02*
X12159226Y-11155606D01*
X12159226Y-11155606D02*
X12154464Y-11136558D01*
X12154464Y-11136558D02*
X12154464Y-11112749D01*
X12154464Y-11112749D02*
X12159226Y-11093701D01*
X12159226Y-11093701D02*
X12163987Y-11084177D01*
X12163987Y-11084177D02*
X12168749Y-11079415D01*
X12168749Y-11079415D02*
X12178273Y-11074653D01*
X12631421Y-10548179D02*
X12707611Y-10548179D01*
X12669516Y-10586274D02*
X12669516Y-10510084D01*
X12486586Y-10546516D02*
X12486586Y-10536992D01*
X12486586Y-10536992D02*
X12491348Y-10527469D01*
X12491348Y-10527469D02*
X12496110Y-10522707D01*
X12496110Y-10522707D02*
X12505633Y-10517945D01*
X12505633Y-10517945D02*
X12524681Y-10513183D01*
X12524681Y-10513183D02*
X12548491Y-10513183D01*
X12548491Y-10513183D02*
X12567538Y-10517945D01*
X12567538Y-10517945D02*
X12577062Y-10522707D01*
X12577062Y-10522707D02*
X12581824Y-10527469D01*
X12581824Y-10527469D02*
X12586586Y-10536992D01*
X12586586Y-10536992D02*
X12586586Y-10546516D01*
X12586586Y-10546516D02*
X12581824Y-10556040D01*
X12581824Y-10556040D02*
X12577062Y-10560802D01*
X12577062Y-10560802D02*
X12567538Y-10565564D01*
X12567538Y-10565564D02*
X12548491Y-10570326D01*
X12548491Y-10570326D02*
X12524681Y-10570326D01*
X12524681Y-10570326D02*
X12505633Y-10565564D01*
X12505633Y-10565564D02*
X12496110Y-10560802D01*
X12496110Y-10560802D02*
X12491348Y-10556040D01*
X12491348Y-10556040D02*
X12486586Y-10546516D01*
X13903678Y-10538887D02*
X13979868Y-10538887D01*
X13941773Y-10576982D02*
X13941773Y-10500791D01*
X14016982Y-10755846D02*
X14016982Y-10693941D01*
X14016982Y-10693941D02*
X14055077Y-10727274D01*
X14055077Y-10727274D02*
X14055077Y-10712989D01*
X14055077Y-10712989D02*
X14059839Y-10703465D01*
X14059839Y-10703465D02*
X14064601Y-10698703D01*
X14064601Y-10698703D02*
X14074125Y-10693941D01*
X14074125Y-10693941D02*
X14097934Y-10693941D01*
X14097934Y-10693941D02*
X14107458Y-10698703D01*
X14107458Y-10698703D02*
X14112220Y-10703465D01*
X14112220Y-10703465D02*
X14116982Y-10712989D01*
X14116982Y-10712989D02*
X14116982Y-10741560D01*
X14116982Y-10741560D02*
X14112220Y-10751084D01*
X14112220Y-10751084D02*
X14107458Y-10755846D01*
X14026506Y-10655846D02*
X14021744Y-10651084D01*
X14021744Y-10651084D02*
X14016982Y-10641560D01*
X14016982Y-10641560D02*
X14016982Y-10617751D01*
X14016982Y-10617751D02*
X14021744Y-10608227D01*
X14021744Y-10608227D02*
X14026506Y-10603465D01*
X14026506Y-10603465D02*
X14036029Y-10598703D01*
X14036029Y-10598703D02*
X14045553Y-10598703D01*
X14045553Y-10598703D02*
X14059839Y-10603465D01*
X14059839Y-10603465D02*
X14116982Y-10660608D01*
X14116982Y-10660608D02*
X14116982Y-10598703D01*
X14016982Y-10536798D02*
X14016982Y-10527274D01*
X14016982Y-10527274D02*
X14021744Y-10517751D01*
X14021744Y-10517751D02*
X14026506Y-10512989D01*
X14026506Y-10512989D02*
X14036029Y-10508227D01*
X14036029Y-10508227D02*
X14055077Y-10503465D01*
X14055077Y-10503465D02*
X14078887Y-10503465D01*
X14078887Y-10503465D02*
X14097934Y-10508227D01*
X14097934Y-10508227D02*
X14107458Y-10512989D01*
X14107458Y-10512989D02*
X14112220Y-10517751D01*
X14112220Y-10517751D02*
X14116982Y-10527274D01*
X14116982Y-10527274D02*
X14116982Y-10536798D01*
X14116982Y-10536798D02*
X14112220Y-10546322D01*
X14112220Y-10546322D02*
X14107458Y-10551084D01*
X14107458Y-10551084D02*
X14097934Y-10555846D01*
X14097934Y-10555846D02*
X14078887Y-10560608D01*
X14078887Y-10560608D02*
X14055077Y-10560608D01*
X14055077Y-10560608D02*
X14036029Y-10555846D01*
X14036029Y-10555846D02*
X14026506Y-10551084D01*
X14026506Y-10551084D02*
X14021744Y-10546322D01*
X14021744Y-10546322D02*
X14016982Y-10536798D01*
X14016982Y-10441560D02*
X14016982Y-10432036D01*
X14016982Y-10432036D02*
X14021744Y-10422513D01*
X14021744Y-10422513D02*
X14026506Y-10417751D01*
X14026506Y-10417751D02*
X14036029Y-10412989D01*
X14036029Y-10412989D02*
X14055077Y-10408227D01*
X14055077Y-10408227D02*
X14078887Y-10408227D01*
X14078887Y-10408227D02*
X14097934Y-10412989D01*
X14097934Y-10412989D02*
X14107458Y-10417751D01*
X14107458Y-10417751D02*
X14112220Y-10422513D01*
X14112220Y-10422513D02*
X14116982Y-10432036D01*
X14116982Y-10432036D02*
X14116982Y-10441560D01*
X14116982Y-10441560D02*
X14112220Y-10451084D01*
X14112220Y-10451084D02*
X14107458Y-10455846D01*
X14107458Y-10455846D02*
X14097934Y-10460608D01*
X14097934Y-10460608D02*
X14078887Y-10465370D01*
X14078887Y-10465370D02*
X14055077Y-10465370D01*
X14055077Y-10465370D02*
X14036029Y-10460608D01*
X14036029Y-10460608D02*
X14026506Y-10455846D01*
X14026506Y-10455846D02*
X14021744Y-10451084D01*
X14021744Y-10451084D02*
X14016982Y-10441560D01*
X13549839Y-10642036D02*
X13545077Y-10651560D01*
X13545077Y-10651560D02*
X13540315Y-10656322D01*
X13540315Y-10656322D02*
X13530791Y-10661084D01*
X13530791Y-10661084D02*
X13526029Y-10661084D01*
X13526029Y-10661084D02*
X13516506Y-10656322D01*
X13516506Y-10656322D02*
X13511744Y-10651560D01*
X13511744Y-10651560D02*
X13506982Y-10642036D01*
X13506982Y-10642036D02*
X13506982Y-10622989D01*
X13506982Y-10622989D02*
X13511744Y-10613465D01*
X13511744Y-10613465D02*
X13516506Y-10608703D01*
X13516506Y-10608703D02*
X13526029Y-10603941D01*
X13526029Y-10603941D02*
X13530791Y-10603941D01*
X13530791Y-10603941D02*
X13540315Y-10608703D01*
X13540315Y-10608703D02*
X13545077Y-10613465D01*
X13545077Y-10613465D02*
X13549839Y-10622989D01*
X13549839Y-10622989D02*
X13549839Y-10642036D01*
X13549839Y-10642036D02*
X13554601Y-10651560D01*
X13554601Y-10651560D02*
X13559363Y-10656322D01*
X13559363Y-10656322D02*
X13568887Y-10661084D01*
X13568887Y-10661084D02*
X13587934Y-10661084D01*
X13587934Y-10661084D02*
X13597458Y-10656322D01*
X13597458Y-10656322D02*
X13602220Y-10651560D01*
X13602220Y-10651560D02*
X13606982Y-10642036D01*
X13606982Y-10642036D02*
X13606982Y-10622989D01*
X13606982Y-10622989D02*
X13602220Y-10613465D01*
X13602220Y-10613465D02*
X13597458Y-10608703D01*
X13597458Y-10608703D02*
X13587934Y-10603941D01*
X13587934Y-10603941D02*
X13568887Y-10603941D01*
X13568887Y-10603941D02*
X13559363Y-10608703D01*
X13559363Y-10608703D02*
X13554601Y-10613465D01*
X13554601Y-10613465D02*
X13549839Y-10622989D01*
X13506982Y-10542036D02*
X13506982Y-10532513D01*
X13506982Y-10532513D02*
X13511744Y-10522989D01*
X13511744Y-10522989D02*
X13516506Y-10518227D01*
X13516506Y-10518227D02*
X13526029Y-10513465D01*
X13526029Y-10513465D02*
X13545077Y-10508703D01*
X13545077Y-10508703D02*
X13568887Y-10508703D01*
X13568887Y-10508703D02*
X13587934Y-10513465D01*
X13587934Y-10513465D02*
X13597458Y-10518227D01*
X13597458Y-10518227D02*
X13602220Y-10522989D01*
X13602220Y-10522989D02*
X13606982Y-10532513D01*
X13606982Y-10532513D02*
X13606982Y-10542036D01*
X13606982Y-10542036D02*
X13602220Y-10551560D01*
X13602220Y-10551560D02*
X13597458Y-10556322D01*
X13597458Y-10556322D02*
X13587934Y-10561084D01*
X13587934Y-10561084D02*
X13568887Y-10565846D01*
X13568887Y-10565846D02*
X13545077Y-10565846D01*
X13545077Y-10565846D02*
X13526029Y-10561084D01*
X13526029Y-10561084D02*
X13516506Y-10556322D01*
X13516506Y-10556322D02*
X13511744Y-10551560D01*
X13511744Y-10551560D02*
X13506982Y-10542036D01*
X13506982Y-10446798D02*
X13506982Y-10437274D01*
X13506982Y-10437274D02*
X13511744Y-10427751D01*
X13511744Y-10427751D02*
X13516506Y-10422989D01*
X13516506Y-10422989D02*
X13526029Y-10418227D01*
X13526029Y-10418227D02*
X13545077Y-10413465D01*
X13545077Y-10413465D02*
X13568887Y-10413465D01*
X13568887Y-10413465D02*
X13587934Y-10418227D01*
X13587934Y-10418227D02*
X13597458Y-10422989D01*
X13597458Y-10422989D02*
X13602220Y-10427751D01*
X13602220Y-10427751D02*
X13606982Y-10437274D01*
X13606982Y-10437274D02*
X13606982Y-10446798D01*
X13606982Y-10446798D02*
X13602220Y-10456322D01*
X13602220Y-10456322D02*
X13597458Y-10461084D01*
X13597458Y-10461084D02*
X13587934Y-10465846D01*
X13587934Y-10465846D02*
X13568887Y-10470608D01*
X13568887Y-10470608D02*
X13545077Y-10470608D01*
X13545077Y-10470608D02*
X13526029Y-10465846D01*
X13526029Y-10465846D02*
X13516506Y-10461084D01*
X13516506Y-10461084D02*
X13511744Y-10456322D01*
X13511744Y-10456322D02*
X13506982Y-10446798D01*
X12846982Y-10603941D02*
X12846982Y-10661084D01*
X12846982Y-10632513D02*
X12746982Y-10632513D01*
X12746982Y-10632513D02*
X12761268Y-10642036D01*
X12761268Y-10642036D02*
X12770791Y-10651560D01*
X12770791Y-10651560D02*
X12775553Y-10661084D01*
X12746982Y-10542036D02*
X12746982Y-10532513D01*
X12746982Y-10532513D02*
X12751744Y-10522989D01*
X12751744Y-10522989D02*
X12756506Y-10518227D01*
X12756506Y-10518227D02*
X12766029Y-10513465D01*
X12766029Y-10513465D02*
X12785077Y-10508703D01*
X12785077Y-10508703D02*
X12808887Y-10508703D01*
X12808887Y-10508703D02*
X12827934Y-10513465D01*
X12827934Y-10513465D02*
X12837458Y-10518227D01*
X12837458Y-10518227D02*
X12842220Y-10522989D01*
X12842220Y-10522989D02*
X12846982Y-10532513D01*
X12846982Y-10532513D02*
X12846982Y-10542036D01*
X12846982Y-10542036D02*
X12842220Y-10551560D01*
X12842220Y-10551560D02*
X12837458Y-10556322D01*
X12837458Y-10556322D02*
X12827934Y-10561084D01*
X12827934Y-10561084D02*
X12808887Y-10565846D01*
X12808887Y-10565846D02*
X12785077Y-10565846D01*
X12785077Y-10565846D02*
X12766029Y-10561084D01*
X12766029Y-10561084D02*
X12756506Y-10556322D01*
X12756506Y-10556322D02*
X12751744Y-10551560D01*
X12751744Y-10551560D02*
X12746982Y-10542036D01*
X12746982Y-10446798D02*
X12746982Y-10437274D01*
X12746982Y-10437274D02*
X12751744Y-10427751D01*
X12751744Y-10427751D02*
X12756506Y-10422989D01*
X12756506Y-10422989D02*
X12766029Y-10418227D01*
X12766029Y-10418227D02*
X12785077Y-10413465D01*
X12785077Y-10413465D02*
X12808887Y-10413465D01*
X12808887Y-10413465D02*
X12827934Y-10418227D01*
X12827934Y-10418227D02*
X12837458Y-10422989D01*
X12837458Y-10422989D02*
X12842220Y-10427751D01*
X12842220Y-10427751D02*
X12846982Y-10437274D01*
X12846982Y-10437274D02*
X12846982Y-10446798D01*
X12846982Y-10446798D02*
X12842220Y-10456322D01*
X12842220Y-10456322D02*
X12837458Y-10461084D01*
X12837458Y-10461084D02*
X12827934Y-10465846D01*
X12827934Y-10465846D02*
X12808887Y-10470608D01*
X12808887Y-10470608D02*
X12785077Y-10470608D01*
X12785077Y-10470608D02*
X12766029Y-10465846D01*
X12766029Y-10465846D02*
X12756506Y-10461084D01*
X12756506Y-10461084D02*
X12751744Y-10456322D01*
X12751744Y-10456322D02*
X12746982Y-10446798D01*
X13643678Y-10538887D02*
X13719868Y-10538887D01*
X13681773Y-10576982D02*
X13681773Y-10500791D01*
X11906535Y-10790315D02*
X11906535Y-10856982D01*
X11863678Y-10790315D02*
X11863678Y-10842696D01*
X11863678Y-10842696D02*
X11868440Y-10852220D01*
X11868440Y-10852220D02*
X11877964Y-10856982D01*
X11877964Y-10856982D02*
X11892249Y-10856982D01*
X11892249Y-10856982D02*
X11901773Y-10852220D01*
X11901773Y-10852220D02*
X11906535Y-10847458D01*
X11944630Y-10790315D02*
X11968440Y-10856982D01*
X11968440Y-10856982D02*
X11992249Y-10790315D01*
X12020821Y-10756982D02*
X12082725Y-10756982D01*
X12082725Y-10756982D02*
X12049392Y-10795077D01*
X12049392Y-10795077D02*
X12063678Y-10795077D01*
X12063678Y-10795077D02*
X12073202Y-10799839D01*
X12073202Y-10799839D02*
X12077964Y-10804601D01*
X12077964Y-10804601D02*
X12082725Y-10814125D01*
X12082725Y-10814125D02*
X12082725Y-10837934D01*
X12082725Y-10837934D02*
X12077964Y-10847458D01*
X12077964Y-10847458D02*
X12073202Y-10852220D01*
X12073202Y-10852220D02*
X12063678Y-10856982D01*
X12063678Y-10856982D02*
X12035106Y-10856982D01*
X12035106Y-10856982D02*
X12025583Y-10852220D01*
X12025583Y-10852220D02*
X12020821Y-10847458D01*
X12130345Y-10856982D02*
X12149392Y-10856982D01*
X12149392Y-10856982D02*
X12158916Y-10852220D01*
X12158916Y-10852220D02*
X12163678Y-10847458D01*
X12163678Y-10847458D02*
X12173202Y-10833172D01*
X12173202Y-10833172D02*
X12177964Y-10814125D01*
X12177964Y-10814125D02*
X12177964Y-10776030D01*
X12177964Y-10776030D02*
X12173202Y-10766506D01*
X12173202Y-10766506D02*
X12168440Y-10761744D01*
X12168440Y-10761744D02*
X12158916Y-10756982D01*
X12158916Y-10756982D02*
X12139868Y-10756982D01*
X12139868Y-10756982D02*
X12130345Y-10761744D01*
X12130345Y-10761744D02*
X12125583Y-10766506D01*
X12125583Y-10766506D02*
X12120821Y-10776030D01*
X12120821Y-10776030D02*
X12120821Y-10799839D01*
X12120821Y-10799839D02*
X12125583Y-10809363D01*
X12125583Y-10809363D02*
X12130345Y-10814125D01*
X12130345Y-10814125D02*
X12139868Y-10818887D01*
X12139868Y-10818887D02*
X12158916Y-10818887D01*
X12158916Y-10818887D02*
X12168440Y-10814125D01*
X12168440Y-10814125D02*
X12173202Y-10809363D01*
X12173202Y-10809363D02*
X12177964Y-10799839D01*
X12197011Y-10866506D02*
X12273202Y-10866506D01*
X12297011Y-10856982D02*
X12297011Y-10790315D01*
X12297011Y-10809363D02*
X12301773Y-10799839D01*
X12301773Y-10799839D02*
X12306535Y-10795077D01*
X12306535Y-10795077D02*
X12316059Y-10790315D01*
X12316059Y-10790315D02*
X12325583Y-10790315D01*
X12397011Y-10852220D02*
X12387487Y-10856982D01*
X12387487Y-10856982D02*
X12368440Y-10856982D01*
X12368440Y-10856982D02*
X12358916Y-10852220D01*
X12358916Y-10852220D02*
X12354154Y-10842696D01*
X12354154Y-10842696D02*
X12354154Y-10804601D01*
X12354154Y-10804601D02*
X12358916Y-10795077D01*
X12358916Y-10795077D02*
X12368440Y-10790315D01*
X12368440Y-10790315D02*
X12387487Y-10790315D01*
X12387487Y-10790315D02*
X12397011Y-10795077D01*
X12397011Y-10795077D02*
X12401773Y-10804601D01*
X12401773Y-10804601D02*
X12401773Y-10814125D01*
X12401773Y-10814125D02*
X12354154Y-10823649D01*
X12439868Y-10852220D02*
X12449392Y-10856982D01*
X12449392Y-10856982D02*
X12468440Y-10856982D01*
X12468440Y-10856982D02*
X12477964Y-10852220D01*
X12477964Y-10852220D02*
X12482726Y-10842696D01*
X12482726Y-10842696D02*
X12482726Y-10837934D01*
X12482726Y-10837934D02*
X12477964Y-10828410D01*
X12477964Y-10828410D02*
X12468440Y-10823649D01*
X12468440Y-10823649D02*
X12454154Y-10823649D01*
X12454154Y-10823649D02*
X12444630Y-10818887D01*
X12444630Y-10818887D02*
X12439868Y-10809363D01*
X12439868Y-10809363D02*
X12439868Y-10804601D01*
X12439868Y-10804601D02*
X12444630Y-10795077D01*
X12444630Y-10795077D02*
X12454154Y-10790315D01*
X12454154Y-10790315D02*
X12468440Y-10790315D01*
X12468440Y-10790315D02*
X12477964Y-10795077D01*
X13006506Y-10661084D02*
X13001744Y-10656322D01*
X13001744Y-10656322D02*
X12996982Y-10646798D01*
X12996982Y-10646798D02*
X12996982Y-10622989D01*
X12996982Y-10622989D02*
X13001744Y-10613465D01*
X13001744Y-10613465D02*
X13006506Y-10608703D01*
X13006506Y-10608703D02*
X13016029Y-10603941D01*
X13016029Y-10603941D02*
X13025553Y-10603941D01*
X13025553Y-10603941D02*
X13039839Y-10608703D01*
X13039839Y-10608703D02*
X13096982Y-10665846D01*
X13096982Y-10665846D02*
X13096982Y-10603941D01*
X12996982Y-10542036D02*
X12996982Y-10532513D01*
X12996982Y-10532513D02*
X13001744Y-10522989D01*
X13001744Y-10522989D02*
X13006506Y-10518227D01*
X13006506Y-10518227D02*
X13016029Y-10513465D01*
X13016029Y-10513465D02*
X13035077Y-10508703D01*
X13035077Y-10508703D02*
X13058887Y-10508703D01*
X13058887Y-10508703D02*
X13077934Y-10513465D01*
X13077934Y-10513465D02*
X13087458Y-10518227D01*
X13087458Y-10518227D02*
X13092220Y-10522989D01*
X13092220Y-10522989D02*
X13096982Y-10532513D01*
X13096982Y-10532513D02*
X13096982Y-10542036D01*
X13096982Y-10542036D02*
X13092220Y-10551560D01*
X13092220Y-10551560D02*
X13087458Y-10556322D01*
X13087458Y-10556322D02*
X13077934Y-10561084D01*
X13077934Y-10561084D02*
X13058887Y-10565846D01*
X13058887Y-10565846D02*
X13035077Y-10565846D01*
X13035077Y-10565846D02*
X13016029Y-10561084D01*
X13016029Y-10561084D02*
X13006506Y-10556322D01*
X13006506Y-10556322D02*
X13001744Y-10551560D01*
X13001744Y-10551560D02*
X12996982Y-10542036D01*
X12996982Y-10446798D02*
X12996982Y-10437274D01*
X12996982Y-10437274D02*
X13001744Y-10427751D01*
X13001744Y-10427751D02*
X13006506Y-10422989D01*
X13006506Y-10422989D02*
X13016029Y-10418227D01*
X13016029Y-10418227D02*
X13035077Y-10413465D01*
X13035077Y-10413465D02*
X13058887Y-10413465D01*
X13058887Y-10413465D02*
X13077934Y-10418227D01*
X13077934Y-10418227D02*
X13087458Y-10422989D01*
X13087458Y-10422989D02*
X13092220Y-10427751D01*
X13092220Y-10427751D02*
X13096982Y-10437274D01*
X13096982Y-10437274D02*
X13096982Y-10446798D01*
X13096982Y-10446798D02*
X13092220Y-10456322D01*
X13092220Y-10456322D02*
X13087458Y-10461084D01*
X13087458Y-10461084D02*
X13077934Y-10465846D01*
X13077934Y-10465846D02*
X13058887Y-10470608D01*
X13058887Y-10470608D02*
X13035077Y-10470608D01*
X13035077Y-10470608D02*
X13016029Y-10465846D01*
X13016029Y-10465846D02*
X13006506Y-10461084D01*
X13006506Y-10461084D02*
X13001744Y-10456322D01*
X13001744Y-10456322D02*
X12996982Y-10446798D01*
X12883678Y-10548887D02*
X12959868Y-10548887D01*
X12921773Y-10586982D02*
X12921773Y-10510791D01*
X13856982Y-10693941D02*
X13856982Y-10751084D01*
X13856982Y-10722513D02*
X13756982Y-10722513D01*
X13756982Y-10722513D02*
X13771268Y-10732036D01*
X13771268Y-10732036D02*
X13780791Y-10741560D01*
X13780791Y-10741560D02*
X13785553Y-10751084D01*
X13756982Y-10608227D02*
X13756982Y-10627274D01*
X13756982Y-10627274D02*
X13761744Y-10636798D01*
X13761744Y-10636798D02*
X13766506Y-10641560D01*
X13766506Y-10641560D02*
X13780791Y-10651084D01*
X13780791Y-10651084D02*
X13799839Y-10655846D01*
X13799839Y-10655846D02*
X13837934Y-10655846D01*
X13837934Y-10655846D02*
X13847458Y-10651084D01*
X13847458Y-10651084D02*
X13852220Y-10646322D01*
X13852220Y-10646322D02*
X13856982Y-10636798D01*
X13856982Y-10636798D02*
X13856982Y-10617751D01*
X13856982Y-10617751D02*
X13852220Y-10608227D01*
X13852220Y-10608227D02*
X13847458Y-10603465D01*
X13847458Y-10603465D02*
X13837934Y-10598703D01*
X13837934Y-10598703D02*
X13814125Y-10598703D01*
X13814125Y-10598703D02*
X13804601Y-10603465D01*
X13804601Y-10603465D02*
X13799839Y-10608227D01*
X13799839Y-10608227D02*
X13795077Y-10617751D01*
X13795077Y-10617751D02*
X13795077Y-10636798D01*
X13795077Y-10636798D02*
X13799839Y-10646322D01*
X13799839Y-10646322D02*
X13804601Y-10651084D01*
X13804601Y-10651084D02*
X13814125Y-10655846D01*
X13756982Y-10536798D02*
X13756982Y-10527274D01*
X13756982Y-10527274D02*
X13761744Y-10517751D01*
X13761744Y-10517751D02*
X13766506Y-10512989D01*
X13766506Y-10512989D02*
X13776029Y-10508227D01*
X13776029Y-10508227D02*
X13795077Y-10503465D01*
X13795077Y-10503465D02*
X13818887Y-10503465D01*
X13818887Y-10503465D02*
X13837934Y-10508227D01*
X13837934Y-10508227D02*
X13847458Y-10512989D01*
X13847458Y-10512989D02*
X13852220Y-10517751D01*
X13852220Y-10517751D02*
X13856982Y-10527274D01*
X13856982Y-10527274D02*
X13856982Y-10536798D01*
X13856982Y-10536798D02*
X13852220Y-10546322D01*
X13852220Y-10546322D02*
X13847458Y-10551084D01*
X13847458Y-10551084D02*
X13837934Y-10555846D01*
X13837934Y-10555846D02*
X13818887Y-10560608D01*
X13818887Y-10560608D02*
X13795077Y-10560608D01*
X13795077Y-10560608D02*
X13776029Y-10555846D01*
X13776029Y-10555846D02*
X13766506Y-10551084D01*
X13766506Y-10551084D02*
X13761744Y-10546322D01*
X13761744Y-10546322D02*
X13756982Y-10536798D01*
X13756982Y-10441560D02*
X13756982Y-10432036D01*
X13756982Y-10432036D02*
X13761744Y-10422513D01*
X13761744Y-10422513D02*
X13766506Y-10417751D01*
X13766506Y-10417751D02*
X13776029Y-10412989D01*
X13776029Y-10412989D02*
X13795077Y-10408227D01*
X13795077Y-10408227D02*
X13818887Y-10408227D01*
X13818887Y-10408227D02*
X13837934Y-10412989D01*
X13837934Y-10412989D02*
X13847458Y-10417751D01*
X13847458Y-10417751D02*
X13852220Y-10422513D01*
X13852220Y-10422513D02*
X13856982Y-10432036D01*
X13856982Y-10432036D02*
X13856982Y-10441560D01*
X13856982Y-10441560D02*
X13852220Y-10451084D01*
X13852220Y-10451084D02*
X13847458Y-10455846D01*
X13847458Y-10455846D02*
X13837934Y-10460608D01*
X13837934Y-10460608D02*
X13818887Y-10465370D01*
X13818887Y-10465370D02*
X13795077Y-10465370D01*
X13795077Y-10465370D02*
X13776029Y-10460608D01*
X13776029Y-10460608D02*
X13766506Y-10455846D01*
X13766506Y-10455846D02*
X13761744Y-10451084D01*
X13761744Y-10451084D02*
X13756982Y-10441560D01*
X13393678Y-10538887D02*
X13469868Y-10538887D01*
X13431773Y-10576982D02*
X13431773Y-10500791D01*
X11868916Y-10978410D02*
X11916535Y-10978410D01*
X11859392Y-11006982D02*
X11892725Y-10906982D01*
X11892725Y-10906982D02*
X11926059Y-11006982D01*
X12002249Y-11006982D02*
X12002249Y-10906982D01*
X12002249Y-11002220D02*
X11992725Y-11006982D01*
X11992725Y-11006982D02*
X11973678Y-11006982D01*
X11973678Y-11006982D02*
X11964154Y-11002220D01*
X11964154Y-11002220D02*
X11959392Y-10997458D01*
X11959392Y-10997458D02*
X11954630Y-10987934D01*
X11954630Y-10987934D02*
X11954630Y-10959363D01*
X11954630Y-10959363D02*
X11959392Y-10949839D01*
X11959392Y-10949839D02*
X11964154Y-10945077D01*
X11964154Y-10945077D02*
X11973678Y-10940315D01*
X11973678Y-10940315D02*
X11992725Y-10940315D01*
X11992725Y-10940315D02*
X12002249Y-10945077D01*
X12049868Y-10940315D02*
X12049868Y-11026030D01*
X12049868Y-11026030D02*
X12045106Y-11035553D01*
X12045106Y-11035553D02*
X12035583Y-11040315D01*
X12035583Y-11040315D02*
X12030821Y-11040315D01*
X12049868Y-10906982D02*
X12045106Y-10911744D01*
X12045106Y-10911744D02*
X12049868Y-10916506D01*
X12049868Y-10916506D02*
X12054630Y-10911744D01*
X12054630Y-10911744D02*
X12049868Y-10906982D01*
X12049868Y-10906982D02*
X12049868Y-10916506D01*
X12140344Y-10940315D02*
X12140344Y-11006982D01*
X12097487Y-10940315D02*
X12097487Y-10992696D01*
X12097487Y-10992696D02*
X12102249Y-11002220D01*
X12102249Y-11002220D02*
X12111773Y-11006982D01*
X12111773Y-11006982D02*
X12126059Y-11006982D01*
X12126059Y-11006982D02*
X12135583Y-11002220D01*
X12135583Y-11002220D02*
X12140344Y-10997458D01*
X12183202Y-11002220D02*
X12192725Y-11006982D01*
X12192725Y-11006982D02*
X12211773Y-11006982D01*
X12211773Y-11006982D02*
X12221297Y-11002220D01*
X12221297Y-11002220D02*
X12226059Y-10992696D01*
X12226059Y-10992696D02*
X12226059Y-10987934D01*
X12226059Y-10987934D02*
X12221297Y-10978410D01*
X12221297Y-10978410D02*
X12211773Y-10973649D01*
X12211773Y-10973649D02*
X12197487Y-10973649D01*
X12197487Y-10973649D02*
X12187964Y-10968887D01*
X12187964Y-10968887D02*
X12183202Y-10959363D01*
X12183202Y-10959363D02*
X12183202Y-10954601D01*
X12183202Y-10954601D02*
X12187964Y-10945077D01*
X12187964Y-10945077D02*
X12197487Y-10940315D01*
X12197487Y-10940315D02*
X12211773Y-10940315D01*
X12211773Y-10940315D02*
X12221297Y-10945077D01*
X12254630Y-10940315D02*
X12292725Y-10940315D01*
X12268916Y-10906982D02*
X12268916Y-10992696D01*
X12268916Y-10992696D02*
X12273678Y-11002220D01*
X12273678Y-11002220D02*
X12283202Y-11006982D01*
X12283202Y-11006982D02*
X12292725Y-11006982D01*
X12368916Y-11006982D02*
X12368916Y-10954601D01*
X12368916Y-10954601D02*
X12364154Y-10945077D01*
X12364154Y-10945077D02*
X12354630Y-10940315D01*
X12354630Y-10940315D02*
X12335583Y-10940315D01*
X12335583Y-10940315D02*
X12326059Y-10945077D01*
X12368916Y-11002220D02*
X12359392Y-11006982D01*
X12359392Y-11006982D02*
X12335583Y-11006982D01*
X12335583Y-11006982D02*
X12326059Y-11002220D01*
X12326059Y-11002220D02*
X12321297Y-10992696D01*
X12321297Y-10992696D02*
X12321297Y-10983172D01*
X12321297Y-10983172D02*
X12326059Y-10973649D01*
X12326059Y-10973649D02*
X12335583Y-10968887D01*
X12335583Y-10968887D02*
X12359392Y-10968887D01*
X12359392Y-10968887D02*
X12368916Y-10964125D01*
X12416535Y-11006982D02*
X12416535Y-10906982D01*
X12416535Y-10945077D02*
X12426059Y-10940315D01*
X12426059Y-10940315D02*
X12445106Y-10940315D01*
X12445106Y-10940315D02*
X12454630Y-10945077D01*
X12454630Y-10945077D02*
X12459392Y-10949839D01*
X12459392Y-10949839D02*
X12464154Y-10959363D01*
X12464154Y-10959363D02*
X12464154Y-10987934D01*
X12464154Y-10987934D02*
X12459392Y-10997458D01*
X12459392Y-10997458D02*
X12454630Y-11002220D01*
X12454630Y-11002220D02*
X12445106Y-11006982D01*
X12445106Y-11006982D02*
X12426059Y-11006982D01*
X12426059Y-11006982D02*
X12416535Y-11002220D01*
X12521297Y-11006982D02*
X12511773Y-11002220D01*
X12511773Y-11002220D02*
X12507011Y-10992696D01*
X12507011Y-10992696D02*
X12507011Y-10906982D01*
X12597487Y-11002220D02*
X12587964Y-11006982D01*
X12587964Y-11006982D02*
X12568916Y-11006982D01*
X12568916Y-11006982D02*
X12559392Y-11002220D01*
X12559392Y-11002220D02*
X12554630Y-10992696D01*
X12554630Y-10992696D02*
X12554630Y-10954601D01*
X12554630Y-10954601D02*
X12559392Y-10945077D01*
X12559392Y-10945077D02*
X12568916Y-10940315D01*
X12568916Y-10940315D02*
X12587964Y-10940315D01*
X12587964Y-10940315D02*
X12597487Y-10945077D01*
X12597487Y-10945077D02*
X12602249Y-10954601D01*
X12602249Y-10954601D02*
X12602249Y-10964125D01*
X12602249Y-10964125D02*
X12554630Y-10973649D01*
X12707011Y-10940315D02*
X12745107Y-10940315D01*
X12721297Y-11006982D02*
X12721297Y-10921268D01*
X12721297Y-10921268D02*
X12726059Y-10911744D01*
X12726059Y-10911744D02*
X12735583Y-10906982D01*
X12735583Y-10906982D02*
X12745107Y-10906982D01*
X12792726Y-11006982D02*
X12783202Y-11002220D01*
X12783202Y-11002220D02*
X12778440Y-10997458D01*
X12778440Y-10997458D02*
X12773678Y-10987934D01*
X12773678Y-10987934D02*
X12773678Y-10959363D01*
X12773678Y-10959363D02*
X12778440Y-10949839D01*
X12778440Y-10949839D02*
X12783202Y-10945077D01*
X12783202Y-10945077D02*
X12792726Y-10940315D01*
X12792726Y-10940315D02*
X12807011Y-10940315D01*
X12807011Y-10940315D02*
X12816535Y-10945077D01*
X12816535Y-10945077D02*
X12821297Y-10949839D01*
X12821297Y-10949839D02*
X12826059Y-10959363D01*
X12826059Y-10959363D02*
X12826059Y-10987934D01*
X12826059Y-10987934D02*
X12821297Y-10997458D01*
X12821297Y-10997458D02*
X12816535Y-11002220D01*
X12816535Y-11002220D02*
X12807011Y-11006982D01*
X12807011Y-11006982D02*
X12792726Y-11006982D01*
X12868916Y-11006982D02*
X12868916Y-10940315D01*
X12868916Y-10959363D02*
X12873678Y-10949839D01*
X12873678Y-10949839D02*
X12878440Y-10945077D01*
X12878440Y-10945077D02*
X12887964Y-10940315D01*
X12887964Y-10940315D02*
X12897488Y-10940315D01*
X12921297Y-10940315D02*
X12940345Y-11006982D01*
X12940345Y-11006982D02*
X12959392Y-10959363D01*
X12959392Y-10959363D02*
X12978440Y-11006982D01*
X12978440Y-11006982D02*
X12997488Y-10940315D01*
X13078440Y-11006982D02*
X13078440Y-10954601D01*
X13078440Y-10954601D02*
X13073678Y-10945077D01*
X13073678Y-10945077D02*
X13064154Y-10940315D01*
X13064154Y-10940315D02*
X13045107Y-10940315D01*
X13045107Y-10940315D02*
X13035583Y-10945077D01*
X13078440Y-11002220D02*
X13068916Y-11006982D01*
X13068916Y-11006982D02*
X13045107Y-11006982D01*
X13045107Y-11006982D02*
X13035583Y-11002220D01*
X13035583Y-11002220D02*
X13030821Y-10992696D01*
X13030821Y-10992696D02*
X13030821Y-10983172D01*
X13030821Y-10983172D02*
X13035583Y-10973649D01*
X13035583Y-10973649D02*
X13045107Y-10968887D01*
X13045107Y-10968887D02*
X13068916Y-10968887D01*
X13068916Y-10968887D02*
X13078440Y-10964125D01*
X13126059Y-11006982D02*
X13126059Y-10940315D01*
X13126059Y-10959363D02*
X13130821Y-10949839D01*
X13130821Y-10949839D02*
X13135583Y-10945077D01*
X13135583Y-10945077D02*
X13145107Y-10940315D01*
X13145107Y-10940315D02*
X13154630Y-10940315D01*
X13230821Y-11006982D02*
X13230821Y-10906982D01*
X13230821Y-11002220D02*
X13221297Y-11006982D01*
X13221297Y-11006982D02*
X13202250Y-11006982D01*
X13202250Y-11006982D02*
X13192726Y-11002220D01*
X13192726Y-11002220D02*
X13187964Y-10997458D01*
X13187964Y-10997458D02*
X13183202Y-10987934D01*
X13183202Y-10987934D02*
X13183202Y-10959363D01*
X13183202Y-10959363D02*
X13187964Y-10949839D01*
X13187964Y-10949839D02*
X13192726Y-10945077D01*
X13192726Y-10945077D02*
X13202250Y-10940315D01*
X13202250Y-10940315D02*
X13221297Y-10940315D01*
X13221297Y-10940315D02*
X13230821Y-10945077D01*
X13354631Y-11006982D02*
X13354631Y-10940315D01*
X13354631Y-10959363D02*
X13359392Y-10949839D01*
X13359392Y-10949839D02*
X13364154Y-10945077D01*
X13364154Y-10945077D02*
X13373678Y-10940315D01*
X13373678Y-10940315D02*
X13383202Y-10940315D01*
X13454631Y-11002220D02*
X13445107Y-11006982D01*
X13445107Y-11006982D02*
X13426059Y-11006982D01*
X13426059Y-11006982D02*
X13416535Y-11002220D01*
X13416535Y-11002220D02*
X13411773Y-10992696D01*
X13411773Y-10992696D02*
X13411773Y-10954601D01*
X13411773Y-10954601D02*
X13416535Y-10945077D01*
X13416535Y-10945077D02*
X13426059Y-10940315D01*
X13426059Y-10940315D02*
X13445107Y-10940315D01*
X13445107Y-10940315D02*
X13454631Y-10945077D01*
X13454631Y-10945077D02*
X13459392Y-10954601D01*
X13459392Y-10954601D02*
X13459392Y-10964125D01*
X13459392Y-10964125D02*
X13411773Y-10973649D01*
X13497488Y-11002220D02*
X13507012Y-11006982D01*
X13507012Y-11006982D02*
X13526059Y-11006982D01*
X13526059Y-11006982D02*
X13535583Y-11002220D01*
X13535583Y-11002220D02*
X13540345Y-10992696D01*
X13540345Y-10992696D02*
X13540345Y-10987934D01*
X13540345Y-10987934D02*
X13535583Y-10978410D01*
X13535583Y-10978410D02*
X13526059Y-10973649D01*
X13526059Y-10973649D02*
X13511773Y-10973649D01*
X13511773Y-10973649D02*
X13502250Y-10968887D01*
X13502250Y-10968887D02*
X13497488Y-10959363D01*
X13497488Y-10959363D02*
X13497488Y-10954601D01*
X13497488Y-10954601D02*
X13502250Y-10945077D01*
X13502250Y-10945077D02*
X13511773Y-10940315D01*
X13511773Y-10940315D02*
X13526059Y-10940315D01*
X13526059Y-10940315D02*
X13535583Y-10945077D01*
X13583202Y-11006982D02*
X13583202Y-10940315D01*
X13583202Y-10906982D02*
X13578440Y-10911744D01*
X13578440Y-10911744D02*
X13583202Y-10916506D01*
X13583202Y-10916506D02*
X13587964Y-10911744D01*
X13587964Y-10911744D02*
X13583202Y-10906982D01*
X13583202Y-10906982D02*
X13583202Y-10916506D01*
X13626059Y-11002220D02*
X13635583Y-11006982D01*
X13635583Y-11006982D02*
X13654631Y-11006982D01*
X13654631Y-11006982D02*
X13664154Y-11002220D01*
X13664154Y-11002220D02*
X13668916Y-10992696D01*
X13668916Y-10992696D02*
X13668916Y-10987934D01*
X13668916Y-10987934D02*
X13664154Y-10978410D01*
X13664154Y-10978410D02*
X13654631Y-10973649D01*
X13654631Y-10973649D02*
X13640345Y-10973649D01*
X13640345Y-10973649D02*
X13630821Y-10968887D01*
X13630821Y-10968887D02*
X13626059Y-10959363D01*
X13626059Y-10959363D02*
X13626059Y-10954601D01*
X13626059Y-10954601D02*
X13630821Y-10945077D01*
X13630821Y-10945077D02*
X13640345Y-10940315D01*
X13640345Y-10940315D02*
X13654631Y-10940315D01*
X13654631Y-10940315D02*
X13664154Y-10945077D01*
X13697488Y-10940315D02*
X13735583Y-10940315D01*
X13711773Y-10906982D02*
X13711773Y-10992696D01*
X13711773Y-10992696D02*
X13716535Y-11002220D01*
X13716535Y-11002220D02*
X13726059Y-11006982D01*
X13726059Y-11006982D02*
X13735583Y-11006982D01*
X13783202Y-11006982D02*
X13773678Y-11002220D01*
X13773678Y-11002220D02*
X13768916Y-10997458D01*
X13768916Y-10997458D02*
X13764154Y-10987934D01*
X13764154Y-10987934D02*
X13764154Y-10959363D01*
X13764154Y-10959363D02*
X13768916Y-10949839D01*
X13768916Y-10949839D02*
X13773678Y-10945077D01*
X13773678Y-10945077D02*
X13783202Y-10940315D01*
X13783202Y-10940315D02*
X13797488Y-10940315D01*
X13797488Y-10940315D02*
X13807012Y-10945077D01*
X13807012Y-10945077D02*
X13811773Y-10949839D01*
X13811773Y-10949839D02*
X13816535Y-10959363D01*
X13816535Y-10959363D02*
X13816535Y-10987934D01*
X13816535Y-10987934D02*
X13811773Y-10997458D01*
X13811773Y-10997458D02*
X13807012Y-11002220D01*
X13807012Y-11002220D02*
X13797488Y-11006982D01*
X13797488Y-11006982D02*
X13783202Y-11006982D01*
X13859393Y-11006982D02*
X13859393Y-10940315D01*
X13859393Y-10959363D02*
X13864154Y-10949839D01*
X13864154Y-10949839D02*
X13868916Y-10945077D01*
X13868916Y-10945077D02*
X13878440Y-10940315D01*
X13878440Y-10940315D02*
X13887964Y-10940315D01*
X13290315Y-10613465D02*
X13356982Y-10613465D01*
X13252220Y-10637274D02*
X13323648Y-10661084D01*
X13323648Y-10661084D02*
X13323648Y-10599179D01*
X13256982Y-10542036D02*
X13256982Y-10532513D01*
X13256982Y-10532513D02*
X13261744Y-10522989D01*
X13261744Y-10522989D02*
X13266506Y-10518227D01*
X13266506Y-10518227D02*
X13276029Y-10513465D01*
X13276029Y-10513465D02*
X13295077Y-10508703D01*
X13295077Y-10508703D02*
X13318887Y-10508703D01*
X13318887Y-10508703D02*
X13337934Y-10513465D01*
X13337934Y-10513465D02*
X13347458Y-10518227D01*
X13347458Y-10518227D02*
X13352220Y-10522989D01*
X13352220Y-10522989D02*
X13356982Y-10532513D01*
X13356982Y-10532513D02*
X13356982Y-10542036D01*
X13356982Y-10542036D02*
X13352220Y-10551560D01*
X13352220Y-10551560D02*
X13347458Y-10556322D01*
X13347458Y-10556322D02*
X13337934Y-10561084D01*
X13337934Y-10561084D02*
X13318887Y-10565846D01*
X13318887Y-10565846D02*
X13295077Y-10565846D01*
X13295077Y-10565846D02*
X13276029Y-10561084D01*
X13276029Y-10561084D02*
X13266506Y-10556322D01*
X13266506Y-10556322D02*
X13261744Y-10551560D01*
X13261744Y-10551560D02*
X13256982Y-10542036D01*
X13256982Y-10446798D02*
X13256982Y-10437274D01*
X13256982Y-10437274D02*
X13261744Y-10427751D01*
X13261744Y-10427751D02*
X13266506Y-10422989D01*
X13266506Y-10422989D02*
X13276029Y-10418227D01*
X13276029Y-10418227D02*
X13295077Y-10413465D01*
X13295077Y-10413465D02*
X13318887Y-10413465D01*
X13318887Y-10413465D02*
X13337934Y-10418227D01*
X13337934Y-10418227D02*
X13347458Y-10422989D01*
X13347458Y-10422989D02*
X13352220Y-10427751D01*
X13352220Y-10427751D02*
X13356982Y-10437274D01*
X13356982Y-10437274D02*
X13356982Y-10446798D01*
X13356982Y-10446798D02*
X13352220Y-10456322D01*
X13352220Y-10456322D02*
X13347458Y-10461084D01*
X13347458Y-10461084D02*
X13337934Y-10465846D01*
X13337934Y-10465846D02*
X13318887Y-10470608D01*
X13318887Y-10470608D02*
X13295077Y-10470608D01*
X13295077Y-10470608D02*
X13276029Y-10465846D01*
X13276029Y-10465846D02*
X13266506Y-10461084D01*
X13266506Y-10461084D02*
X13261744Y-10456322D01*
X13261744Y-10456322D02*
X13256982Y-10446798D01*
X13143678Y-10538887D02*
X13219868Y-10538887D01*
X13181773Y-10576982D02*
X13181773Y-10500791D01*
D11*
X11426453Y-9437205D02*
X11399360Y-9398501D01*
X11380008Y-9437205D02*
X11380008Y-9355925D01*
X11380008Y-9355925D02*
X11410971Y-9355925D01*
X11410971Y-9355925D02*
X11418712Y-9359796D01*
X11418712Y-9359796D02*
X11422583Y-9363666D01*
X11422583Y-9363666D02*
X11426453Y-9371407D01*
X11426453Y-9371407D02*
X11426453Y-9383019D01*
X11426453Y-9383019D02*
X11422583Y-9390760D01*
X11422583Y-9390760D02*
X11418712Y-9394630D01*
X11418712Y-9394630D02*
X11410971Y-9398501D01*
X11410971Y-9398501D02*
X11380008Y-9398501D01*
X11496122Y-9355925D02*
X11480640Y-9355925D01*
X11480640Y-9355925D02*
X11472899Y-9359796D01*
X11472899Y-9359796D02*
X11469029Y-9363666D01*
X11469029Y-9363666D02*
X11461288Y-9375278D01*
X11461288Y-9375278D02*
X11457417Y-9390760D01*
X11457417Y-9390760D02*
X11457417Y-9421723D01*
X11457417Y-9421723D02*
X11461288Y-9429464D01*
X11461288Y-9429464D02*
X11465158Y-9433335D01*
X11465158Y-9433335D02*
X11472899Y-9437205D01*
X11472899Y-9437205D02*
X11488381Y-9437205D01*
X11488381Y-9437205D02*
X11496122Y-9433335D01*
X11496122Y-9433335D02*
X11499992Y-9429464D01*
X11499992Y-9429464D02*
X11503863Y-9421723D01*
X11503863Y-9421723D02*
X11503863Y-9402371D01*
X11503863Y-9402371D02*
X11499992Y-9394630D01*
X11499992Y-9394630D02*
X11496122Y-9390760D01*
X11496122Y-9390760D02*
X11488381Y-9386889D01*
X11488381Y-9386889D02*
X11472899Y-9386889D01*
X11472899Y-9386889D02*
X11465158Y-9390760D01*
X11465158Y-9390760D02*
X11461288Y-9394630D01*
X11461288Y-9394630D02*
X11457417Y-9402371D01*
X11499368Y-9613666D02*
X11503238Y-9609796D01*
X11503238Y-9609796D02*
X11510979Y-9605925D01*
X11510979Y-9605925D02*
X11530331Y-9605925D01*
X11530331Y-9605925D02*
X11538072Y-9609796D01*
X11538072Y-9609796D02*
X11541943Y-9613666D01*
X11541943Y-9613666D02*
X11545813Y-9621407D01*
X11545813Y-9621407D02*
X11545813Y-9629148D01*
X11545813Y-9629148D02*
X11541943Y-9640760D01*
X11541943Y-9640760D02*
X11495497Y-9687205D01*
X11495497Y-9687205D02*
X11545813Y-9687205D01*
X11596129Y-9605925D02*
X11603870Y-9605925D01*
X11603870Y-9605925D02*
X11611611Y-9609796D01*
X11611611Y-9609796D02*
X11615482Y-9613666D01*
X11615482Y-9613666D02*
X11619352Y-9621407D01*
X11619352Y-9621407D02*
X11623223Y-9636889D01*
X11623223Y-9636889D02*
X11623223Y-9656242D01*
X11623223Y-9656242D02*
X11619352Y-9671723D01*
X11619352Y-9671723D02*
X11615482Y-9679464D01*
X11615482Y-9679464D02*
X11611611Y-9683335D01*
X11611611Y-9683335D02*
X11603870Y-9687205D01*
X11603870Y-9687205D02*
X11596129Y-9687205D01*
X11596129Y-9687205D02*
X11588389Y-9683335D01*
X11588389Y-9683335D02*
X11584518Y-9679464D01*
X11584518Y-9679464D02*
X11580648Y-9671723D01*
X11580648Y-9671723D02*
X11576777Y-9656242D01*
X11576777Y-9656242D02*
X11576777Y-9636889D01*
X11576777Y-9636889D02*
X11580648Y-9621407D01*
X11580648Y-9621407D02*
X11584518Y-9613666D01*
X11584518Y-9613666D02*
X11588389Y-9609796D01*
X11588389Y-9609796D02*
X11596129Y-9605925D01*
X11673539Y-9605925D02*
X11681280Y-9605925D01*
X11681280Y-9605925D02*
X11689021Y-9609796D01*
X11689021Y-9609796D02*
X11692891Y-9613666D01*
X11692891Y-9613666D02*
X11696762Y-9621407D01*
X11696762Y-9621407D02*
X11700632Y-9636889D01*
X11700632Y-9636889D02*
X11700632Y-9656242D01*
X11700632Y-9656242D02*
X11696762Y-9671723D01*
X11696762Y-9671723D02*
X11692891Y-9679464D01*
X11692891Y-9679464D02*
X11689021Y-9683335D01*
X11689021Y-9683335D02*
X11681280Y-9687205D01*
X11681280Y-9687205D02*
X11673539Y-9687205D01*
X11673539Y-9687205D02*
X11665798Y-9683335D01*
X11665798Y-9683335D02*
X11661928Y-9679464D01*
X11661928Y-9679464D02*
X11658057Y-9671723D01*
X11658057Y-9671723D02*
X11654187Y-9656242D01*
X11654187Y-9656242D02*
X11654187Y-9636889D01*
X11654187Y-9636889D02*
X11658057Y-9621407D01*
X11658057Y-9621407D02*
X11661928Y-9613666D01*
X11661928Y-9613666D02*
X11665798Y-9609796D01*
X11665798Y-9609796D02*
X11673539Y-9605925D01*
X11608673Y-9039725D02*
X11581580Y-9001021D01*
X11562228Y-9039725D02*
X11562228Y-8958445D01*
X11562228Y-8958445D02*
X11593191Y-8958445D01*
X11593191Y-8958445D02*
X11600932Y-8962316D01*
X11600932Y-8962316D02*
X11604803Y-8966186D01*
X11604803Y-8966186D02*
X11608673Y-8973927D01*
X11608673Y-8973927D02*
X11608673Y-8985539D01*
X11608673Y-8985539D02*
X11604803Y-8993280D01*
X11604803Y-8993280D02*
X11600932Y-8997150D01*
X11600932Y-8997150D02*
X11593191Y-9001021D01*
X11593191Y-9001021D02*
X11562228Y-9001021D01*
X11635767Y-8958445D02*
X11686083Y-8958445D01*
X11686083Y-8958445D02*
X11658989Y-8989409D01*
X11658989Y-8989409D02*
X11670601Y-8989409D01*
X11670601Y-8989409D02*
X11678342Y-8993280D01*
X11678342Y-8993280D02*
X11682212Y-8997150D01*
X11682212Y-8997150D02*
X11686083Y-9004891D01*
X11686083Y-9004891D02*
X11686083Y-9024243D01*
X11686083Y-9024243D02*
X11682212Y-9031984D01*
X11682212Y-9031984D02*
X11678342Y-9035855D01*
X11678342Y-9035855D02*
X11670601Y-9039725D01*
X11670601Y-9039725D02*
X11647378Y-9039725D01*
X11647378Y-9039725D02*
X11639637Y-9035855D01*
X11639637Y-9035855D02*
X11635767Y-9031984D01*
X11470788Y-9258286D02*
X11474658Y-9254416D01*
X11474658Y-9254416D02*
X11482399Y-9250545D01*
X11482399Y-9250545D02*
X11501751Y-9250545D01*
X11501751Y-9250545D02*
X11509492Y-9254416D01*
X11509492Y-9254416D02*
X11513363Y-9258286D01*
X11513363Y-9258286D02*
X11517233Y-9266027D01*
X11517233Y-9266027D02*
X11517233Y-9273768D01*
X11517233Y-9273768D02*
X11513363Y-9285380D01*
X11513363Y-9285380D02*
X11466917Y-9331825D01*
X11466917Y-9331825D02*
X11517233Y-9331825D01*
X11567549Y-9250545D02*
X11575290Y-9250545D01*
X11575290Y-9250545D02*
X11583031Y-9254416D01*
X11583031Y-9254416D02*
X11586902Y-9258286D01*
X11586902Y-9258286D02*
X11590772Y-9266027D01*
X11590772Y-9266027D02*
X11594643Y-9281509D01*
X11594643Y-9281509D02*
X11594643Y-9300862D01*
X11594643Y-9300862D02*
X11590772Y-9316343D01*
X11590772Y-9316343D02*
X11586902Y-9324084D01*
X11586902Y-9324084D02*
X11583031Y-9327955D01*
X11583031Y-9327955D02*
X11575290Y-9331825D01*
X11575290Y-9331825D02*
X11567549Y-9331825D01*
X11567549Y-9331825D02*
X11559809Y-9327955D01*
X11559809Y-9327955D02*
X11555938Y-9324084D01*
X11555938Y-9324084D02*
X11552068Y-9316343D01*
X11552068Y-9316343D02*
X11548197Y-9300862D01*
X11548197Y-9300862D02*
X11548197Y-9281509D01*
X11548197Y-9281509D02*
X11552068Y-9266027D01*
X11552068Y-9266027D02*
X11555938Y-9258286D01*
X11555938Y-9258286D02*
X11559809Y-9254416D01*
X11559809Y-9254416D02*
X11567549Y-9250545D01*
X11644959Y-9250545D02*
X11652700Y-9250545D01*
X11652700Y-9250545D02*
X11660441Y-9254416D01*
X11660441Y-9254416D02*
X11664311Y-9258286D01*
X11664311Y-9258286D02*
X11668182Y-9266027D01*
X11668182Y-9266027D02*
X11672052Y-9281509D01*
X11672052Y-9281509D02*
X11672052Y-9300862D01*
X11672052Y-9300862D02*
X11668182Y-9316343D01*
X11668182Y-9316343D02*
X11664311Y-9324084D01*
X11664311Y-9324084D02*
X11660441Y-9327955D01*
X11660441Y-9327955D02*
X11652700Y-9331825D01*
X11652700Y-9331825D02*
X11644959Y-9331825D01*
X11644959Y-9331825D02*
X11637218Y-9327955D01*
X11637218Y-9327955D02*
X11633348Y-9324084D01*
X11633348Y-9324084D02*
X11629477Y-9316343D01*
X11629477Y-9316343D02*
X11625607Y-9300862D01*
X11625607Y-9300862D02*
X11625607Y-9281509D01*
X11625607Y-9281509D02*
X11629477Y-9266027D01*
X11629477Y-9266027D02*
X11633348Y-9258286D01*
X11633348Y-9258286D02*
X11637218Y-9254416D01*
X11637218Y-9254416D02*
X11644959Y-9250545D01*
X11047749Y-10117205D02*
X11020655Y-10078501D01*
X11001303Y-10117205D02*
X11001303Y-10035925D01*
X11001303Y-10035925D02*
X11032267Y-10035925D01*
X11032267Y-10035925D02*
X11040008Y-10039796D01*
X11040008Y-10039796D02*
X11043878Y-10043666D01*
X11043878Y-10043666D02*
X11047749Y-10051407D01*
X11047749Y-10051407D02*
X11047749Y-10063019D01*
X11047749Y-10063019D02*
X11043878Y-10070760D01*
X11043878Y-10070760D02*
X11040008Y-10074630D01*
X11040008Y-10074630D02*
X11032267Y-10078501D01*
X11032267Y-10078501D02*
X11001303Y-10078501D01*
X11125158Y-10117205D02*
X11078712Y-10117205D01*
X11101935Y-10117205D02*
X11101935Y-10035925D01*
X11101935Y-10035925D02*
X11094194Y-10047537D01*
X11094194Y-10047537D02*
X11086453Y-10055278D01*
X11086453Y-10055278D02*
X11078712Y-10059148D01*
X11152251Y-10035925D02*
X11202568Y-10035925D01*
X11202568Y-10035925D02*
X11175474Y-10066889D01*
X11175474Y-10066889D02*
X11187086Y-10066889D01*
X11187086Y-10066889D02*
X11194827Y-10070760D01*
X11194827Y-10070760D02*
X11198697Y-10074630D01*
X11198697Y-10074630D02*
X11202568Y-10082371D01*
X11202568Y-10082371D02*
X11202568Y-10101723D01*
X11202568Y-10101723D02*
X11198697Y-10109464D01*
X11198697Y-10109464D02*
X11194827Y-10113335D01*
X11194827Y-10113335D02*
X11187086Y-10117205D01*
X11187086Y-10117205D02*
X11163863Y-10117205D01*
X11163863Y-10117205D02*
X11156122Y-10113335D01*
X11156122Y-10113335D02*
X11152251Y-10109464D01*
X11232267Y-10295925D02*
X11282583Y-10295925D01*
X11282583Y-10295925D02*
X11255489Y-10326889D01*
X11255489Y-10326889D02*
X11267101Y-10326889D01*
X11267101Y-10326889D02*
X11274842Y-10330760D01*
X11274842Y-10330760D02*
X11278712Y-10334630D01*
X11278712Y-10334630D02*
X11282583Y-10342371D01*
X11282583Y-10342371D02*
X11282583Y-10361723D01*
X11282583Y-10361723D02*
X11278712Y-10369464D01*
X11278712Y-10369464D02*
X11274842Y-10373335D01*
X11274842Y-10373335D02*
X11267101Y-10377205D01*
X11267101Y-10377205D02*
X11243878Y-10377205D01*
X11243878Y-10377205D02*
X11236137Y-10373335D01*
X11236137Y-10373335D02*
X11232267Y-10369464D01*
X11317417Y-10377205D02*
X11317417Y-10295925D01*
X11363863Y-10377205D02*
X11329029Y-10330760D01*
X11363863Y-10295925D02*
X11317417Y-10342371D01*
X11086453Y-9437205D02*
X11059360Y-9398501D01*
X11040008Y-9437205D02*
X11040008Y-9355925D01*
X11040008Y-9355925D02*
X11070971Y-9355925D01*
X11070971Y-9355925D02*
X11078712Y-9359796D01*
X11078712Y-9359796D02*
X11082583Y-9363666D01*
X11082583Y-9363666D02*
X11086453Y-9371407D01*
X11086453Y-9371407D02*
X11086453Y-9383019D01*
X11086453Y-9383019D02*
X11082583Y-9390760D01*
X11082583Y-9390760D02*
X11078712Y-9394630D01*
X11078712Y-9394630D02*
X11070971Y-9398501D01*
X11070971Y-9398501D02*
X11040008Y-9398501D01*
X11159992Y-9355925D02*
X11121288Y-9355925D01*
X11121288Y-9355925D02*
X11117417Y-9394630D01*
X11117417Y-9394630D02*
X11121288Y-9390760D01*
X11121288Y-9390760D02*
X11129029Y-9386889D01*
X11129029Y-9386889D02*
X11148381Y-9386889D01*
X11148381Y-9386889D02*
X11156122Y-9390760D01*
X11156122Y-9390760D02*
X11159992Y-9394630D01*
X11159992Y-9394630D02*
X11163863Y-9402371D01*
X11163863Y-9402371D02*
X11163863Y-9421723D01*
X11163863Y-9421723D02*
X11159992Y-9429464D01*
X11159992Y-9429464D02*
X11156122Y-9433335D01*
X11156122Y-9433335D02*
X11148381Y-9437205D01*
X11148381Y-9437205D02*
X11129029Y-9437205D01*
X11129029Y-9437205D02*
X11121288Y-9433335D01*
X11121288Y-9433335D02*
X11117417Y-9429464D01*
X11159368Y-9613666D02*
X11163238Y-9609796D01*
X11163238Y-9609796D02*
X11170979Y-9605925D01*
X11170979Y-9605925D02*
X11190331Y-9605925D01*
X11190331Y-9605925D02*
X11198072Y-9609796D01*
X11198072Y-9609796D02*
X11201943Y-9613666D01*
X11201943Y-9613666D02*
X11205813Y-9621407D01*
X11205813Y-9621407D02*
X11205813Y-9629148D01*
X11205813Y-9629148D02*
X11201943Y-9640760D01*
X11201943Y-9640760D02*
X11155497Y-9687205D01*
X11155497Y-9687205D02*
X11205813Y-9687205D01*
X11256129Y-9605925D02*
X11263870Y-9605925D01*
X11263870Y-9605925D02*
X11271611Y-9609796D01*
X11271611Y-9609796D02*
X11275482Y-9613666D01*
X11275482Y-9613666D02*
X11279352Y-9621407D01*
X11279352Y-9621407D02*
X11283223Y-9636889D01*
X11283223Y-9636889D02*
X11283223Y-9656242D01*
X11283223Y-9656242D02*
X11279352Y-9671723D01*
X11279352Y-9671723D02*
X11275482Y-9679464D01*
X11275482Y-9679464D02*
X11271611Y-9683335D01*
X11271611Y-9683335D02*
X11263870Y-9687205D01*
X11263870Y-9687205D02*
X11256129Y-9687205D01*
X11256129Y-9687205D02*
X11248389Y-9683335D01*
X11248389Y-9683335D02*
X11244518Y-9679464D01*
X11244518Y-9679464D02*
X11240648Y-9671723D01*
X11240648Y-9671723D02*
X11236777Y-9656242D01*
X11236777Y-9656242D02*
X11236777Y-9636889D01*
X11236777Y-9636889D02*
X11240648Y-9621407D01*
X11240648Y-9621407D02*
X11244518Y-9613666D01*
X11244518Y-9613666D02*
X11248389Y-9609796D01*
X11248389Y-9609796D02*
X11256129Y-9605925D01*
X11333539Y-9605925D02*
X11341280Y-9605925D01*
X11341280Y-9605925D02*
X11349021Y-9609796D01*
X11349021Y-9609796D02*
X11352891Y-9613666D01*
X11352891Y-9613666D02*
X11356762Y-9621407D01*
X11356762Y-9621407D02*
X11360632Y-9636889D01*
X11360632Y-9636889D02*
X11360632Y-9656242D01*
X11360632Y-9656242D02*
X11356762Y-9671723D01*
X11356762Y-9671723D02*
X11352891Y-9679464D01*
X11352891Y-9679464D02*
X11349021Y-9683335D01*
X11349021Y-9683335D02*
X11341280Y-9687205D01*
X11341280Y-9687205D02*
X11333539Y-9687205D01*
X11333539Y-9687205D02*
X11325798Y-9683335D01*
X11325798Y-9683335D02*
X11321928Y-9679464D01*
X11321928Y-9679464D02*
X11318057Y-9671723D01*
X11318057Y-9671723D02*
X11314187Y-9656242D01*
X11314187Y-9656242D02*
X11314187Y-9636889D01*
X11314187Y-9636889D02*
X11318057Y-9621407D01*
X11318057Y-9621407D02*
X11321928Y-9613666D01*
X11321928Y-9613666D02*
X11325798Y-9609796D01*
X11325798Y-9609796D02*
X11333539Y-9605925D01*
X11587748Y-9777205D02*
X11560655Y-9738501D01*
X11541303Y-9777205D02*
X11541303Y-9695925D01*
X11541303Y-9695925D02*
X11572267Y-9695925D01*
X11572267Y-9695925D02*
X11580008Y-9699796D01*
X11580008Y-9699796D02*
X11583878Y-9703666D01*
X11583878Y-9703666D02*
X11587748Y-9711407D01*
X11587748Y-9711407D02*
X11587748Y-9723019D01*
X11587748Y-9723019D02*
X11583878Y-9730760D01*
X11583878Y-9730760D02*
X11580008Y-9734630D01*
X11580008Y-9734630D02*
X11572267Y-9738501D01*
X11572267Y-9738501D02*
X11541303Y-9738501D01*
X11665158Y-9777205D02*
X11618712Y-9777205D01*
X11641935Y-9777205D02*
X11641935Y-9695925D01*
X11641935Y-9695925D02*
X11634194Y-9707537D01*
X11634194Y-9707537D02*
X11626453Y-9715278D01*
X11626453Y-9715278D02*
X11618712Y-9719148D01*
X11742568Y-9777205D02*
X11696122Y-9777205D01*
X11719345Y-9777205D02*
X11719345Y-9695925D01*
X11719345Y-9695925D02*
X11711604Y-9707537D01*
X11711604Y-9707537D02*
X11703863Y-9715278D01*
X11703863Y-9715278D02*
X11696122Y-9719148D01*
X11539368Y-9958286D02*
X11543238Y-9954416D01*
X11543238Y-9954416D02*
X11550979Y-9950545D01*
X11550979Y-9950545D02*
X11570331Y-9950545D01*
X11570331Y-9950545D02*
X11578072Y-9954416D01*
X11578072Y-9954416D02*
X11581943Y-9958286D01*
X11581943Y-9958286D02*
X11585813Y-9966027D01*
X11585813Y-9966027D02*
X11585813Y-9973768D01*
X11585813Y-9973768D02*
X11581943Y-9985380D01*
X11581943Y-9985380D02*
X11535497Y-10031825D01*
X11535497Y-10031825D02*
X11585813Y-10031825D01*
X11636129Y-9950545D02*
X11643870Y-9950545D01*
X11643870Y-9950545D02*
X11651611Y-9954416D01*
X11651611Y-9954416D02*
X11655482Y-9958286D01*
X11655482Y-9958286D02*
X11659352Y-9966027D01*
X11659352Y-9966027D02*
X11663223Y-9981509D01*
X11663223Y-9981509D02*
X11663223Y-10000862D01*
X11663223Y-10000862D02*
X11659352Y-10016343D01*
X11659352Y-10016343D02*
X11655482Y-10024084D01*
X11655482Y-10024084D02*
X11651611Y-10027955D01*
X11651611Y-10027955D02*
X11643870Y-10031825D01*
X11643870Y-10031825D02*
X11636129Y-10031825D01*
X11636129Y-10031825D02*
X11628389Y-10027955D01*
X11628389Y-10027955D02*
X11624518Y-10024084D01*
X11624518Y-10024084D02*
X11620648Y-10016343D01*
X11620648Y-10016343D02*
X11616777Y-10000862D01*
X11616777Y-10000862D02*
X11616777Y-9981509D01*
X11616777Y-9981509D02*
X11620648Y-9966027D01*
X11620648Y-9966027D02*
X11624518Y-9958286D01*
X11624518Y-9958286D02*
X11628389Y-9954416D01*
X11628389Y-9954416D02*
X11636129Y-9950545D01*
X11713539Y-9950545D02*
X11721280Y-9950545D01*
X11721280Y-9950545D02*
X11729021Y-9954416D01*
X11729021Y-9954416D02*
X11732891Y-9958286D01*
X11732891Y-9958286D02*
X11736762Y-9966027D01*
X11736762Y-9966027D02*
X11740632Y-9981509D01*
X11740632Y-9981509D02*
X11740632Y-10000862D01*
X11740632Y-10000862D02*
X11736762Y-10016343D01*
X11736762Y-10016343D02*
X11732891Y-10024084D01*
X11732891Y-10024084D02*
X11729021Y-10027955D01*
X11729021Y-10027955D02*
X11721280Y-10031825D01*
X11721280Y-10031825D02*
X11713539Y-10031825D01*
X11713539Y-10031825D02*
X11705798Y-10027955D01*
X11705798Y-10027955D02*
X11701928Y-10024084D01*
X11701928Y-10024084D02*
X11698057Y-10016343D01*
X11698057Y-10016343D02*
X11694187Y-10000862D01*
X11694187Y-10000862D02*
X11694187Y-9981509D01*
X11694187Y-9981509D02*
X11698057Y-9966027D01*
X11698057Y-9966027D02*
X11701928Y-9958286D01*
X11701928Y-9958286D02*
X11705798Y-9954416D01*
X11705798Y-9954416D02*
X11713539Y-9950545D01*
X12286453Y-9777205D02*
X12259360Y-9738501D01*
X12240008Y-9777205D02*
X12240008Y-9695925D01*
X12240008Y-9695925D02*
X12270971Y-9695925D01*
X12270971Y-9695925D02*
X12278712Y-9699796D01*
X12278712Y-9699796D02*
X12282583Y-9703666D01*
X12282583Y-9703666D02*
X12286453Y-9711407D01*
X12286453Y-9711407D02*
X12286453Y-9723019D01*
X12286453Y-9723019D02*
X12282583Y-9730760D01*
X12282583Y-9730760D02*
X12278712Y-9734630D01*
X12278712Y-9734630D02*
X12270971Y-9738501D01*
X12270971Y-9738501D02*
X12240008Y-9738501D01*
X12325158Y-9777205D02*
X12340640Y-9777205D01*
X12340640Y-9777205D02*
X12348381Y-9773335D01*
X12348381Y-9773335D02*
X12352251Y-9769464D01*
X12352251Y-9769464D02*
X12359992Y-9757853D01*
X12359992Y-9757853D02*
X12363863Y-9742371D01*
X12363863Y-9742371D02*
X12363863Y-9711407D01*
X12363863Y-9711407D02*
X12359992Y-9703666D01*
X12359992Y-9703666D02*
X12356122Y-9699796D01*
X12356122Y-9699796D02*
X12348381Y-9695925D01*
X12348381Y-9695925D02*
X12332899Y-9695925D01*
X12332899Y-9695925D02*
X12325158Y-9699796D01*
X12325158Y-9699796D02*
X12321288Y-9703666D01*
X12321288Y-9703666D02*
X12317417Y-9711407D01*
X12317417Y-9711407D02*
X12317417Y-9730760D01*
X12317417Y-9730760D02*
X12321288Y-9738501D01*
X12321288Y-9738501D02*
X12325158Y-9742371D01*
X12325158Y-9742371D02*
X12332899Y-9746242D01*
X12332899Y-9746242D02*
X12348381Y-9746242D01*
X12348381Y-9746242D02*
X12356122Y-9742371D01*
X12356122Y-9742371D02*
X12359992Y-9738501D01*
X12359992Y-9738501D02*
X12363863Y-9730760D01*
X12282583Y-10031825D02*
X12236137Y-10031825D01*
X12259360Y-10031825D02*
X12259360Y-9950545D01*
X12259360Y-9950545D02*
X12251619Y-9962157D01*
X12251619Y-9962157D02*
X12243878Y-9969898D01*
X12243878Y-9969898D02*
X12236137Y-9973768D01*
X12317417Y-10031825D02*
X12317417Y-9950545D01*
X12363863Y-10031825D02*
X12329029Y-9985380D01*
X12363863Y-9950545D02*
X12317417Y-9996991D01*
X11907748Y-9777205D02*
X11880655Y-9738501D01*
X11861303Y-9777205D02*
X11861303Y-9695925D01*
X11861303Y-9695925D02*
X11892267Y-9695925D01*
X11892267Y-9695925D02*
X11900008Y-9699796D01*
X11900008Y-9699796D02*
X11903878Y-9703666D01*
X11903878Y-9703666D02*
X11907748Y-9711407D01*
X11907748Y-9711407D02*
X11907748Y-9723019D01*
X11907748Y-9723019D02*
X11903878Y-9730760D01*
X11903878Y-9730760D02*
X11900008Y-9734630D01*
X11900008Y-9734630D02*
X11892267Y-9738501D01*
X11892267Y-9738501D02*
X11861303Y-9738501D01*
X11985158Y-9777205D02*
X11938712Y-9777205D01*
X11961935Y-9777205D02*
X11961935Y-9695925D01*
X11961935Y-9695925D02*
X11954194Y-9707537D01*
X11954194Y-9707537D02*
X11946453Y-9715278D01*
X11946453Y-9715278D02*
X11938712Y-9719148D01*
X12035474Y-9695925D02*
X12043215Y-9695925D01*
X12043215Y-9695925D02*
X12050956Y-9699796D01*
X12050956Y-9699796D02*
X12054827Y-9703666D01*
X12054827Y-9703666D02*
X12058697Y-9711407D01*
X12058697Y-9711407D02*
X12062568Y-9726889D01*
X12062568Y-9726889D02*
X12062568Y-9746242D01*
X12062568Y-9746242D02*
X12058697Y-9761723D01*
X12058697Y-9761723D02*
X12054827Y-9769464D01*
X12054827Y-9769464D02*
X12050956Y-9773335D01*
X12050956Y-9773335D02*
X12043215Y-9777205D01*
X12043215Y-9777205D02*
X12035474Y-9777205D01*
X12035474Y-9777205D02*
X12027733Y-9773335D01*
X12027733Y-9773335D02*
X12023863Y-9769464D01*
X12023863Y-9769464D02*
X12019992Y-9761723D01*
X12019992Y-9761723D02*
X12016122Y-9746242D01*
X12016122Y-9746242D02*
X12016122Y-9726889D01*
X12016122Y-9726889D02*
X12019992Y-9711407D01*
X12019992Y-9711407D02*
X12023863Y-9703666D01*
X12023863Y-9703666D02*
X12027733Y-9699796D01*
X12027733Y-9699796D02*
X12035474Y-9695925D01*
X11859368Y-9958286D02*
X11863238Y-9954416D01*
X11863238Y-9954416D02*
X11870979Y-9950545D01*
X11870979Y-9950545D02*
X11890331Y-9950545D01*
X11890331Y-9950545D02*
X11898072Y-9954416D01*
X11898072Y-9954416D02*
X11901943Y-9958286D01*
X11901943Y-9958286D02*
X11905813Y-9966027D01*
X11905813Y-9966027D02*
X11905813Y-9973768D01*
X11905813Y-9973768D02*
X11901943Y-9985380D01*
X11901943Y-9985380D02*
X11855497Y-10031825D01*
X11855497Y-10031825D02*
X11905813Y-10031825D01*
X11956129Y-9950545D02*
X11963870Y-9950545D01*
X11963870Y-9950545D02*
X11971611Y-9954416D01*
X11971611Y-9954416D02*
X11975482Y-9958286D01*
X11975482Y-9958286D02*
X11979352Y-9966027D01*
X11979352Y-9966027D02*
X11983223Y-9981509D01*
X11983223Y-9981509D02*
X11983223Y-10000862D01*
X11983223Y-10000862D02*
X11979352Y-10016343D01*
X11979352Y-10016343D02*
X11975482Y-10024084D01*
X11975482Y-10024084D02*
X11971611Y-10027955D01*
X11971611Y-10027955D02*
X11963870Y-10031825D01*
X11963870Y-10031825D02*
X11956129Y-10031825D01*
X11956129Y-10031825D02*
X11948389Y-10027955D01*
X11948389Y-10027955D02*
X11944518Y-10024084D01*
X11944518Y-10024084D02*
X11940648Y-10016343D01*
X11940648Y-10016343D02*
X11936777Y-10000862D01*
X11936777Y-10000862D02*
X11936777Y-9981509D01*
X11936777Y-9981509D02*
X11940648Y-9966027D01*
X11940648Y-9966027D02*
X11944518Y-9958286D01*
X11944518Y-9958286D02*
X11948389Y-9954416D01*
X11948389Y-9954416D02*
X11956129Y-9950545D01*
X12033539Y-9950545D02*
X12041280Y-9950545D01*
X12041280Y-9950545D02*
X12049021Y-9954416D01*
X12049021Y-9954416D02*
X12052891Y-9958286D01*
X12052891Y-9958286D02*
X12056762Y-9966027D01*
X12056762Y-9966027D02*
X12060632Y-9981509D01*
X12060632Y-9981509D02*
X12060632Y-10000862D01*
X12060632Y-10000862D02*
X12056762Y-10016343D01*
X12056762Y-10016343D02*
X12052891Y-10024084D01*
X12052891Y-10024084D02*
X12049021Y-10027955D01*
X12049021Y-10027955D02*
X12041280Y-10031825D01*
X12041280Y-10031825D02*
X12033539Y-10031825D01*
X12033539Y-10031825D02*
X12025798Y-10027955D01*
X12025798Y-10027955D02*
X12021928Y-10024084D01*
X12021928Y-10024084D02*
X12018057Y-10016343D01*
X12018057Y-10016343D02*
X12014187Y-10000862D01*
X12014187Y-10000862D02*
X12014187Y-9981509D01*
X12014187Y-9981509D02*
X12018057Y-9966027D01*
X12018057Y-9966027D02*
X12021928Y-9958286D01*
X12021928Y-9958286D02*
X12025798Y-9954416D01*
X12025798Y-9954416D02*
X12033539Y-9950545D01*
X11264853Y-9039725D02*
X11237760Y-9001021D01*
X11218408Y-9039725D02*
X11218408Y-8958445D01*
X11218408Y-8958445D02*
X11249371Y-8958445D01*
X11249371Y-8958445D02*
X11257112Y-8962316D01*
X11257112Y-8962316D02*
X11260983Y-8966186D01*
X11260983Y-8966186D02*
X11264853Y-8973927D01*
X11264853Y-8973927D02*
X11264853Y-8985539D01*
X11264853Y-8985539D02*
X11260983Y-8993280D01*
X11260983Y-8993280D02*
X11257112Y-8997150D01*
X11257112Y-8997150D02*
X11249371Y-9001021D01*
X11249371Y-9001021D02*
X11218408Y-9001021D01*
X11334522Y-8985539D02*
X11334522Y-9039725D01*
X11315169Y-8954575D02*
X11295817Y-9012632D01*
X11295817Y-9012632D02*
X11346133Y-9012632D01*
X11126968Y-9258286D02*
X11130838Y-9254416D01*
X11130838Y-9254416D02*
X11138579Y-9250545D01*
X11138579Y-9250545D02*
X11157932Y-9250545D01*
X11157932Y-9250545D02*
X11165672Y-9254416D01*
X11165672Y-9254416D02*
X11169543Y-9258286D01*
X11169543Y-9258286D02*
X11173413Y-9266027D01*
X11173413Y-9266027D02*
X11173413Y-9273768D01*
X11173413Y-9273768D02*
X11169543Y-9285380D01*
X11169543Y-9285380D02*
X11123097Y-9331825D01*
X11123097Y-9331825D02*
X11173413Y-9331825D01*
X11223729Y-9250545D02*
X11231470Y-9250545D01*
X11231470Y-9250545D02*
X11239211Y-9254416D01*
X11239211Y-9254416D02*
X11243082Y-9258286D01*
X11243082Y-9258286D02*
X11246952Y-9266027D01*
X11246952Y-9266027D02*
X11250823Y-9281509D01*
X11250823Y-9281509D02*
X11250823Y-9300862D01*
X11250823Y-9300862D02*
X11246952Y-9316343D01*
X11246952Y-9316343D02*
X11243082Y-9324084D01*
X11243082Y-9324084D02*
X11239211Y-9327955D01*
X11239211Y-9327955D02*
X11231470Y-9331825D01*
X11231470Y-9331825D02*
X11223729Y-9331825D01*
X11223729Y-9331825D02*
X11215989Y-9327955D01*
X11215989Y-9327955D02*
X11212118Y-9324084D01*
X11212118Y-9324084D02*
X11208248Y-9316343D01*
X11208248Y-9316343D02*
X11204377Y-9300862D01*
X11204377Y-9300862D02*
X11204377Y-9281509D01*
X11204377Y-9281509D02*
X11208248Y-9266027D01*
X11208248Y-9266027D02*
X11212118Y-9258286D01*
X11212118Y-9258286D02*
X11215989Y-9254416D01*
X11215989Y-9254416D02*
X11223729Y-9250545D01*
X11301139Y-9250545D02*
X11308880Y-9250545D01*
X11308880Y-9250545D02*
X11316621Y-9254416D01*
X11316621Y-9254416D02*
X11320491Y-9258286D01*
X11320491Y-9258286D02*
X11324362Y-9266027D01*
X11324362Y-9266027D02*
X11328232Y-9281509D01*
X11328232Y-9281509D02*
X11328232Y-9300862D01*
X11328232Y-9300862D02*
X11324362Y-9316343D01*
X11324362Y-9316343D02*
X11320491Y-9324084D01*
X11320491Y-9324084D02*
X11316621Y-9327955D01*
X11316621Y-9327955D02*
X11308880Y-9331825D01*
X11308880Y-9331825D02*
X11301139Y-9331825D01*
X11301139Y-9331825D02*
X11293398Y-9327955D01*
X11293398Y-9327955D02*
X11289528Y-9324084D01*
X11289528Y-9324084D02*
X11285657Y-9316343D01*
X11285657Y-9316343D02*
X11281787Y-9300862D01*
X11281787Y-9300862D02*
X11281787Y-9281509D01*
X11281787Y-9281509D02*
X11285657Y-9266027D01*
X11285657Y-9266027D02*
X11289528Y-9258286D01*
X11289528Y-9258286D02*
X11293398Y-9254416D01*
X11293398Y-9254416D02*
X11301139Y-9250545D01*
X12106453Y-9437205D02*
X12079360Y-9398501D01*
X12060008Y-9437205D02*
X12060008Y-9355925D01*
X12060008Y-9355925D02*
X12090971Y-9355925D01*
X12090971Y-9355925D02*
X12098712Y-9359796D01*
X12098712Y-9359796D02*
X12102583Y-9363666D01*
X12102583Y-9363666D02*
X12106453Y-9371407D01*
X12106453Y-9371407D02*
X12106453Y-9383019D01*
X12106453Y-9383019D02*
X12102583Y-9390760D01*
X12102583Y-9390760D02*
X12098712Y-9394630D01*
X12098712Y-9394630D02*
X12090971Y-9398501D01*
X12090971Y-9398501D02*
X12060008Y-9398501D01*
X12152899Y-9390760D02*
X12145158Y-9386889D01*
X12145158Y-9386889D02*
X12141288Y-9383019D01*
X12141288Y-9383019D02*
X12137417Y-9375278D01*
X12137417Y-9375278D02*
X12137417Y-9371407D01*
X12137417Y-9371407D02*
X12141288Y-9363666D01*
X12141288Y-9363666D02*
X12145158Y-9359796D01*
X12145158Y-9359796D02*
X12152899Y-9355925D01*
X12152899Y-9355925D02*
X12168381Y-9355925D01*
X12168381Y-9355925D02*
X12176122Y-9359796D01*
X12176122Y-9359796D02*
X12179992Y-9363666D01*
X12179992Y-9363666D02*
X12183863Y-9371407D01*
X12183863Y-9371407D02*
X12183863Y-9375278D01*
X12183863Y-9375278D02*
X12179992Y-9383019D01*
X12179992Y-9383019D02*
X12176122Y-9386889D01*
X12176122Y-9386889D02*
X12168381Y-9390760D01*
X12168381Y-9390760D02*
X12152899Y-9390760D01*
X12152899Y-9390760D02*
X12145158Y-9394630D01*
X12145158Y-9394630D02*
X12141288Y-9398501D01*
X12141288Y-9398501D02*
X12137417Y-9406242D01*
X12137417Y-9406242D02*
X12137417Y-9421723D01*
X12137417Y-9421723D02*
X12141288Y-9429464D01*
X12141288Y-9429464D02*
X12145158Y-9433335D01*
X12145158Y-9433335D02*
X12152899Y-9437205D01*
X12152899Y-9437205D02*
X12168381Y-9437205D01*
X12168381Y-9437205D02*
X12176122Y-9433335D01*
X12176122Y-9433335D02*
X12179992Y-9429464D01*
X12179992Y-9429464D02*
X12183863Y-9421723D01*
X12183863Y-9421723D02*
X12183863Y-9406242D01*
X12183863Y-9406242D02*
X12179992Y-9398501D01*
X12179992Y-9398501D02*
X12176122Y-9394630D01*
X12176122Y-9394630D02*
X12168381Y-9390760D01*
X12159368Y-9613666D02*
X12163238Y-9609796D01*
X12163238Y-9609796D02*
X12170979Y-9605925D01*
X12170979Y-9605925D02*
X12190331Y-9605925D01*
X12190331Y-9605925D02*
X12198072Y-9609796D01*
X12198072Y-9609796D02*
X12201943Y-9613666D01*
X12201943Y-9613666D02*
X12205813Y-9621407D01*
X12205813Y-9621407D02*
X12205813Y-9629148D01*
X12205813Y-9629148D02*
X12201943Y-9640760D01*
X12201943Y-9640760D02*
X12155497Y-9687205D01*
X12155497Y-9687205D02*
X12205813Y-9687205D01*
X12256129Y-9605925D02*
X12263870Y-9605925D01*
X12263870Y-9605925D02*
X12271611Y-9609796D01*
X12271611Y-9609796D02*
X12275482Y-9613666D01*
X12275482Y-9613666D02*
X12279352Y-9621407D01*
X12279352Y-9621407D02*
X12283223Y-9636889D01*
X12283223Y-9636889D02*
X12283223Y-9656242D01*
X12283223Y-9656242D02*
X12279352Y-9671723D01*
X12279352Y-9671723D02*
X12275482Y-9679464D01*
X12275482Y-9679464D02*
X12271611Y-9683335D01*
X12271611Y-9683335D02*
X12263870Y-9687205D01*
X12263870Y-9687205D02*
X12256129Y-9687205D01*
X12256129Y-9687205D02*
X12248389Y-9683335D01*
X12248389Y-9683335D02*
X12244518Y-9679464D01*
X12244518Y-9679464D02*
X12240648Y-9671723D01*
X12240648Y-9671723D02*
X12236777Y-9656242D01*
X12236777Y-9656242D02*
X12236777Y-9636889D01*
X12236777Y-9636889D02*
X12240648Y-9621407D01*
X12240648Y-9621407D02*
X12244518Y-9613666D01*
X12244518Y-9613666D02*
X12248389Y-9609796D01*
X12248389Y-9609796D02*
X12256129Y-9605925D01*
X12333539Y-9605925D02*
X12341280Y-9605925D01*
X12341280Y-9605925D02*
X12349021Y-9609796D01*
X12349021Y-9609796D02*
X12352891Y-9613666D01*
X12352891Y-9613666D02*
X12356762Y-9621407D01*
X12356762Y-9621407D02*
X12360632Y-9636889D01*
X12360632Y-9636889D02*
X12360632Y-9656242D01*
X12360632Y-9656242D02*
X12356762Y-9671723D01*
X12356762Y-9671723D02*
X12352891Y-9679464D01*
X12352891Y-9679464D02*
X12349021Y-9683335D01*
X12349021Y-9683335D02*
X12341280Y-9687205D01*
X12341280Y-9687205D02*
X12333539Y-9687205D01*
X12333539Y-9687205D02*
X12325798Y-9683335D01*
X12325798Y-9683335D02*
X12321928Y-9679464D01*
X12321928Y-9679464D02*
X12318057Y-9671723D01*
X12318057Y-9671723D02*
X12314187Y-9656242D01*
X12314187Y-9656242D02*
X12314187Y-9636889D01*
X12314187Y-9636889D02*
X12318057Y-9621407D01*
X12318057Y-9621407D02*
X12321928Y-9613666D01*
X12321928Y-9613666D02*
X12325798Y-9609796D01*
X12325798Y-9609796D02*
X12333539Y-9605925D01*
X11247748Y-9777205D02*
X11220655Y-9738501D01*
X11201303Y-9777205D02*
X11201303Y-9695925D01*
X11201303Y-9695925D02*
X11232267Y-9695925D01*
X11232267Y-9695925D02*
X11240008Y-9699796D01*
X11240008Y-9699796D02*
X11243878Y-9703666D01*
X11243878Y-9703666D02*
X11247748Y-9711407D01*
X11247748Y-9711407D02*
X11247748Y-9723019D01*
X11247748Y-9723019D02*
X11243878Y-9730760D01*
X11243878Y-9730760D02*
X11240008Y-9734630D01*
X11240008Y-9734630D02*
X11232267Y-9738501D01*
X11232267Y-9738501D02*
X11201303Y-9738501D01*
X11325158Y-9777205D02*
X11278712Y-9777205D01*
X11301935Y-9777205D02*
X11301935Y-9695925D01*
X11301935Y-9695925D02*
X11294194Y-9707537D01*
X11294194Y-9707537D02*
X11286453Y-9715278D01*
X11286453Y-9715278D02*
X11278712Y-9719148D01*
X11356122Y-9703666D02*
X11359992Y-9699796D01*
X11359992Y-9699796D02*
X11367733Y-9695925D01*
X11367733Y-9695925D02*
X11387086Y-9695925D01*
X11387086Y-9695925D02*
X11394827Y-9699796D01*
X11394827Y-9699796D02*
X11398697Y-9703666D01*
X11398697Y-9703666D02*
X11402568Y-9711407D01*
X11402568Y-9711407D02*
X11402568Y-9719148D01*
X11402568Y-9719148D02*
X11398697Y-9730760D01*
X11398697Y-9730760D02*
X11352251Y-9777205D01*
X11352251Y-9777205D02*
X11402568Y-9777205D01*
X11199368Y-9958286D02*
X11203238Y-9954416D01*
X11203238Y-9954416D02*
X11210979Y-9950545D01*
X11210979Y-9950545D02*
X11230331Y-9950545D01*
X11230331Y-9950545D02*
X11238072Y-9954416D01*
X11238072Y-9954416D02*
X11241943Y-9958286D01*
X11241943Y-9958286D02*
X11245813Y-9966027D01*
X11245813Y-9966027D02*
X11245813Y-9973768D01*
X11245813Y-9973768D02*
X11241943Y-9985380D01*
X11241943Y-9985380D02*
X11195497Y-10031825D01*
X11195497Y-10031825D02*
X11245813Y-10031825D01*
X11296129Y-9950545D02*
X11303870Y-9950545D01*
X11303870Y-9950545D02*
X11311611Y-9954416D01*
X11311611Y-9954416D02*
X11315482Y-9958286D01*
X11315482Y-9958286D02*
X11319352Y-9966027D01*
X11319352Y-9966027D02*
X11323223Y-9981509D01*
X11323223Y-9981509D02*
X11323223Y-10000862D01*
X11323223Y-10000862D02*
X11319352Y-10016343D01*
X11319352Y-10016343D02*
X11315482Y-10024084D01*
X11315482Y-10024084D02*
X11311611Y-10027955D01*
X11311611Y-10027955D02*
X11303870Y-10031825D01*
X11303870Y-10031825D02*
X11296129Y-10031825D01*
X11296129Y-10031825D02*
X11288389Y-10027955D01*
X11288389Y-10027955D02*
X11284518Y-10024084D01*
X11284518Y-10024084D02*
X11280648Y-10016343D01*
X11280648Y-10016343D02*
X11276777Y-10000862D01*
X11276777Y-10000862D02*
X11276777Y-9981509D01*
X11276777Y-9981509D02*
X11280648Y-9966027D01*
X11280648Y-9966027D02*
X11284518Y-9958286D01*
X11284518Y-9958286D02*
X11288389Y-9954416D01*
X11288389Y-9954416D02*
X11296129Y-9950545D01*
X11373539Y-9950545D02*
X11381280Y-9950545D01*
X11381280Y-9950545D02*
X11389021Y-9954416D01*
X11389021Y-9954416D02*
X11392891Y-9958286D01*
X11392891Y-9958286D02*
X11396762Y-9966027D01*
X11396762Y-9966027D02*
X11400632Y-9981509D01*
X11400632Y-9981509D02*
X11400632Y-10000862D01*
X11400632Y-10000862D02*
X11396762Y-10016343D01*
X11396762Y-10016343D02*
X11392891Y-10024084D01*
X11392891Y-10024084D02*
X11389021Y-10027955D01*
X11389021Y-10027955D02*
X11381280Y-10031825D01*
X11381280Y-10031825D02*
X11373539Y-10031825D01*
X11373539Y-10031825D02*
X11365798Y-10027955D01*
X11365798Y-10027955D02*
X11361928Y-10024084D01*
X11361928Y-10024084D02*
X11358057Y-10016343D01*
X11358057Y-10016343D02*
X11354187Y-10000862D01*
X11354187Y-10000862D02*
X11354187Y-9981509D01*
X11354187Y-9981509D02*
X11358057Y-9966027D01*
X11358057Y-9966027D02*
X11361928Y-9958286D01*
X11361928Y-9958286D02*
X11365798Y-9954416D01*
X11365798Y-9954416D02*
X11373539Y-9950545D01*
D10*
X13391667Y-9415482D02*
X13391667Y-9486910D01*
X13391667Y-9486910D02*
X13386905Y-9501196D01*
X13386905Y-9501196D02*
X13377381Y-9510720D01*
X13377381Y-9510720D02*
X13363095Y-9515482D01*
X13363095Y-9515482D02*
X13353571Y-9515482D01*
X13429762Y-9415482D02*
X13491667Y-9415482D01*
X13491667Y-9415482D02*
X13458333Y-9453577D01*
X13458333Y-9453577D02*
X13472619Y-9453577D01*
X13472619Y-9453577D02*
X13482143Y-9458339D01*
X13482143Y-9458339D02*
X13486905Y-9463101D01*
X13486905Y-9463101D02*
X13491667Y-9472625D01*
X13491667Y-9472625D02*
X13491667Y-9496434D01*
X13491667Y-9496434D02*
X13486905Y-9505958D01*
X13486905Y-9505958D02*
X13482143Y-9510720D01*
X13482143Y-9510720D02*
X13472619Y-9515482D01*
X13472619Y-9515482D02*
X13444048Y-9515482D01*
X13444048Y-9515482D02*
X13434524Y-9510720D01*
X13434524Y-9510720D02*
X13429762Y-9505958D01*
X13015476Y-9680482D02*
X13034524Y-9680482D01*
X13034524Y-9680482D02*
X13044048Y-9675720D01*
X13044048Y-9675720D02*
X13048809Y-9670958D01*
X13048809Y-9670958D02*
X13058333Y-9656672D01*
X13058333Y-9656672D02*
X13063095Y-9637625D01*
X13063095Y-9637625D02*
X13063095Y-9599530D01*
X13063095Y-9599530D02*
X13058333Y-9590006D01*
X13058333Y-9590006D02*
X13053571Y-9585244D01*
X13053571Y-9585244D02*
X13044048Y-9580482D01*
X13044048Y-9580482D02*
X13025000Y-9580482D01*
X13025000Y-9580482D02*
X13015476Y-9585244D01*
X13015476Y-9585244D02*
X13010714Y-9590006D01*
X13010714Y-9590006D02*
X13005952Y-9599530D01*
X13005952Y-9599530D02*
X13005952Y-9623339D01*
X13005952Y-9623339D02*
X13010714Y-9632863D01*
X13010714Y-9632863D02*
X13015476Y-9637625D01*
X13015476Y-9637625D02*
X13025000Y-9642387D01*
X13025000Y-9642387D02*
X13044048Y-9642387D01*
X13044048Y-9642387D02*
X13053571Y-9637625D01*
X13053571Y-9637625D02*
X13058333Y-9632863D01*
X13058333Y-9632863D02*
X13063095Y-9623339D01*
X13125000Y-9580482D02*
X13134524Y-9580482D01*
X13134524Y-9580482D02*
X13144048Y-9585244D01*
X13144048Y-9585244D02*
X13148809Y-9590006D01*
X13148809Y-9590006D02*
X13153571Y-9599530D01*
X13153571Y-9599530D02*
X13158333Y-9618577D01*
X13158333Y-9618577D02*
X13158333Y-9642387D01*
X13158333Y-9642387D02*
X13153571Y-9661434D01*
X13153571Y-9661434D02*
X13148809Y-9670958D01*
X13148809Y-9670958D02*
X13144048Y-9675720D01*
X13144048Y-9675720D02*
X13134524Y-9680482D01*
X13134524Y-9680482D02*
X13125000Y-9680482D01*
X13125000Y-9680482D02*
X13115476Y-9675720D01*
X13115476Y-9675720D02*
X13110714Y-9670958D01*
X13110714Y-9670958D02*
X13105952Y-9661434D01*
X13105952Y-9661434D02*
X13101190Y-9642387D01*
X13101190Y-9642387D02*
X13101190Y-9618577D01*
X13101190Y-9618577D02*
X13105952Y-9599530D01*
X13105952Y-9599530D02*
X13110714Y-9590006D01*
X13110714Y-9590006D02*
X13115476Y-9585244D01*
X13115476Y-9585244D02*
X13125000Y-9580482D01*
X13201190Y-9680482D02*
X13201190Y-9580482D01*
X13201190Y-9628101D02*
X13258333Y-9628101D01*
X13258333Y-9680482D02*
X13258333Y-9580482D01*
X13339286Y-9628101D02*
X13353571Y-9632863D01*
X13353571Y-9632863D02*
X13358333Y-9637625D01*
X13358333Y-9637625D02*
X13363095Y-9647149D01*
X13363095Y-9647149D02*
X13363095Y-9661434D01*
X13363095Y-9661434D02*
X13358333Y-9670958D01*
X13358333Y-9670958D02*
X13353571Y-9675720D01*
X13353571Y-9675720D02*
X13344048Y-9680482D01*
X13344048Y-9680482D02*
X13305952Y-9680482D01*
X13305952Y-9680482D02*
X13305952Y-9580482D01*
X13305952Y-9580482D02*
X13339286Y-9580482D01*
X13339286Y-9580482D02*
X13348809Y-9585244D01*
X13348809Y-9585244D02*
X13353571Y-9590006D01*
X13353571Y-9590006D02*
X13358333Y-9599530D01*
X13358333Y-9599530D02*
X13358333Y-9609053D01*
X13358333Y-9609053D02*
X13353571Y-9618577D01*
X13353571Y-9618577D02*
X13348809Y-9623339D01*
X13348809Y-9623339D02*
X13339286Y-9628101D01*
X13339286Y-9628101D02*
X13305952Y-9628101D01*
X13396429Y-9580482D02*
X13420238Y-9680482D01*
X13420238Y-9680482D02*
X13439286Y-9609053D01*
X13439286Y-9609053D02*
X13458333Y-9680482D01*
X13458333Y-9680482D02*
X13482143Y-9580482D01*
X13539286Y-9580482D02*
X13548809Y-9580482D01*
X13548809Y-9580482D02*
X13558333Y-9585244D01*
X13558333Y-9585244D02*
X13563095Y-9590006D01*
X13563095Y-9590006D02*
X13567857Y-9599530D01*
X13567857Y-9599530D02*
X13572619Y-9618577D01*
X13572619Y-9618577D02*
X13572619Y-9642387D01*
X13572619Y-9642387D02*
X13567857Y-9661434D01*
X13567857Y-9661434D02*
X13563095Y-9670958D01*
X13563095Y-9670958D02*
X13558333Y-9675720D01*
X13558333Y-9675720D02*
X13548809Y-9680482D01*
X13548809Y-9680482D02*
X13539286Y-9680482D01*
X13539286Y-9680482D02*
X13529762Y-9675720D01*
X13529762Y-9675720D02*
X13525000Y-9670958D01*
X13525000Y-9670958D02*
X13520238Y-9661434D01*
X13520238Y-9661434D02*
X13515476Y-9642387D01*
X13515476Y-9642387D02*
X13515476Y-9618577D01*
X13515476Y-9618577D02*
X13520238Y-9599530D01*
X13520238Y-9599530D02*
X13525000Y-9590006D01*
X13525000Y-9590006D02*
X13529762Y-9585244D01*
X13529762Y-9585244D02*
X13539286Y-9580482D01*
X13658333Y-9580482D02*
X13639286Y-9580482D01*
X13639286Y-9580482D02*
X13629762Y-9585244D01*
X13629762Y-9585244D02*
X13625000Y-9590006D01*
X13625000Y-9590006D02*
X13615476Y-9604291D01*
X13615476Y-9604291D02*
X13610714Y-9623339D01*
X13610714Y-9623339D02*
X13610714Y-9661434D01*
X13610714Y-9661434D02*
X13615476Y-9670958D01*
X13615476Y-9670958D02*
X13620238Y-9675720D01*
X13620238Y-9675720D02*
X13629762Y-9680482D01*
X13629762Y-9680482D02*
X13648809Y-9680482D01*
X13648809Y-9680482D02*
X13658333Y-9675720D01*
X13658333Y-9675720D02*
X13663095Y-9670958D01*
X13663095Y-9670958D02*
X13667857Y-9661434D01*
X13667857Y-9661434D02*
X13667857Y-9637625D01*
X13667857Y-9637625D02*
X13663095Y-9628101D01*
X13663095Y-9628101D02*
X13658333Y-9623339D01*
X13658333Y-9623339D02*
X13648809Y-9618577D01*
X13648809Y-9618577D02*
X13629762Y-9618577D01*
X13629762Y-9618577D02*
X13620238Y-9623339D01*
X13620238Y-9623339D02*
X13615476Y-9628101D01*
X13615476Y-9628101D02*
X13610714Y-9637625D01*
X13710714Y-9680482D02*
X13710714Y-9580482D01*
X13710714Y-9580482D02*
X13748809Y-9580482D01*
X13748809Y-9580482D02*
X13758333Y-9585244D01*
X13758333Y-9585244D02*
X13763095Y-9590006D01*
X13763095Y-9590006D02*
X13767857Y-9599530D01*
X13767857Y-9599530D02*
X13767857Y-9613815D01*
X13767857Y-9613815D02*
X13763095Y-9623339D01*
X13763095Y-9623339D02*
X13758333Y-9628101D01*
X13758333Y-9628101D02*
X13748809Y-9632863D01*
X13748809Y-9632863D02*
X13710714Y-9632863D01*
X13796429Y-9580482D02*
X13853571Y-9580482D01*
X13825000Y-9680482D02*
X13825000Y-9580482D01*
D12*
X12457374Y-10095377D02*
X12485945Y-10171568D01*
X12485945Y-10171568D02*
X12514516Y-10095377D01*
X12485945Y-10047758D02*
X12485945Y-9971568D01*
X12519278Y-9852520D02*
X12524040Y-9838234D01*
X12524040Y-9838234D02*
X12524040Y-9814425D01*
X12524040Y-9814425D02*
X12519278Y-9804901D01*
X12519278Y-9804901D02*
X12514516Y-9800139D01*
X12514516Y-9800139D02*
X12504993Y-9795377D01*
X12504993Y-9795377D02*
X12495469Y-9795377D01*
X12495469Y-9795377D02*
X12485945Y-9800139D01*
X12485945Y-9800139D02*
X12481183Y-9804901D01*
X12481183Y-9804901D02*
X12476421Y-9814425D01*
X12476421Y-9814425D02*
X12471659Y-9833472D01*
X12471659Y-9833472D02*
X12466897Y-9842996D01*
X12466897Y-9842996D02*
X12462135Y-9847758D01*
X12462135Y-9847758D02*
X12452612Y-9852520D01*
X12452612Y-9852520D02*
X12443088Y-9852520D01*
X12443088Y-9852520D02*
X12433564Y-9847758D01*
X12433564Y-9847758D02*
X12428802Y-9842996D01*
X12428802Y-9842996D02*
X12424040Y-9833472D01*
X12424040Y-9833472D02*
X12424040Y-9809663D01*
X12424040Y-9809663D02*
X12428802Y-9795377D01*
X12471659Y-9752520D02*
X12471659Y-9719187D01*
X12524040Y-9704901D02*
X12524040Y-9752520D01*
X12524040Y-9752520D02*
X12424040Y-9752520D01*
X12424040Y-9752520D02*
X12424040Y-9704901D01*
X12524040Y-9614425D02*
X12524040Y-9662044D01*
X12524040Y-9662044D02*
X12424040Y-9662044D01*
X12471659Y-9581091D02*
X12471659Y-9547758D01*
X12524040Y-9533472D02*
X12524040Y-9581091D01*
X12524040Y-9581091D02*
X12424040Y-9581091D01*
X12424040Y-9581091D02*
X12424040Y-9533472D01*
X12514516Y-9433472D02*
X12519278Y-9438234D01*
X12519278Y-9438234D02*
X12524040Y-9452520D01*
X12524040Y-9452520D02*
X12524040Y-9462044D01*
X12524040Y-9462044D02*
X12519278Y-9476330D01*
X12519278Y-9476330D02*
X12509754Y-9485853D01*
X12509754Y-9485853D02*
X12500231Y-9490615D01*
X12500231Y-9490615D02*
X12481183Y-9495377D01*
X12481183Y-9495377D02*
X12466897Y-9495377D01*
X12466897Y-9495377D02*
X12447850Y-9490615D01*
X12447850Y-9490615D02*
X12438326Y-9485853D01*
X12438326Y-9485853D02*
X12428802Y-9476330D01*
X12428802Y-9476330D02*
X12424040Y-9462044D01*
X12424040Y-9462044D02*
X12424040Y-9452520D01*
X12424040Y-9452520D02*
X12428802Y-9438234D01*
X12428802Y-9438234D02*
X12433564Y-9433472D01*
X12424040Y-9404901D02*
X12424040Y-9347758D01*
X12524040Y-9376330D02*
X12424040Y-9376330D01*
D11*
X11417508Y-10117205D02*
X11390415Y-10078501D01*
X11371063Y-10117205D02*
X11371063Y-10035925D01*
X11371063Y-10035925D02*
X11402027Y-10035925D01*
X11402027Y-10035925D02*
X11409768Y-10039796D01*
X11409768Y-10039796D02*
X11413638Y-10043666D01*
X11413638Y-10043666D02*
X11417508Y-10051407D01*
X11417508Y-10051407D02*
X11417508Y-10063019D01*
X11417508Y-10063019D02*
X11413638Y-10070760D01*
X11413638Y-10070760D02*
X11409768Y-10074630D01*
X11409768Y-10074630D02*
X11402027Y-10078501D01*
X11402027Y-10078501D02*
X11371063Y-10078501D01*
X11494918Y-10117205D02*
X11448472Y-10117205D01*
X11471695Y-10117205D02*
X11471695Y-10035925D01*
X11471695Y-10035925D02*
X11463954Y-10047537D01*
X11463954Y-10047537D02*
X11456213Y-10055278D01*
X11456213Y-10055278D02*
X11448472Y-10059148D01*
X11564587Y-10063019D02*
X11564587Y-10117205D01*
X11545234Y-10032055D02*
X11525882Y-10090112D01*
X11525882Y-10090112D02*
X11576198Y-10090112D01*
X11479368Y-10303666D02*
X11483238Y-10299796D01*
X11483238Y-10299796D02*
X11490979Y-10295925D01*
X11490979Y-10295925D02*
X11510331Y-10295925D01*
X11510331Y-10295925D02*
X11518072Y-10299796D01*
X11518072Y-10299796D02*
X11521943Y-10303666D01*
X11521943Y-10303666D02*
X11525813Y-10311407D01*
X11525813Y-10311407D02*
X11525813Y-10319148D01*
X11525813Y-10319148D02*
X11521943Y-10330760D01*
X11521943Y-10330760D02*
X11475497Y-10377205D01*
X11475497Y-10377205D02*
X11525813Y-10377205D01*
X11576129Y-10295925D02*
X11583870Y-10295925D01*
X11583870Y-10295925D02*
X11591611Y-10299796D01*
X11591611Y-10299796D02*
X11595482Y-10303666D01*
X11595482Y-10303666D02*
X11599352Y-10311407D01*
X11599352Y-10311407D02*
X11603223Y-10326889D01*
X11603223Y-10326889D02*
X11603223Y-10346242D01*
X11603223Y-10346242D02*
X11599352Y-10361723D01*
X11599352Y-10361723D02*
X11595482Y-10369464D01*
X11595482Y-10369464D02*
X11591611Y-10373335D01*
X11591611Y-10373335D02*
X11583870Y-10377205D01*
X11583870Y-10377205D02*
X11576129Y-10377205D01*
X11576129Y-10377205D02*
X11568389Y-10373335D01*
X11568389Y-10373335D02*
X11564518Y-10369464D01*
X11564518Y-10369464D02*
X11560648Y-10361723D01*
X11560648Y-10361723D02*
X11556777Y-10346242D01*
X11556777Y-10346242D02*
X11556777Y-10326889D01*
X11556777Y-10326889D02*
X11560648Y-10311407D01*
X11560648Y-10311407D02*
X11564518Y-10303666D01*
X11564518Y-10303666D02*
X11568389Y-10299796D01*
X11568389Y-10299796D02*
X11576129Y-10295925D01*
X11653539Y-10295925D02*
X11661280Y-10295925D01*
X11661280Y-10295925D02*
X11669021Y-10299796D01*
X11669021Y-10299796D02*
X11672891Y-10303666D01*
X11672891Y-10303666D02*
X11676762Y-10311407D01*
X11676762Y-10311407D02*
X11680632Y-10326889D01*
X11680632Y-10326889D02*
X11680632Y-10346242D01*
X11680632Y-10346242D02*
X11676762Y-10361723D01*
X11676762Y-10361723D02*
X11672891Y-10369464D01*
X11672891Y-10369464D02*
X11669021Y-10373335D01*
X11669021Y-10373335D02*
X11661280Y-10377205D01*
X11661280Y-10377205D02*
X11653539Y-10377205D01*
X11653539Y-10377205D02*
X11645798Y-10373335D01*
X11645798Y-10373335D02*
X11641928Y-10369464D01*
X11641928Y-10369464D02*
X11638057Y-10361723D01*
X11638057Y-10361723D02*
X11634187Y-10346242D01*
X11634187Y-10346242D02*
X11634187Y-10326889D01*
X11634187Y-10326889D02*
X11638057Y-10311407D01*
X11638057Y-10311407D02*
X11641928Y-10303666D01*
X11641928Y-10303666D02*
X11645798Y-10299796D01*
X11645798Y-10299796D02*
X11653539Y-10295925D01*
D10*
X8045482Y-10553333D02*
X8116910Y-10553333D01*
X8116910Y-10553333D02*
X8131196Y-10558095D01*
X8131196Y-10558095D02*
X8140720Y-10567619D01*
X8140720Y-10567619D02*
X8145482Y-10581905D01*
X8145482Y-10581905D02*
X8145482Y-10591429D01*
X8145482Y-10453333D02*
X8145482Y-10510476D01*
X8145482Y-10481905D02*
X8045482Y-10481905D01*
X8045482Y-10481905D02*
X8059768Y-10491429D01*
X8059768Y-10491429D02*
X8069291Y-10500952D01*
X8069291Y-10500952D02*
X8074053Y-10510476D01*
X17274518Y-9326667D02*
X17203090Y-9326667D01*
X17203090Y-9326667D02*
X17188804Y-9321905D01*
X17188804Y-9321905D02*
X17179280Y-9312381D01*
X17179280Y-9312381D02*
X17174518Y-9298095D01*
X17174518Y-9298095D02*
X17174518Y-9288571D01*
X17264994Y-9369524D02*
X17269756Y-9374286D01*
X17269756Y-9374286D02*
X17274518Y-9383810D01*
X17274518Y-9383810D02*
X17274518Y-9407619D01*
X17274518Y-9407619D02*
X17269756Y-9417143D01*
X17269756Y-9417143D02*
X17264994Y-9421905D01*
X17264994Y-9421905D02*
X17255470Y-9426667D01*
X17255470Y-9426667D02*
X17245947Y-9426667D01*
X17245947Y-9426667D02*
X17231661Y-9421905D01*
X17231661Y-9421905D02*
X17174518Y-9364762D01*
X17174518Y-9364762D02*
X17174518Y-9426667D01*
D11*
X11786453Y-9437205D02*
X11759360Y-9398501D01*
X11740008Y-9437205D02*
X11740008Y-9355925D01*
X11740008Y-9355925D02*
X11770971Y-9355925D01*
X11770971Y-9355925D02*
X11778712Y-9359796D01*
X11778712Y-9359796D02*
X11782583Y-9363666D01*
X11782583Y-9363666D02*
X11786453Y-9371407D01*
X11786453Y-9371407D02*
X11786453Y-9383019D01*
X11786453Y-9383019D02*
X11782583Y-9390760D01*
X11782583Y-9390760D02*
X11778712Y-9394630D01*
X11778712Y-9394630D02*
X11770971Y-9398501D01*
X11770971Y-9398501D02*
X11740008Y-9398501D01*
X11813547Y-9355925D02*
X11867733Y-9355925D01*
X11867733Y-9355925D02*
X11832899Y-9437205D01*
X11819368Y-9613666D02*
X11823238Y-9609796D01*
X11823238Y-9609796D02*
X11830979Y-9605925D01*
X11830979Y-9605925D02*
X11850331Y-9605925D01*
X11850331Y-9605925D02*
X11858072Y-9609796D01*
X11858072Y-9609796D02*
X11861943Y-9613666D01*
X11861943Y-9613666D02*
X11865813Y-9621407D01*
X11865813Y-9621407D02*
X11865813Y-9629148D01*
X11865813Y-9629148D02*
X11861943Y-9640760D01*
X11861943Y-9640760D02*
X11815497Y-9687205D01*
X11815497Y-9687205D02*
X11865813Y-9687205D01*
X11916129Y-9605925D02*
X11923870Y-9605925D01*
X11923870Y-9605925D02*
X11931611Y-9609796D01*
X11931611Y-9609796D02*
X11935482Y-9613666D01*
X11935482Y-9613666D02*
X11939352Y-9621407D01*
X11939352Y-9621407D02*
X11943223Y-9636889D01*
X11943223Y-9636889D02*
X11943223Y-9656242D01*
X11943223Y-9656242D02*
X11939352Y-9671723D01*
X11939352Y-9671723D02*
X11935482Y-9679464D01*
X11935482Y-9679464D02*
X11931611Y-9683335D01*
X11931611Y-9683335D02*
X11923870Y-9687205D01*
X11923870Y-9687205D02*
X11916129Y-9687205D01*
X11916129Y-9687205D02*
X11908389Y-9683335D01*
X11908389Y-9683335D02*
X11904518Y-9679464D01*
X11904518Y-9679464D02*
X11900648Y-9671723D01*
X11900648Y-9671723D02*
X11896777Y-9656242D01*
X11896777Y-9656242D02*
X11896777Y-9636889D01*
X11896777Y-9636889D02*
X11900648Y-9621407D01*
X11900648Y-9621407D02*
X11904518Y-9613666D01*
X11904518Y-9613666D02*
X11908389Y-9609796D01*
X11908389Y-9609796D02*
X11916129Y-9605925D01*
X11993539Y-9605925D02*
X12001280Y-9605925D01*
X12001280Y-9605925D02*
X12009021Y-9609796D01*
X12009021Y-9609796D02*
X12012891Y-9613666D01*
X12012891Y-9613666D02*
X12016762Y-9621407D01*
X12016762Y-9621407D02*
X12020632Y-9636889D01*
X12020632Y-9636889D02*
X12020632Y-9656242D01*
X12020632Y-9656242D02*
X12016762Y-9671723D01*
X12016762Y-9671723D02*
X12012891Y-9679464D01*
X12012891Y-9679464D02*
X12009021Y-9683335D01*
X12009021Y-9683335D02*
X12001280Y-9687205D01*
X12001280Y-9687205D02*
X11993539Y-9687205D01*
X11993539Y-9687205D02*
X11985798Y-9683335D01*
X11985798Y-9683335D02*
X11981928Y-9679464D01*
X11981928Y-9679464D02*
X11978057Y-9671723D01*
X11978057Y-9671723D02*
X11974187Y-9656242D01*
X11974187Y-9656242D02*
X11974187Y-9636889D01*
X11974187Y-9636889D02*
X11978057Y-9621407D01*
X11978057Y-9621407D02*
X11981928Y-9613666D01*
X11981928Y-9613666D02*
X11985798Y-9609796D01*
X11985798Y-9609796D02*
X11993539Y-9605925D01*
X12284853Y-9039725D02*
X12257760Y-9001021D01*
X12238408Y-9039725D02*
X12238408Y-8958445D01*
X12238408Y-8958445D02*
X12269371Y-8958445D01*
X12269371Y-8958445D02*
X12277112Y-8962316D01*
X12277112Y-8962316D02*
X12280983Y-8966186D01*
X12280983Y-8966186D02*
X12284853Y-8973927D01*
X12284853Y-8973927D02*
X12284853Y-8985539D01*
X12284853Y-8985539D02*
X12280983Y-8993280D01*
X12280983Y-8993280D02*
X12277112Y-8997150D01*
X12277112Y-8997150D02*
X12269371Y-9001021D01*
X12269371Y-9001021D02*
X12238408Y-9001021D01*
X12362263Y-9039725D02*
X12315817Y-9039725D01*
X12339040Y-9039725D02*
X12339040Y-8958445D01*
X12339040Y-8958445D02*
X12331299Y-8970057D01*
X12331299Y-8970057D02*
X12323558Y-8977798D01*
X12323558Y-8977798D02*
X12315817Y-8981668D01*
X12193413Y-9331825D02*
X12146968Y-9331825D01*
X12170190Y-9331825D02*
X12170190Y-9250545D01*
X12170190Y-9250545D02*
X12162450Y-9262157D01*
X12162450Y-9262157D02*
X12154709Y-9269898D01*
X12154709Y-9269898D02*
X12146968Y-9273768D01*
X12243729Y-9250545D02*
X12251470Y-9250545D01*
X12251470Y-9250545D02*
X12259211Y-9254416D01*
X12259211Y-9254416D02*
X12263082Y-9258286D01*
X12263082Y-9258286D02*
X12266952Y-9266027D01*
X12266952Y-9266027D02*
X12270823Y-9281509D01*
X12270823Y-9281509D02*
X12270823Y-9300862D01*
X12270823Y-9300862D02*
X12266952Y-9316343D01*
X12266952Y-9316343D02*
X12263082Y-9324084D01*
X12263082Y-9324084D02*
X12259211Y-9327955D01*
X12259211Y-9327955D02*
X12251470Y-9331825D01*
X12251470Y-9331825D02*
X12243729Y-9331825D01*
X12243729Y-9331825D02*
X12235989Y-9327955D01*
X12235989Y-9327955D02*
X12232118Y-9324084D01*
X12232118Y-9324084D02*
X12228248Y-9316343D01*
X12228248Y-9316343D02*
X12224377Y-9300862D01*
X12224377Y-9300862D02*
X12224377Y-9281509D01*
X12224377Y-9281509D02*
X12228248Y-9266027D01*
X12228248Y-9266027D02*
X12232118Y-9258286D01*
X12232118Y-9258286D02*
X12235989Y-9254416D01*
X12235989Y-9254416D02*
X12243729Y-9250545D01*
X12321139Y-9250545D02*
X12328880Y-9250545D01*
X12328880Y-9250545D02*
X12336621Y-9254416D01*
X12336621Y-9254416D02*
X12340491Y-9258286D01*
X12340491Y-9258286D02*
X12344362Y-9266027D01*
X12344362Y-9266027D02*
X12348232Y-9281509D01*
X12348232Y-9281509D02*
X12348232Y-9300862D01*
X12348232Y-9300862D02*
X12344362Y-9316343D01*
X12344362Y-9316343D02*
X12340491Y-9324084D01*
X12340491Y-9324084D02*
X12336621Y-9327955D01*
X12336621Y-9327955D02*
X12328880Y-9331825D01*
X12328880Y-9331825D02*
X12321139Y-9331825D01*
X12321139Y-9331825D02*
X12313398Y-9327955D01*
X12313398Y-9327955D02*
X12309528Y-9324084D01*
X12309528Y-9324084D02*
X12305657Y-9316343D01*
X12305657Y-9316343D02*
X12301787Y-9300862D01*
X12301787Y-9300862D02*
X12301787Y-9281509D01*
X12301787Y-9281509D02*
X12305657Y-9266027D01*
X12305657Y-9266027D02*
X12309528Y-9258286D01*
X12309528Y-9258286D02*
X12313398Y-9254416D01*
X12313398Y-9254416D02*
X12321139Y-9250545D01*
X11944853Y-9039725D02*
X11917760Y-9001021D01*
X11898408Y-9039725D02*
X11898408Y-8958445D01*
X11898408Y-8958445D02*
X11929371Y-8958445D01*
X11929371Y-8958445D02*
X11937112Y-8962316D01*
X11937112Y-8962316D02*
X11940983Y-8966186D01*
X11940983Y-8966186D02*
X11944853Y-8973927D01*
X11944853Y-8973927D02*
X11944853Y-8985539D01*
X11944853Y-8985539D02*
X11940983Y-8993280D01*
X11940983Y-8993280D02*
X11937112Y-8997150D01*
X11937112Y-8997150D02*
X11929371Y-9001021D01*
X11929371Y-9001021D02*
X11898408Y-9001021D01*
X11975817Y-8966186D02*
X11979688Y-8962316D01*
X11979688Y-8962316D02*
X11987429Y-8958445D01*
X11987429Y-8958445D02*
X12006781Y-8958445D01*
X12006781Y-8958445D02*
X12014522Y-8962316D01*
X12014522Y-8962316D02*
X12018392Y-8966186D01*
X12018392Y-8966186D02*
X12022263Y-8973927D01*
X12022263Y-8973927D02*
X12022263Y-8981668D01*
X12022263Y-8981668D02*
X12018392Y-8993280D01*
X12018392Y-8993280D02*
X11971947Y-9039725D01*
X11971947Y-9039725D02*
X12022263Y-9039725D01*
X11806968Y-9258286D02*
X11810838Y-9254416D01*
X11810838Y-9254416D02*
X11818579Y-9250545D01*
X11818579Y-9250545D02*
X11837931Y-9250545D01*
X11837931Y-9250545D02*
X11845672Y-9254416D01*
X11845672Y-9254416D02*
X11849543Y-9258286D01*
X11849543Y-9258286D02*
X11853413Y-9266027D01*
X11853413Y-9266027D02*
X11853413Y-9273768D01*
X11853413Y-9273768D02*
X11849543Y-9285380D01*
X11849543Y-9285380D02*
X11803097Y-9331825D01*
X11803097Y-9331825D02*
X11853413Y-9331825D01*
X11903729Y-9250545D02*
X11911470Y-9250545D01*
X11911470Y-9250545D02*
X11919211Y-9254416D01*
X11919211Y-9254416D02*
X11923082Y-9258286D01*
X11923082Y-9258286D02*
X11926952Y-9266027D01*
X11926952Y-9266027D02*
X11930823Y-9281509D01*
X11930823Y-9281509D02*
X11930823Y-9300862D01*
X11930823Y-9300862D02*
X11926952Y-9316343D01*
X11926952Y-9316343D02*
X11923082Y-9324084D01*
X11923082Y-9324084D02*
X11919211Y-9327955D01*
X11919211Y-9327955D02*
X11911470Y-9331825D01*
X11911470Y-9331825D02*
X11903729Y-9331825D01*
X11903729Y-9331825D02*
X11895989Y-9327955D01*
X11895989Y-9327955D02*
X11892118Y-9324084D01*
X11892118Y-9324084D02*
X11888248Y-9316343D01*
X11888248Y-9316343D02*
X11884377Y-9300862D01*
X11884377Y-9300862D02*
X11884377Y-9281509D01*
X11884377Y-9281509D02*
X11888248Y-9266027D01*
X11888248Y-9266027D02*
X11892118Y-9258286D01*
X11892118Y-9258286D02*
X11895989Y-9254416D01*
X11895989Y-9254416D02*
X11903729Y-9250545D01*
X11981139Y-9250545D02*
X11988880Y-9250545D01*
X11988880Y-9250545D02*
X11996621Y-9254416D01*
X11996621Y-9254416D02*
X12000491Y-9258286D01*
X12000491Y-9258286D02*
X12004362Y-9266027D01*
X12004362Y-9266027D02*
X12008232Y-9281509D01*
X12008232Y-9281509D02*
X12008232Y-9300862D01*
X12008232Y-9300862D02*
X12004362Y-9316343D01*
X12004362Y-9316343D02*
X12000491Y-9324084D01*
X12000491Y-9324084D02*
X11996621Y-9327955D01*
X11996621Y-9327955D02*
X11988880Y-9331825D01*
X11988880Y-9331825D02*
X11981139Y-9331825D01*
X11981139Y-9331825D02*
X11973398Y-9327955D01*
X11973398Y-9327955D02*
X11969528Y-9324084D01*
X11969528Y-9324084D02*
X11965657Y-9316343D01*
X11965657Y-9316343D02*
X11961787Y-9300862D01*
X11961787Y-9300862D02*
X11961787Y-9281509D01*
X11961787Y-9281509D02*
X11965657Y-9266027D01*
X11965657Y-9266027D02*
X11969528Y-9258286D01*
X11969528Y-9258286D02*
X11973398Y-9254416D01*
X11973398Y-9254416D02*
X11981139Y-9250545D01*
D13*
%TO.C,R6*%
X11678420Y-9586040D02*
X11678420Y-9453960D01*
X11678420Y-9453960D02*
X11393940Y-9453960D01*
X11393940Y-9586040D02*
X11678420Y-9586040D01*
X11393940Y-9453960D02*
X11393940Y-9586040D01*
%TO.C,R3*%
X11413940Y-9093960D02*
X11413940Y-9226040D01*
X11413940Y-9226040D02*
X11698420Y-9226040D01*
X11698420Y-9093960D02*
X11413940Y-9093960D01*
X11698420Y-9226040D02*
X11698420Y-9093960D01*
%TO.C,R13*%
X11342240Y-10266040D02*
X11342240Y-10133960D01*
X11342240Y-10133960D02*
X11057760Y-10133960D01*
X11057760Y-10266040D02*
X11342240Y-10266040D01*
X11057760Y-10133960D02*
X11057760Y-10266040D01*
%TO.C,R5*%
X11338420Y-9586040D02*
X11338420Y-9453960D01*
X11338420Y-9453960D02*
X11053940Y-9453960D01*
X11053940Y-9586040D02*
X11338420Y-9586040D01*
X11053940Y-9453960D02*
X11053940Y-9586040D01*
%TO.C,R11*%
X11401580Y-9793960D02*
X11401580Y-9926040D01*
X11401580Y-9926040D02*
X11686060Y-9926040D01*
X11686060Y-9793960D02*
X11401580Y-9793960D01*
X11686060Y-9926040D02*
X11686060Y-9793960D01*
%TO.C,R9*%
X12081580Y-9793960D02*
X12081580Y-9926040D01*
X12081580Y-9926040D02*
X12366060Y-9926040D01*
X12366060Y-9793960D02*
X12081580Y-9793960D01*
X12366060Y-9926040D02*
X12366060Y-9793960D01*
%TO.C,R10*%
X11741580Y-9793960D02*
X11741580Y-9926040D01*
X11741580Y-9926040D02*
X12026060Y-9926040D01*
X12026060Y-9793960D02*
X11741580Y-9793960D01*
X12026060Y-9926040D02*
X12026060Y-9793960D01*
%TO.C,R4*%
X11070120Y-9093960D02*
X11070120Y-9226040D01*
X11070120Y-9226040D02*
X11354600Y-9226040D01*
X11354600Y-9093960D02*
X11070120Y-9093960D01*
X11354600Y-9226040D02*
X11354600Y-9093960D01*
%TO.C,R8*%
X12358420Y-9586040D02*
X12358420Y-9453960D01*
X12358420Y-9453960D02*
X12073940Y-9453960D01*
X12073940Y-9586040D02*
X12358420Y-9586040D01*
X12073940Y-9453960D02*
X12073940Y-9586040D01*
%TO.C,R12*%
X11061580Y-9793960D02*
X11061580Y-9926040D01*
X11061580Y-9926040D02*
X11346060Y-9926040D01*
X11346060Y-9793960D02*
X11061580Y-9793960D01*
X11346060Y-9926040D02*
X11346060Y-9793960D01*
%TO.C,J3*%
X12585000Y-9305000D02*
X12585000Y-10045000D01*
X12585000Y-9305000D02*
X12710000Y-9305000D01*
X12585000Y-10045000D02*
X12705000Y-10045000D01*
X14285000Y-9305000D02*
X14165000Y-9305000D01*
X14285000Y-9305000D02*
X14285000Y-10045000D01*
X14285000Y-10045000D02*
X14160000Y-10045000D01*
X12721055Y-9415000D02*
G75*
G02*
X12648944Y-9415000I-36056J0D01*
G01*
X12648944Y-9415000D02*
G75*
G02*
X12721055Y-9415000I36056J0D01*
G01*
%TO.C,R14*%
X11678040Y-10266040D02*
X11678040Y-10133960D01*
X11678040Y-10133960D02*
X11393560Y-10133960D01*
X11393560Y-10266040D02*
X11678040Y-10266040D01*
X11393560Y-10133960D02*
X11393560Y-10266040D01*
D14*
%TO.C,G\u002A\u002A\u002A*%
X11379893Y-10662739D02*
X11392141Y-10662746D01*
X11403488Y-10662759D01*
X11413925Y-10662776D01*
X11423443Y-10662799D01*
X11432031Y-10662826D01*
X11439682Y-10662858D01*
X11446385Y-10662895D01*
X11452131Y-10662937D01*
X11456910Y-10662983D01*
X11460714Y-10663034D01*
X11463533Y-10663089D01*
X11465358Y-10663150D01*
X11466179Y-10663214D01*
X11466228Y-10663235D01*
X11466014Y-10663728D01*
X11465383Y-10665106D01*
X11464351Y-10667336D01*
X11462934Y-10670385D01*
X11461147Y-10674218D01*
X11459005Y-10678803D01*
X11456526Y-10684106D01*
X11453724Y-10690093D01*
X11450615Y-10696730D01*
X11447216Y-10703984D01*
X11443541Y-10711822D01*
X11439606Y-10720209D01*
X11435428Y-10729112D01*
X11431022Y-10738498D01*
X11426404Y-10748333D01*
X11421589Y-10758584D01*
X11416593Y-10769216D01*
X11411433Y-10780197D01*
X11406123Y-10791492D01*
X11400679Y-10803068D01*
X11395118Y-10814892D01*
X11393036Y-10819318D01*
X11387434Y-10831227D01*
X11381942Y-10842901D01*
X11376576Y-10854308D01*
X11371353Y-10865413D01*
X11366287Y-10876183D01*
X11361395Y-10886583D01*
X11356693Y-10896582D01*
X11352196Y-10906144D01*
X11347920Y-10915236D01*
X11343881Y-10923825D01*
X11340094Y-10931877D01*
X11336576Y-10939358D01*
X11333343Y-10946235D01*
X11330410Y-10952473D01*
X11327793Y-10958041D01*
X11325508Y-10962903D01*
X11323570Y-10967026D01*
X11321996Y-10970377D01*
X11320801Y-10972921D01*
X11320001Y-10974626D01*
X11319612Y-10975458D01*
X11319576Y-10975537D01*
X11319717Y-10975627D01*
X11320250Y-10975708D01*
X11321214Y-10975781D01*
X11322651Y-10975847D01*
X11324603Y-10975905D01*
X11327111Y-10975956D01*
X11330215Y-10976001D01*
X11333958Y-10976039D01*
X11338381Y-10976071D01*
X11343524Y-10976098D01*
X11349430Y-10976119D01*
X11356140Y-10976136D01*
X11363694Y-10976147D01*
X11372135Y-10976155D01*
X11381503Y-10976159D01*
X11391839Y-10976159D01*
X11393403Y-10976158D01*
X11467498Y-10976145D01*
X11614810Y-10662736D01*
X11691195Y-10662736D01*
X11701844Y-10662737D01*
X11711517Y-10662742D01*
X11720256Y-10662750D01*
X11728101Y-10662763D01*
X11735092Y-10662779D01*
X11741271Y-10662800D01*
X11746678Y-10662826D01*
X11751354Y-10662857D01*
X11755339Y-10662894D01*
X11758674Y-10662936D01*
X11761401Y-10662985D01*
X11763559Y-10663041D01*
X11765189Y-10663103D01*
X11766332Y-10663173D01*
X11767029Y-10663250D01*
X11767320Y-10663336D01*
X11767332Y-10663371D01*
X11767102Y-10663868D01*
X11766453Y-10665256D01*
X11765398Y-10667505D01*
X11763953Y-10670585D01*
X11762129Y-10674469D01*
X11759942Y-10679126D01*
X11757405Y-10684527D01*
X11754531Y-10690644D01*
X11751334Y-10697448D01*
X11747828Y-10704908D01*
X11744027Y-10712996D01*
X11739944Y-10721683D01*
X11735593Y-10730939D01*
X11730988Y-10740736D01*
X11726142Y-10751044D01*
X11721069Y-10761835D01*
X11715783Y-10773078D01*
X11710298Y-10784746D01*
X11704626Y-10796808D01*
X11698783Y-10809235D01*
X11692781Y-10822000D01*
X11686634Y-10835071D01*
X11680357Y-10848420D01*
X11673962Y-10862019D01*
X11669910Y-10870635D01*
X11572735Y-11077264D01*
X11322577Y-11077264D01*
X11302912Y-11077264D01*
X11284241Y-11077262D01*
X11266540Y-11077260D01*
X11249787Y-11077256D01*
X11233959Y-11077252D01*
X11219034Y-11077246D01*
X11204989Y-11077240D01*
X11191801Y-11077231D01*
X11179448Y-11077222D01*
X11167907Y-11077211D01*
X11157155Y-11077199D01*
X11147170Y-11077185D01*
X11137929Y-11077170D01*
X11129409Y-11077153D01*
X11121587Y-11077134D01*
X11114442Y-11077114D01*
X11107950Y-11077092D01*
X11102089Y-11077068D01*
X11096835Y-11077042D01*
X11092167Y-11077014D01*
X11088061Y-11076984D01*
X11084496Y-11076952D01*
X11081447Y-11076918D01*
X11078894Y-11076882D01*
X11076812Y-11076844D01*
X11075179Y-11076803D01*
X11073973Y-11076760D01*
X11073171Y-11076714D01*
X11072750Y-11076666D01*
X11072671Y-11076629D01*
X11072902Y-11076132D01*
X11073551Y-11074744D01*
X11074606Y-11072495D01*
X11076052Y-11069415D01*
X11077875Y-11065531D01*
X11080063Y-11060874D01*
X11082601Y-11055473D01*
X11085475Y-11049356D01*
X11088672Y-11042553D01*
X11092178Y-11035092D01*
X11095979Y-11027004D01*
X11100063Y-11018317D01*
X11104414Y-11009061D01*
X11109019Y-10999264D01*
X11113866Y-10988956D01*
X11118939Y-10978165D01*
X11124225Y-10966922D01*
X11129711Y-10955255D01*
X11135382Y-10943193D01*
X11141226Y-10930765D01*
X11147228Y-10918001D01*
X11153375Y-10904930D01*
X11159653Y-10891580D01*
X11166048Y-10877982D01*
X11170101Y-10869365D01*
X11267278Y-10662736D01*
X11366753Y-10662736D01*
X11379893Y-10662739D01*
G36*
X11379893Y-10662739D02*
G01*
X11392141Y-10662746D01*
X11403488Y-10662759D01*
X11413925Y-10662776D01*
X11423443Y-10662799D01*
X11432031Y-10662826D01*
X11439682Y-10662858D01*
X11446385Y-10662895D01*
X11452131Y-10662937D01*
X11456910Y-10662983D01*
X11460714Y-10663034D01*
X11463533Y-10663089D01*
X11465358Y-10663150D01*
X11466179Y-10663214D01*
X11466228Y-10663235D01*
X11466014Y-10663728D01*
X11465383Y-10665106D01*
X11464351Y-10667336D01*
X11462934Y-10670385D01*
X11461147Y-10674218D01*
X11459005Y-10678803D01*
X11456526Y-10684106D01*
X11453724Y-10690093D01*
X11450615Y-10696730D01*
X11447216Y-10703984D01*
X11443541Y-10711822D01*
X11439606Y-10720209D01*
X11435428Y-10729112D01*
X11431022Y-10738498D01*
X11426404Y-10748333D01*
X11421589Y-10758584D01*
X11416593Y-10769216D01*
X11411433Y-10780197D01*
X11406123Y-10791492D01*
X11400679Y-10803068D01*
X11395118Y-10814892D01*
X11393036Y-10819318D01*
X11387434Y-10831227D01*
X11381942Y-10842901D01*
X11376576Y-10854308D01*
X11371353Y-10865413D01*
X11366287Y-10876183D01*
X11361395Y-10886583D01*
X11356693Y-10896582D01*
X11352196Y-10906144D01*
X11347920Y-10915236D01*
X11343881Y-10923825D01*
X11340094Y-10931877D01*
X11336576Y-10939358D01*
X11333343Y-10946235D01*
X11330410Y-10952473D01*
X11327793Y-10958041D01*
X11325508Y-10962903D01*
X11323570Y-10967026D01*
X11321996Y-10970377D01*
X11320801Y-10972921D01*
X11320001Y-10974626D01*
X11319612Y-10975458D01*
X11319576Y-10975537D01*
X11319717Y-10975627D01*
X11320250Y-10975708D01*
X11321214Y-10975781D01*
X11322651Y-10975847D01*
X11324603Y-10975905D01*
X11327111Y-10975956D01*
X11330215Y-10976001D01*
X11333958Y-10976039D01*
X11338381Y-10976071D01*
X11343524Y-10976098D01*
X11349430Y-10976119D01*
X11356140Y-10976136D01*
X11363694Y-10976147D01*
X11372135Y-10976155D01*
X11381503Y-10976159D01*
X11391839Y-10976159D01*
X11393403Y-10976158D01*
X11467498Y-10976145D01*
X11614810Y-10662736D01*
X11691195Y-10662736D01*
X11701844Y-10662737D01*
X11711517Y-10662742D01*
X11720256Y-10662750D01*
X11728101Y-10662763D01*
X11735092Y-10662779D01*
X11741271Y-10662800D01*
X11746678Y-10662826D01*
X11751354Y-10662857D01*
X11755339Y-10662894D01*
X11758674Y-10662936D01*
X11761401Y-10662985D01*
X11763559Y-10663041D01*
X11765189Y-10663103D01*
X11766332Y-10663173D01*
X11767029Y-10663250D01*
X11767320Y-10663336D01*
X11767332Y-10663371D01*
X11767102Y-10663868D01*
X11766453Y-10665256D01*
X11765398Y-10667505D01*
X11763953Y-10670585D01*
X11762129Y-10674469D01*
X11759942Y-10679126D01*
X11757405Y-10684527D01*
X11754531Y-10690644D01*
X11751334Y-10697448D01*
X11747828Y-10704908D01*
X11744027Y-10712996D01*
X11739944Y-10721683D01*
X11735593Y-10730939D01*
X11730988Y-10740736D01*
X11726142Y-10751044D01*
X11721069Y-10761835D01*
X11715783Y-10773078D01*
X11710298Y-10784746D01*
X11704626Y-10796808D01*
X11698783Y-10809235D01*
X11692781Y-10822000D01*
X11686634Y-10835071D01*
X11680357Y-10848420D01*
X11673962Y-10862019D01*
X11669910Y-10870635D01*
X11572735Y-11077264D01*
X11322577Y-11077264D01*
X11302912Y-11077264D01*
X11284241Y-11077262D01*
X11266540Y-11077260D01*
X11249787Y-11077256D01*
X11233959Y-11077252D01*
X11219034Y-11077246D01*
X11204989Y-11077240D01*
X11191801Y-11077231D01*
X11179448Y-11077222D01*
X11167907Y-11077211D01*
X11157155Y-11077199D01*
X11147170Y-11077185D01*
X11137929Y-11077170D01*
X11129409Y-11077153D01*
X11121587Y-11077134D01*
X11114442Y-11077114D01*
X11107950Y-11077092D01*
X11102089Y-11077068D01*
X11096835Y-11077042D01*
X11092167Y-11077014D01*
X11088061Y-11076984D01*
X11084496Y-11076952D01*
X11081447Y-11076918D01*
X11078894Y-11076882D01*
X11076812Y-11076844D01*
X11075179Y-11076803D01*
X11073973Y-11076760D01*
X11073171Y-11076714D01*
X11072750Y-11076666D01*
X11072671Y-11076629D01*
X11072902Y-11076132D01*
X11073551Y-11074744D01*
X11074606Y-11072495D01*
X11076052Y-11069415D01*
X11077875Y-11065531D01*
X11080063Y-11060874D01*
X11082601Y-11055473D01*
X11085475Y-11049356D01*
X11088672Y-11042553D01*
X11092178Y-11035092D01*
X11095979Y-11027004D01*
X11100063Y-11018317D01*
X11104414Y-11009061D01*
X11109019Y-10999264D01*
X11113866Y-10988956D01*
X11118939Y-10978165D01*
X11124225Y-10966922D01*
X11129711Y-10955255D01*
X11135382Y-10943193D01*
X11141226Y-10930765D01*
X11147228Y-10918001D01*
X11153375Y-10904930D01*
X11159653Y-10891580D01*
X11166048Y-10877982D01*
X11170101Y-10869365D01*
X11267278Y-10662736D01*
X11366753Y-10662736D01*
X11379893Y-10662739D01*
G37*
D15*
%TO.C,J1*%
X8200000Y-10994930D02*
X10220000Y-10994930D01*
X10800000Y-10574930D02*
X10800000Y-9309028D01*
X8200000Y-8889028D02*
X8200000Y-10994930D01*
X10220000Y-8889028D02*
X8200000Y-8889028D01*
X10800000Y-10574930D02*
G75*
G02*
X10220000Y-10994930I-195812J-340070D01*
G01*
X10220000Y-8889028D02*
G75*
G02*
X10800000Y-9309028I387055J-75972D01*
G01*
%TO.C,J2*%
X17120000Y-9000000D02*
X15100000Y-9000000D01*
X14520000Y-9420000D02*
X14520000Y-10460000D01*
X17120000Y-10880000D02*
X17120000Y-9000000D01*
X15100000Y-10880000D02*
X17120000Y-10880000D01*
X14520000Y-9420000D02*
G75*
G02*
X15100000Y-9000000I195812J340070D01*
G01*
X15100000Y-10880000D02*
G75*
G02*
X14520000Y-10460000I-387055J75972D01*
G01*
D13*
%TO.C,R7*%
X12018420Y-9586040D02*
X12018420Y-9453960D01*
X12018420Y-9453960D02*
X11733940Y-9453960D01*
X11733940Y-9586040D02*
X12018420Y-9586040D01*
X11733940Y-9453960D02*
X11733940Y-9586040D01*
%TO.C,R1*%
X12090120Y-9093960D02*
X12090120Y-9226040D01*
X12090120Y-9226040D02*
X12374600Y-9226040D01*
X12374600Y-9093960D02*
X12090120Y-9093960D01*
X12374600Y-9226040D02*
X12374600Y-9093960D01*
%TO.C,R2*%
X11750120Y-9093960D02*
X11750120Y-9226040D01*
X11750120Y-9226040D02*
X12034600Y-9226040D01*
X12034600Y-9093960D02*
X11750120Y-9093960D01*
X12034600Y-9226040D02*
X12034600Y-9093960D01*
%TD*%
M02*
