%TF.GenerationSoftware,KiCad,Pcbnew,9.0.5-9.0.5~ubuntu24.04.1*%
%TF.CreationDate,2026-07-24T09:14:34+03:00*%
%TF.ProjectId,uv39_res,75763339-5f72-4657-932e-6b696361645f,rev?*%
%TF.SameCoordinates,Original*%
%TF.FileFunction,Legend,Bot*%
%TF.FilePolarity,Positive*%
%FSLAX45Y45*%
G04 Gerber Fmt 4.5, Leading zero omitted, Abs format (unit mm)*
G04 Created by KiCad (PCBNEW 9.0.5-9.0.5~ubuntu24.04.1) date 2026-07-24 09:14:34*
%MOMM*%
%LPD*%
G01*
G04 APERTURE LIST*
%ADD10C,0.200000*%
G04 APERTURE END LIST*
D10*
X10961729Y-10025237D02*
X11033158Y-10025237D01*
X10947444Y-9982380D02*
X10997444Y-10132380D01*
X10997444Y-10132380D02*
X11047444Y-9982380D01*
X11097443Y-9996666D02*
X11104586Y-9989523D01*
X11104586Y-9989523D02*
X11097443Y-9982380D01*
X11097443Y-9982380D02*
X11090301Y-9989523D01*
X11090301Y-9989523D02*
X11097443Y-9996666D01*
X11097443Y-9996666D02*
X11097443Y-9982380D01*
X11097443Y-10075237D02*
X11104586Y-10068095D01*
X11104586Y-10068095D02*
X11097443Y-10060952D01*
X11097443Y-10060952D02*
X11090301Y-10068095D01*
X11090301Y-10068095D02*
X11097443Y-10075237D01*
X11097443Y-10075237D02*
X11097443Y-10060952D01*
X11261729Y-10132380D02*
X11311729Y-9982380D01*
X11311729Y-9982380D02*
X11361729Y-10132380D01*
X11497443Y-9996666D02*
X11490301Y-9989523D01*
X11490301Y-9989523D02*
X11468872Y-9982380D01*
X11468872Y-9982380D02*
X11454586Y-9982380D01*
X11454586Y-9982380D02*
X11433158Y-9989523D01*
X11433158Y-9989523D02*
X11418872Y-10003809D01*
X11418872Y-10003809D02*
X11411729Y-10018095D01*
X11411729Y-10018095D02*
X11404586Y-10046666D01*
X11404586Y-10046666D02*
X11404586Y-10068095D01*
X11404586Y-10068095D02*
X11411729Y-10096666D01*
X11411729Y-10096666D02*
X11418872Y-10110952D01*
X11418872Y-10110952D02*
X11433158Y-10125237D01*
X11433158Y-10125237D02*
X11454586Y-10132380D01*
X11454586Y-10132380D02*
X11468872Y-10132380D01*
X11468872Y-10132380D02*
X11490301Y-10125237D01*
X11490301Y-10125237D02*
X11497443Y-10118095D01*
X11647443Y-9996666D02*
X11640301Y-9989523D01*
X11640301Y-9989523D02*
X11618872Y-9982380D01*
X11618872Y-9982380D02*
X11604586Y-9982380D01*
X11604586Y-9982380D02*
X11583158Y-9989523D01*
X11583158Y-9989523D02*
X11568872Y-10003809D01*
X11568872Y-10003809D02*
X11561729Y-10018095D01*
X11561729Y-10018095D02*
X11554586Y-10046666D01*
X11554586Y-10046666D02*
X11554586Y-10068095D01*
X11554586Y-10068095D02*
X11561729Y-10096666D01*
X11561729Y-10096666D02*
X11568872Y-10110952D01*
X11568872Y-10110952D02*
X11583158Y-10125237D01*
X11583158Y-10125237D02*
X11604586Y-10132380D01*
X11604586Y-10132380D02*
X11618872Y-10132380D01*
X11618872Y-10132380D02*
X11640301Y-10125237D01*
X11640301Y-10125237D02*
X11647443Y-10118095D01*
X11018872Y-9819460D02*
X11040301Y-9812317D01*
X11040301Y-9812317D02*
X11047444Y-9805174D01*
X11047444Y-9805174D02*
X11054586Y-9790889D01*
X11054586Y-9790889D02*
X11054586Y-9769460D01*
X11054586Y-9769460D02*
X11047444Y-9755174D01*
X11047444Y-9755174D02*
X11040301Y-9748032D01*
X11040301Y-9748032D02*
X11026015Y-9740889D01*
X11026015Y-9740889D02*
X10968872Y-9740889D01*
X10968872Y-9740889D02*
X10968872Y-9890889D01*
X10968872Y-9890889D02*
X11018872Y-9890889D01*
X11018872Y-9890889D02*
X11033158Y-9883746D01*
X11033158Y-9883746D02*
X11040301Y-9876603D01*
X11040301Y-9876603D02*
X11047444Y-9862317D01*
X11047444Y-9862317D02*
X11047444Y-9848032D01*
X11047444Y-9848032D02*
X11040301Y-9833746D01*
X11040301Y-9833746D02*
X11033158Y-9826603D01*
X11033158Y-9826603D02*
X11018872Y-9819460D01*
X11018872Y-9819460D02*
X10968872Y-9819460D01*
X11118872Y-9755174D02*
X11126015Y-9748032D01*
X11126015Y-9748032D02*
X11118872Y-9740889D01*
X11118872Y-9740889D02*
X11111729Y-9748032D01*
X11111729Y-9748032D02*
X11118872Y-9755174D01*
X11118872Y-9755174D02*
X11118872Y-9740889D01*
X11118872Y-9833746D02*
X11126015Y-9826603D01*
X11126015Y-9826603D02*
X11118872Y-9819460D01*
X11118872Y-9819460D02*
X11111729Y-9826603D01*
X11111729Y-9826603D02*
X11118872Y-9833746D01*
X11118872Y-9833746D02*
X11118872Y-9819460D01*
X11283158Y-9890889D02*
X11333158Y-9740889D01*
X11333158Y-9740889D02*
X11383158Y-9890889D01*
X11461729Y-9890889D02*
X11490301Y-9890889D01*
X11490301Y-9890889D02*
X11504586Y-9883746D01*
X11504586Y-9883746D02*
X11518872Y-9869460D01*
X11518872Y-9869460D02*
X11526015Y-9840889D01*
X11526015Y-9840889D02*
X11526015Y-9790889D01*
X11526015Y-9790889D02*
X11518872Y-9762317D01*
X11518872Y-9762317D02*
X11504586Y-9748032D01*
X11504586Y-9748032D02*
X11490301Y-9740889D01*
X11490301Y-9740889D02*
X11461729Y-9740889D01*
X11461729Y-9740889D02*
X11447443Y-9748032D01*
X11447443Y-9748032D02*
X11433158Y-9762317D01*
X11433158Y-9762317D02*
X11426015Y-9790889D01*
X11426015Y-9790889D02*
X11426015Y-9840889D01*
X11426015Y-9840889D02*
X11433158Y-9869460D01*
X11433158Y-9869460D02*
X11447443Y-9883746D01*
X11447443Y-9883746D02*
X11461729Y-9890889D01*
X11590301Y-9890889D02*
X11590301Y-9769460D01*
X11590301Y-9769460D02*
X11597443Y-9755174D01*
X11597443Y-9755174D02*
X11604586Y-9748032D01*
X11604586Y-9748032D02*
X11618872Y-9740889D01*
X11618872Y-9740889D02*
X11647443Y-9740889D01*
X11647443Y-9740889D02*
X11661729Y-9748032D01*
X11661729Y-9748032D02*
X11668872Y-9755174D01*
X11668872Y-9755174D02*
X11676015Y-9769460D01*
X11676015Y-9769460D02*
X11676015Y-9890889D01*
X11726015Y-9890889D02*
X11811729Y-9890889D01*
X11768872Y-9740889D02*
X11768872Y-9890889D01*
X11054586Y-9513683D02*
X11047444Y-9506540D01*
X11047444Y-9506540D02*
X11026015Y-9499397D01*
X11026015Y-9499397D02*
X11011729Y-9499397D01*
X11011729Y-9499397D02*
X10990301Y-9506540D01*
X10990301Y-9506540D02*
X10976015Y-9520826D01*
X10976015Y-9520826D02*
X10968872Y-9535111D01*
X10968872Y-9535111D02*
X10961729Y-9563683D01*
X10961729Y-9563683D02*
X10961729Y-9585111D01*
X10961729Y-9585111D02*
X10968872Y-9613683D01*
X10968872Y-9613683D02*
X10976015Y-9627969D01*
X10976015Y-9627969D02*
X10990301Y-9642254D01*
X10990301Y-9642254D02*
X11011729Y-9649397D01*
X11011729Y-9649397D02*
X11026015Y-9649397D01*
X11026015Y-9649397D02*
X11047444Y-9642254D01*
X11047444Y-9642254D02*
X11054586Y-9635111D01*
X11118872Y-9513683D02*
X11126015Y-9506540D01*
X11126015Y-9506540D02*
X11118872Y-9499397D01*
X11118872Y-9499397D02*
X11111729Y-9506540D01*
X11111729Y-9506540D02*
X11118872Y-9513683D01*
X11118872Y-9513683D02*
X11118872Y-9499397D01*
X11118872Y-9592254D02*
X11126015Y-9585111D01*
X11126015Y-9585111D02*
X11118872Y-9577969D01*
X11118872Y-9577969D02*
X11111729Y-9585111D01*
X11111729Y-9585111D02*
X11118872Y-9592254D01*
X11118872Y-9592254D02*
X11118872Y-9577969D01*
X11383158Y-9642254D02*
X11368872Y-9649397D01*
X11368872Y-9649397D02*
X11347443Y-9649397D01*
X11347443Y-9649397D02*
X11326015Y-9642254D01*
X11326015Y-9642254D02*
X11311729Y-9627969D01*
X11311729Y-9627969D02*
X11304586Y-9613683D01*
X11304586Y-9613683D02*
X11297443Y-9585111D01*
X11297443Y-9585111D02*
X11297443Y-9563683D01*
X11297443Y-9563683D02*
X11304586Y-9535111D01*
X11304586Y-9535111D02*
X11311729Y-9520826D01*
X11311729Y-9520826D02*
X11326015Y-9506540D01*
X11326015Y-9506540D02*
X11347443Y-9499397D01*
X11347443Y-9499397D02*
X11361729Y-9499397D01*
X11361729Y-9499397D02*
X11383158Y-9506540D01*
X11383158Y-9506540D02*
X11390301Y-9513683D01*
X11390301Y-9513683D02*
X11390301Y-9563683D01*
X11390301Y-9563683D02*
X11361729Y-9563683D01*
X11454586Y-9499397D02*
X11454586Y-9649397D01*
X11454586Y-9649397D02*
X11540301Y-9499397D01*
X11540301Y-9499397D02*
X11540301Y-9649397D01*
X11611729Y-9499397D02*
X11611729Y-9649397D01*
X11611729Y-9649397D02*
X11647443Y-9649397D01*
X11647443Y-9649397D02*
X11668872Y-9642254D01*
X11668872Y-9642254D02*
X11683158Y-9627969D01*
X11683158Y-9627969D02*
X11690301Y-9613683D01*
X11690301Y-9613683D02*
X11697443Y-9585111D01*
X11697443Y-9585111D02*
X11697443Y-9563683D01*
X11697443Y-9563683D02*
X11690301Y-9535111D01*
X11690301Y-9535111D02*
X11683158Y-9520826D01*
X11683158Y-9520826D02*
X11668872Y-9506540D01*
X11668872Y-9506540D02*
X11647443Y-9499397D01*
X11647443Y-9499397D02*
X11611729Y-9499397D01*
X14282556Y-9889111D02*
X14368271Y-9889111D01*
X14325414Y-9889111D02*
X14325414Y-9739111D01*
X14325414Y-9739111D02*
X14339699Y-9760540D01*
X14339699Y-9760540D02*
X14353985Y-9774826D01*
X14353985Y-9774826D02*
X14368271Y-9781968D01*
X14218271Y-9874826D02*
X14211128Y-9881968D01*
X14211128Y-9881968D02*
X14218271Y-9889111D01*
X14218271Y-9889111D02*
X14225414Y-9881968D01*
X14225414Y-9881968D02*
X14218271Y-9874826D01*
X14218271Y-9874826D02*
X14218271Y-9889111D01*
X14218271Y-9796254D02*
X14211128Y-9803397D01*
X14211128Y-9803397D02*
X14218271Y-9810540D01*
X14218271Y-9810540D02*
X14225414Y-9803397D01*
X14225414Y-9803397D02*
X14218271Y-9796254D01*
X14218271Y-9796254D02*
X14218271Y-9810540D01*
X13946842Y-9889111D02*
X13996842Y-9817683D01*
X14032556Y-9889111D02*
X14032556Y-9739111D01*
X14032556Y-9739111D02*
X13975414Y-9739111D01*
X13975414Y-9739111D02*
X13961128Y-9746254D01*
X13961128Y-9746254D02*
X13953985Y-9753397D01*
X13953985Y-9753397D02*
X13946842Y-9767683D01*
X13946842Y-9767683D02*
X13946842Y-9789111D01*
X13946842Y-9789111D02*
X13953985Y-9803397D01*
X13953985Y-9803397D02*
X13961128Y-9810540D01*
X13961128Y-9810540D02*
X13975414Y-9817683D01*
X13975414Y-9817683D02*
X14032556Y-9817683D01*
X13882556Y-9810540D02*
X13832556Y-9810540D01*
X13811128Y-9889111D02*
X13882556Y-9889111D01*
X13882556Y-9889111D02*
X13882556Y-9739111D01*
X13882556Y-9739111D02*
X13811128Y-9739111D01*
X13753985Y-9881968D02*
X13732556Y-9889111D01*
X13732556Y-9889111D02*
X13696842Y-9889111D01*
X13696842Y-9889111D02*
X13682556Y-9881968D01*
X13682556Y-9881968D02*
X13675414Y-9874826D01*
X13675414Y-9874826D02*
X13668271Y-9860540D01*
X13668271Y-9860540D02*
X13668271Y-9846254D01*
X13668271Y-9846254D02*
X13675414Y-9831968D01*
X13675414Y-9831968D02*
X13682556Y-9824826D01*
X13682556Y-9824826D02*
X13696842Y-9817683D01*
X13696842Y-9817683D02*
X13725414Y-9810540D01*
X13725414Y-9810540D02*
X13739699Y-9803397D01*
X13739699Y-9803397D02*
X13746842Y-9796254D01*
X13746842Y-9796254D02*
X13753985Y-9781968D01*
X13753985Y-9781968D02*
X13753985Y-9767683D01*
X13753985Y-9767683D02*
X13746842Y-9753397D01*
X13746842Y-9753397D02*
X13739699Y-9746254D01*
X13739699Y-9746254D02*
X13725414Y-9739111D01*
X13725414Y-9739111D02*
X13689699Y-9739111D01*
X13689699Y-9739111D02*
X13668271Y-9746254D01*
X13603985Y-9889111D02*
X13603985Y-9739111D01*
X13532556Y-9889111D02*
X13532556Y-9739111D01*
X13532556Y-9739111D02*
X13446842Y-9889111D01*
X13446842Y-9889111D02*
X13446842Y-9739111D01*
X14368271Y-9994889D02*
X14361128Y-9987746D01*
X14361128Y-9987746D02*
X14346842Y-9980603D01*
X14346842Y-9980603D02*
X14311128Y-9980603D01*
X14311128Y-9980603D02*
X14296842Y-9987746D01*
X14296842Y-9987746D02*
X14289699Y-9994889D01*
X14289699Y-9994889D02*
X14282556Y-10009174D01*
X14282556Y-10009174D02*
X14282556Y-10023460D01*
X14282556Y-10023460D02*
X14289699Y-10044889D01*
X14289699Y-10044889D02*
X14375414Y-10130603D01*
X14375414Y-10130603D02*
X14282556Y-10130603D01*
X14218271Y-10116317D02*
X14211128Y-10123460D01*
X14211128Y-10123460D02*
X14218271Y-10130603D01*
X14218271Y-10130603D02*
X14225414Y-10123460D01*
X14225414Y-10123460D02*
X14218271Y-10116317D01*
X14218271Y-10116317D02*
X14218271Y-10130603D01*
X14218271Y-10037746D02*
X14211128Y-10044889D01*
X14211128Y-10044889D02*
X14218271Y-10052031D01*
X14218271Y-10052031D02*
X14225414Y-10044889D01*
X14225414Y-10044889D02*
X14218271Y-10037746D01*
X14218271Y-10037746D02*
X14218271Y-10052031D01*
X13953985Y-9987746D02*
X13968271Y-9980603D01*
X13968271Y-9980603D02*
X13989699Y-9980603D01*
X13989699Y-9980603D02*
X14011128Y-9987746D01*
X14011128Y-9987746D02*
X14025414Y-10002031D01*
X14025414Y-10002031D02*
X14032556Y-10016317D01*
X14032556Y-10016317D02*
X14039699Y-10044889D01*
X14039699Y-10044889D02*
X14039699Y-10066317D01*
X14039699Y-10066317D02*
X14032556Y-10094889D01*
X14032556Y-10094889D02*
X14025414Y-10109174D01*
X14025414Y-10109174D02*
X14011128Y-10123460D01*
X14011128Y-10123460D02*
X13989699Y-10130603D01*
X13989699Y-10130603D02*
X13975414Y-10130603D01*
X13975414Y-10130603D02*
X13953985Y-10123460D01*
X13953985Y-10123460D02*
X13946842Y-10116317D01*
X13946842Y-10116317D02*
X13946842Y-10066317D01*
X13946842Y-10066317D02*
X13975414Y-10066317D01*
X13882556Y-10130603D02*
X13882556Y-9980603D01*
X13882556Y-9980603D02*
X13796842Y-10130603D01*
X13796842Y-10130603D02*
X13796842Y-9980603D01*
X13725414Y-10130603D02*
X13725414Y-9980603D01*
X13725414Y-9980603D02*
X13689699Y-9980603D01*
X13689699Y-9980603D02*
X13668271Y-9987746D01*
X13668271Y-9987746D02*
X13653985Y-10002031D01*
X13653985Y-10002031D02*
X13646842Y-10016317D01*
X13646842Y-10016317D02*
X13639699Y-10044889D01*
X13639699Y-10044889D02*
X13639699Y-10066317D01*
X13639699Y-10066317D02*
X13646842Y-10094889D01*
X13646842Y-10094889D02*
X13653985Y-10109174D01*
X13653985Y-10109174D02*
X13668271Y-10123460D01*
X13668271Y-10123460D02*
X13689699Y-10130603D01*
X13689699Y-10130603D02*
X13725414Y-10130603D01*
M02*
