%TF.GenerationSoftware,KiCad,Pcbnew,9.0.5-9.0.5~ubuntu24.04.1*%
%TF.CreationDate,2026-04-23T15:40:08+03:00*%
%TF.ProjectId,uv39_res,75763339-5f72-4657-932e-6b696361645f,rev?*%
%TF.SameCoordinates,Original*%
%TF.FileFunction,Copper,L2,Bot*%
%TF.FilePolarity,Positive*%
%FSLAX45Y45*%
G04 Gerber Fmt 4.5, Leading zero omitted, Abs format (unit mm)*
G04 Created by KiCad (PCBNEW 9.0.5-9.0.5~ubuntu24.04.1) date 2026-04-23 15:40:08*
%MOMM*%
%LPD*%
G01*
G04 APERTURE LIST*
%TA.AperFunction,ComponentPad*%
%ADD10C,3.300000*%
%TD*%
%TA.AperFunction,ComponentPad*%
%ADD11C,2.400000*%
%TD*%
G04 APERTURE END LIST*
D10*
%TO.P,J1,3*%
%TO.N,N/C*%
X10600000Y-10910500D03*
%TO.P,J1,4*%
X10600000Y-8969500D03*
D11*
%TO.P,J1,A,1*%
%TO.N,Net-(J1-1)*%
X10600000Y-10370000D03*
%TO.P,J1,B,2*%
%TO.N,Net-(J1-2)*%
X10600000Y-9510000D03*
%TO.P,J1,C,3*%
%TO.N,GND*%
X10600000Y-9940000D03*
%TD*%
%TO.P,J2,1,1*%
%TO.N,Net-(J1-2)*%
X14720000Y-10210000D03*
%TO.P,J2,2,2*%
%TO.N,GND*%
X14720000Y-9670000D03*
D10*
%TO.P,J2,3*%
%TO.N,N/C*%
X14720000Y-9081500D03*
%TO.P,J2,4*%
X14720000Y-10798500D03*
%TD*%
%TA.AperFunction,Conductor*%
%TO.N,GND*%
G36*
X14711840Y-8695668D02*
G01*
X14711844Y-8695669D01*
X14711847Y-8695668D01*
X14711920Y-8695671D01*
X14715883Y-8695797D01*
X14716054Y-8695804D01*
X14749537Y-8697449D01*
X14750078Y-8697490D01*
X14757993Y-8698322D01*
X14758401Y-8698374D01*
X14787604Y-8702706D01*
X14788204Y-8702814D01*
X14795405Y-8704345D01*
X14795738Y-8704422D01*
X14825046Y-8711763D01*
X14825698Y-8711950D01*
X14831591Y-8713865D01*
X14831854Y-8713955D01*
X14861461Y-8724549D01*
X14862151Y-8724825D01*
X14865874Y-8726483D01*
X14866077Y-8726576D01*
X14896454Y-8740943D01*
X14897309Y-8741400D01*
X14921045Y-8755627D01*
X14928809Y-8760281D01*
X14929617Y-8760821D01*
X14948622Y-8774916D01*
X14959115Y-8782698D01*
X14959866Y-8783314D01*
X14987077Y-8807978D01*
X14987764Y-8808664D01*
X15012426Y-8835875D01*
X15013043Y-8836626D01*
X15034920Y-8866124D01*
X15035460Y-8866932D01*
X15054340Y-8898432D01*
X15054798Y-8899288D01*
X15069164Y-8929664D01*
X15069259Y-8929870D01*
X15070915Y-8933589D01*
X15071192Y-8934281D01*
X15081784Y-8963883D01*
X15081878Y-8964159D01*
X15083789Y-8970042D01*
X15083977Y-8970695D01*
X15091317Y-8999997D01*
X15091397Y-9000344D01*
X15092925Y-9007534D01*
X15093035Y-9008139D01*
X15097365Y-9037336D01*
X15097418Y-9037753D01*
X15098249Y-9045659D01*
X15098292Y-9046208D01*
X15099938Y-9079720D01*
X15099950Y-9080206D01*
X15099950Y-10803785D01*
X15099938Y-10804270D01*
X15098272Y-10838185D01*
X15098230Y-10838734D01*
X15097436Y-10846285D01*
X15097383Y-10846702D01*
X15092961Y-10876517D01*
X15092852Y-10877122D01*
X15091402Y-10883940D01*
X15091322Y-10884288D01*
X15083824Y-10914222D01*
X15083636Y-10914875D01*
X15081859Y-10920345D01*
X15081765Y-10920621D01*
X15070933Y-10950893D01*
X15070656Y-10951585D01*
X15069220Y-10954810D01*
X15069125Y-10955016D01*
X15054461Y-10986021D01*
X15054003Y-10986878D01*
X15034978Y-11018619D01*
X15034438Y-11019427D01*
X15012395Y-11049150D01*
X15011778Y-11049901D01*
X14986925Y-11077321D01*
X14986238Y-11078008D01*
X14958820Y-11102859D01*
X14958069Y-11103476D01*
X14928344Y-11125521D01*
X14927536Y-11126060D01*
X14895795Y-11145085D01*
X14894938Y-11145543D01*
X14863936Y-11160206D01*
X14863730Y-11160300D01*
X14860502Y-11161737D01*
X14859810Y-11162015D01*
X14829538Y-11172846D01*
X14829262Y-11172940D01*
X14823792Y-11174717D01*
X14823139Y-11174905D01*
X14793205Y-11182403D01*
X14792857Y-11182483D01*
X14786040Y-11183932D01*
X14785434Y-11184041D01*
X14755620Y-11188463D01*
X14755202Y-11188516D01*
X14747651Y-11189310D01*
X14747102Y-11189352D01*
X14721982Y-11190586D01*
X14713123Y-11191021D01*
X14712940Y-11191028D01*
X14708981Y-11191147D01*
X14708971Y-11191147D01*
X14708969Y-11191146D01*
X14708960Y-11191147D01*
X10604559Y-11309128D01*
X10603817Y-11309121D01*
X10571527Y-11307628D01*
X10571014Y-11307591D01*
X10563629Y-11306864D01*
X10563231Y-11306816D01*
X10534788Y-11302849D01*
X10534224Y-11302753D01*
X10527448Y-11301405D01*
X10527112Y-11301333D01*
X10498578Y-11294621D01*
X10497970Y-11294458D01*
X10492303Y-11292739D01*
X10492031Y-11292652D01*
X10463239Y-11283002D01*
X10462597Y-11282761D01*
X10458717Y-11281154D01*
X10458507Y-11281064D01*
X10447109Y-11276032D01*
X10429109Y-11268084D01*
X10428442Y-11267759D01*
X10427496Y-11267253D01*
X10427345Y-11267171D01*
X10397102Y-11250325D01*
X10396324Y-11249844D01*
X10367045Y-11229787D01*
X10366315Y-11229236D01*
X10339012Y-11206563D01*
X10338336Y-11205947D01*
X10313241Y-11180853D01*
X10312625Y-11180177D01*
X10289953Y-11152873D01*
X10289402Y-11152143D01*
X10284880Y-11145543D01*
X10269345Y-11122864D01*
X10268864Y-11122087D01*
X10252018Y-11091843D01*
X10251936Y-11091693D01*
X10251904Y-11091633D01*
X10251430Y-11090746D01*
X10251106Y-11090080D01*
X10238121Y-11060673D01*
X10238036Y-11060474D01*
X10236427Y-11056589D01*
X10236188Y-11055951D01*
X10226536Y-11027154D01*
X10226452Y-11026890D01*
X10224731Y-11021216D01*
X10224569Y-11020614D01*
X10217856Y-10992072D01*
X10217785Y-10991746D01*
X10216436Y-10984961D01*
X10216341Y-10984402D01*
X10212373Y-10955955D01*
X10212327Y-10955565D01*
X10211598Y-10948171D01*
X10211562Y-10947663D01*
X10210061Y-10915197D01*
X10210050Y-10914739D01*
X10210050Y-10897060D01*
X10394950Y-10897060D01*
X10394950Y-10923940D01*
X10398458Y-10950588D01*
X10398458Y-10950589D01*
X10405415Y-10976552D01*
X10405416Y-10976553D01*
X10415701Y-11001385D01*
X10415701Y-11001386D01*
X10415702Y-11001386D01*
X10428100Y-11022861D01*
X10429142Y-11024664D01*
X10436999Y-11034904D01*
X10445504Y-11045989D01*
X10464511Y-11064996D01*
X10485836Y-11081359D01*
X10509114Y-11094798D01*
X10533947Y-11105085D01*
X10559911Y-11112042D01*
X10586560Y-11115550D01*
X10586560Y-11115550D01*
X10613440Y-11115550D01*
X10613440Y-11115550D01*
X10640089Y-11112042D01*
X10666053Y-11105085D01*
X10690886Y-11094798D01*
X10714164Y-11081359D01*
X10735489Y-11064996D01*
X10754496Y-11045989D01*
X10770859Y-11024664D01*
X10784298Y-11001386D01*
X10794585Y-10976553D01*
X10801542Y-10950589D01*
X10805050Y-10923940D01*
X10805050Y-10897060D01*
X10801542Y-10870411D01*
X10794585Y-10844447D01*
X10784298Y-10819614D01*
X10770859Y-10796336D01*
X10762207Y-10785060D01*
X14514950Y-10785060D01*
X14514950Y-10811940D01*
X14518458Y-10838588D01*
X14518458Y-10838589D01*
X14525415Y-10864552D01*
X14525415Y-10864553D01*
X14535701Y-10889385D01*
X14535701Y-10889386D01*
X14535702Y-10889386D01*
X14549141Y-10912664D01*
X14549141Y-10912664D01*
X14557793Y-10923940D01*
X14565504Y-10933989D01*
X14584511Y-10952996D01*
X14605836Y-10969359D01*
X14629114Y-10982798D01*
X14653947Y-10993085D01*
X14679911Y-11000042D01*
X14706560Y-11003550D01*
X14706560Y-11003550D01*
X14733440Y-11003550D01*
X14733440Y-11003550D01*
X14760089Y-11000042D01*
X14786053Y-10993085D01*
X14810886Y-10982798D01*
X14834164Y-10969359D01*
X14855489Y-10952996D01*
X14874496Y-10933989D01*
X14890859Y-10912664D01*
X14904298Y-10889386D01*
X14914585Y-10864553D01*
X14921542Y-10838589D01*
X14925050Y-10811940D01*
X14925050Y-10785060D01*
X14921542Y-10758411D01*
X14914585Y-10732447D01*
X14904298Y-10707614D01*
X14890859Y-10684336D01*
X14874496Y-10663011D01*
X14855489Y-10644004D01*
X14834164Y-10627641D01*
X14810886Y-10614202D01*
X14810885Y-10614201D01*
X14810885Y-10614201D01*
X14786053Y-10603916D01*
X14786053Y-10603915D01*
X14786053Y-10603915D01*
X14760089Y-10596958D01*
X14760089Y-10596958D01*
X14760089Y-10596958D01*
X14733440Y-10593450D01*
X14733440Y-10593450D01*
X14706560Y-10593450D01*
X14706560Y-10593450D01*
X14679912Y-10596958D01*
X14679911Y-10596958D01*
X14653948Y-10603915D01*
X14653947Y-10603916D01*
X14629115Y-10614201D01*
X14605835Y-10627642D01*
X14584511Y-10644004D01*
X14565504Y-10663011D01*
X14549141Y-10684336D01*
X14535701Y-10707615D01*
X14525415Y-10732447D01*
X14525415Y-10732448D01*
X14518458Y-10758411D01*
X14518458Y-10758412D01*
X14514950Y-10785060D01*
X10762207Y-10785060D01*
X10754496Y-10775011D01*
X10735489Y-10756004D01*
X10714164Y-10739641D01*
X10690886Y-10726202D01*
X10690886Y-10726201D01*
X10690885Y-10726201D01*
X10666053Y-10715916D01*
X10666053Y-10715915D01*
X10666053Y-10715915D01*
X10640089Y-10708958D01*
X10640089Y-10708958D01*
X10640089Y-10708958D01*
X10613440Y-10705450D01*
X10613440Y-10705450D01*
X10586560Y-10705450D01*
X10586560Y-10705450D01*
X10559912Y-10708958D01*
X10559911Y-10708958D01*
X10533948Y-10715915D01*
X10533947Y-10715916D01*
X10509115Y-10726201D01*
X10485836Y-10739642D01*
X10464511Y-10756004D01*
X10445504Y-10775011D01*
X10429142Y-10796336D01*
X10415701Y-10819615D01*
X10405416Y-10844447D01*
X10405415Y-10844448D01*
X10398458Y-10870411D01*
X10398458Y-10870412D01*
X10394950Y-10897060D01*
X10210050Y-10897060D01*
X10210050Y-10357403D01*
X10439950Y-10357403D01*
X10439950Y-10382597D01*
X10443891Y-10407478D01*
X10443891Y-10407479D01*
X10451676Y-10431438D01*
X10463113Y-10453885D01*
X10477921Y-10474266D01*
X10495734Y-10492079D01*
X10516116Y-10506887D01*
X10538562Y-10518324D01*
X10562522Y-10526109D01*
X10562522Y-10526109D01*
X10562522Y-10526109D01*
X10587404Y-10530050D01*
X10587404Y-10530050D01*
X10612597Y-10530050D01*
X10637478Y-10526109D01*
X10637478Y-10526109D01*
X10637479Y-10526109D01*
X10661438Y-10518324D01*
X10683885Y-10506887D01*
X10704266Y-10492079D01*
X10722079Y-10474266D01*
X10736887Y-10453885D01*
X10748324Y-10431438D01*
X10756109Y-10407479D01*
X10760050Y-10382596D01*
X10760050Y-10357404D01*
X10760050Y-10357403D01*
X10756109Y-10332522D01*
X10755965Y-10332079D01*
X10748324Y-10308562D01*
X10736887Y-10286116D01*
X10722079Y-10265734D01*
X10704266Y-10247921D01*
X10683885Y-10233113D01*
X10683884Y-10233113D01*
X10683884Y-10233113D01*
X10661438Y-10221676D01*
X10637478Y-10213891D01*
X10612597Y-10209950D01*
X10612596Y-10209950D01*
X10587404Y-10209950D01*
X10587404Y-10209950D01*
X10562522Y-10213891D01*
X10538562Y-10221676D01*
X10516116Y-10233113D01*
X10495735Y-10247921D01*
X10477921Y-10265735D01*
X10463113Y-10286116D01*
X10451676Y-10308562D01*
X10443891Y-10332522D01*
X10439950Y-10357403D01*
X10210050Y-10357403D01*
X10210050Y-10197403D01*
X14559950Y-10197403D01*
X14559950Y-10222597D01*
X14563891Y-10247478D01*
X14569823Y-10265734D01*
X14571676Y-10271438D01*
X14583113Y-10293885D01*
X14597921Y-10314266D01*
X14615734Y-10332079D01*
X14636115Y-10346887D01*
X14658562Y-10358324D01*
X14682521Y-10366109D01*
X14682522Y-10366109D01*
X14682522Y-10366109D01*
X14707403Y-10370050D01*
X14707404Y-10370050D01*
X14732596Y-10370050D01*
X14757478Y-10366109D01*
X14757478Y-10366109D01*
X14757478Y-10366109D01*
X14781438Y-10358324D01*
X14803884Y-10346887D01*
X14824266Y-10332079D01*
X14842079Y-10314266D01*
X14856887Y-10293885D01*
X14868324Y-10271438D01*
X14876109Y-10247479D01*
X14878384Y-10233113D01*
X14880050Y-10222597D01*
X14880050Y-10197403D01*
X14876109Y-10172522D01*
X14876109Y-10172522D01*
X14868324Y-10148562D01*
X14856887Y-10126116D01*
X14842079Y-10105734D01*
X14824266Y-10087921D01*
X14803884Y-10073113D01*
X14803884Y-10073113D01*
X14803884Y-10073113D01*
X14781438Y-10061676D01*
X14757478Y-10053891D01*
X14732596Y-10049950D01*
X14732596Y-10049950D01*
X14707404Y-10049950D01*
X14707403Y-10049950D01*
X14682522Y-10053891D01*
X14658562Y-10061676D01*
X14636116Y-10073113D01*
X14615734Y-10087921D01*
X14597921Y-10105735D01*
X14583113Y-10126116D01*
X14571676Y-10148562D01*
X14563891Y-10172522D01*
X14559950Y-10197403D01*
X10210050Y-10197403D01*
X10210050Y-9928857D01*
X10430000Y-9928857D01*
X10430000Y-9951143D01*
X10432909Y-9973237D01*
X10438676Y-9994762D01*
X10447204Y-10015350D01*
X10458347Y-10034650D01*
X10471079Y-10051243D01*
X10531638Y-9990684D01*
X10533976Y-9994184D01*
X10545816Y-10006024D01*
X10549315Y-10008362D01*
X10488757Y-10068921D01*
X10505350Y-10081653D01*
X10524650Y-10092796D01*
X10545238Y-10101324D01*
X10566763Y-10107091D01*
X10588857Y-10110000D01*
X10588858Y-10110000D01*
X10611142Y-10110000D01*
X10611143Y-10110000D01*
X10633237Y-10107091D01*
X10654762Y-10101324D01*
X10675350Y-10092796D01*
X10694650Y-10081653D01*
X10711243Y-10068921D01*
X10650685Y-10008362D01*
X10654184Y-10006024D01*
X10666024Y-9994184D01*
X10668362Y-9990685D01*
X10728921Y-10051243D01*
X10741653Y-10034650D01*
X10752796Y-10015350D01*
X10761324Y-9994762D01*
X10767091Y-9973237D01*
X10770000Y-9951143D01*
X10770000Y-9951142D01*
X10770000Y-9928858D01*
X10770000Y-9928857D01*
X10767091Y-9906763D01*
X10761324Y-9885238D01*
X10752796Y-9864650D01*
X10741653Y-9845350D01*
X10728921Y-9828757D01*
X10668362Y-9889315D01*
X10666024Y-9885816D01*
X10654184Y-9873976D01*
X10650684Y-9871638D01*
X10711243Y-9811079D01*
X10700644Y-9802946D01*
X10700644Y-9802946D01*
X10694650Y-9798347D01*
X10675350Y-9787204D01*
X10654762Y-9778676D01*
X10633237Y-9772909D01*
X10611143Y-9770000D01*
X10588857Y-9770000D01*
X10566763Y-9772909D01*
X10545238Y-9778676D01*
X10524650Y-9787204D01*
X10505350Y-9798347D01*
X10488757Y-9811079D01*
X10549315Y-9871638D01*
X10545816Y-9873976D01*
X10533976Y-9885816D01*
X10531638Y-9889315D01*
X10471079Y-9828757D01*
X10458347Y-9845350D01*
X10447204Y-9864650D01*
X10438676Y-9885238D01*
X10432909Y-9906763D01*
X10430000Y-9928857D01*
X10210050Y-9928857D01*
X10210050Y-9497403D01*
X10439950Y-9497403D01*
X10439950Y-9522597D01*
X10443891Y-9547478D01*
X10443891Y-9547479D01*
X10451676Y-9571438D01*
X10463113Y-9593885D01*
X10477921Y-9614266D01*
X10495734Y-9632079D01*
X10516116Y-9646887D01*
X10538562Y-9658324D01*
X10562522Y-9666109D01*
X10562522Y-9666109D01*
X10562522Y-9666109D01*
X10587404Y-9670050D01*
X10587404Y-9670050D01*
X10612597Y-9670050D01*
X10637478Y-9666109D01*
X10637478Y-9666109D01*
X10637479Y-9666109D01*
X10659797Y-9658857D01*
X14550000Y-9658857D01*
X14550000Y-9681143D01*
X14552909Y-9703237D01*
X14558676Y-9724762D01*
X14567204Y-9745350D01*
X14578347Y-9764650D01*
X14591079Y-9781243D01*
X14651637Y-9720684D01*
X14653976Y-9724184D01*
X14665816Y-9736024D01*
X14669315Y-9738362D01*
X14608757Y-9798921D01*
X14625350Y-9811653D01*
X14644650Y-9822796D01*
X14665238Y-9831324D01*
X14686763Y-9837091D01*
X14708857Y-9840000D01*
X14708858Y-9840000D01*
X14731142Y-9840000D01*
X14731142Y-9840000D01*
X14753236Y-9837091D01*
X14774762Y-9831324D01*
X14795350Y-9822796D01*
X14814649Y-9811653D01*
X14831243Y-9798921D01*
X14770684Y-9738362D01*
X14774184Y-9736024D01*
X14786024Y-9724184D01*
X14788362Y-9720685D01*
X14848921Y-9781243D01*
X14861653Y-9764650D01*
X14872796Y-9745350D01*
X14881324Y-9724762D01*
X14887091Y-9703237D01*
X14890000Y-9681143D01*
X14890000Y-9681142D01*
X14890000Y-9658858D01*
X14890000Y-9658857D01*
X14887091Y-9636763D01*
X14881324Y-9615238D01*
X14872796Y-9594650D01*
X14861653Y-9575350D01*
X14848920Y-9558757D01*
X14788362Y-9619315D01*
X14786024Y-9615816D01*
X14774184Y-9603976D01*
X14770684Y-9601638D01*
X14831243Y-9541079D01*
X14814650Y-9528347D01*
X14795350Y-9517204D01*
X14774762Y-9508676D01*
X14753236Y-9502909D01*
X14731142Y-9500000D01*
X14708857Y-9500000D01*
X14686763Y-9502909D01*
X14665238Y-9508676D01*
X14644650Y-9517204D01*
X14625350Y-9528347D01*
X14608757Y-9541079D01*
X14669315Y-9601638D01*
X14665816Y-9603976D01*
X14653976Y-9615816D01*
X14651638Y-9619315D01*
X14591079Y-9558757D01*
X14578347Y-9575350D01*
X14567204Y-9594650D01*
X14558676Y-9615238D01*
X14552909Y-9636763D01*
X14550000Y-9658857D01*
X10659797Y-9658857D01*
X10661438Y-9658324D01*
X10683885Y-9646887D01*
X10704266Y-9632079D01*
X10722079Y-9614266D01*
X10736887Y-9593885D01*
X10748324Y-9571438D01*
X10756109Y-9547479D01*
X10757123Y-9541079D01*
X10760050Y-9522597D01*
X10760050Y-9497403D01*
X10756109Y-9472522D01*
X10756109Y-9472522D01*
X10748324Y-9448562D01*
X10736887Y-9426116D01*
X10722079Y-9405734D01*
X10704266Y-9387921D01*
X10683885Y-9373113D01*
X10683884Y-9373113D01*
X10683884Y-9373113D01*
X10661438Y-9361676D01*
X10637478Y-9353891D01*
X10612597Y-9349950D01*
X10612596Y-9349950D01*
X10587404Y-9349950D01*
X10587404Y-9349950D01*
X10562522Y-9353891D01*
X10538562Y-9361676D01*
X10516116Y-9373113D01*
X10495735Y-9387921D01*
X10477921Y-9405735D01*
X10463113Y-9426116D01*
X10451676Y-9448562D01*
X10443891Y-9472522D01*
X10439950Y-9497403D01*
X10210050Y-9497403D01*
X10210050Y-8965228D01*
X10210061Y-8964771D01*
X10210089Y-8964159D01*
X10210463Y-8956060D01*
X10394950Y-8956060D01*
X10394950Y-8982940D01*
X10398268Y-9008139D01*
X10398458Y-9009588D01*
X10398458Y-9009589D01*
X10405415Y-9035552D01*
X10405416Y-9035553D01*
X10415701Y-9060385D01*
X10415701Y-9060385D01*
X10415702Y-9060386D01*
X10429141Y-9083664D01*
X10429142Y-9083664D01*
X10437793Y-9094940D01*
X10445504Y-9104989D01*
X10464511Y-9123996D01*
X10485836Y-9140359D01*
X10509114Y-9153798D01*
X10533947Y-9164085D01*
X10559911Y-9171042D01*
X10586560Y-9174550D01*
X10586560Y-9174550D01*
X10613440Y-9174550D01*
X10613440Y-9174550D01*
X10640089Y-9171042D01*
X10666053Y-9164085D01*
X10690886Y-9153798D01*
X10714164Y-9140359D01*
X10735489Y-9123996D01*
X10754496Y-9104989D01*
X10770859Y-9083664D01*
X10779868Y-9068060D01*
X14514950Y-9068060D01*
X14514950Y-9094940D01*
X14518458Y-9121588D01*
X14518458Y-9121589D01*
X14525415Y-9147552D01*
X14525415Y-9147553D01*
X14535701Y-9172385D01*
X14535701Y-9172386D01*
X14535702Y-9172386D01*
X14549141Y-9195664D01*
X14565504Y-9216989D01*
X14584511Y-9235996D01*
X14605836Y-9252359D01*
X14629114Y-9265798D01*
X14653947Y-9276085D01*
X14679911Y-9283042D01*
X14706560Y-9286550D01*
X14706560Y-9286550D01*
X14733440Y-9286550D01*
X14733440Y-9286550D01*
X14760089Y-9283042D01*
X14786053Y-9276085D01*
X14810886Y-9265798D01*
X14834164Y-9252359D01*
X14855489Y-9235996D01*
X14874496Y-9216989D01*
X14890859Y-9195664D01*
X14904298Y-9172386D01*
X14914585Y-9147553D01*
X14921542Y-9121589D01*
X14925050Y-9094940D01*
X14925050Y-9068060D01*
X14921542Y-9041411D01*
X14914585Y-9015447D01*
X14904298Y-8990614D01*
X14890859Y-8967336D01*
X14874496Y-8946011D01*
X14855489Y-8927004D01*
X14834164Y-8910641D01*
X14810886Y-8897202D01*
X14810885Y-8897201D01*
X14810885Y-8897201D01*
X14786053Y-8886916D01*
X14786053Y-8886915D01*
X14786053Y-8886915D01*
X14760089Y-8879958D01*
X14760089Y-8879958D01*
X14760089Y-8879958D01*
X14733440Y-8876450D01*
X14733440Y-8876450D01*
X14706560Y-8876450D01*
X14706560Y-8876450D01*
X14679912Y-8879958D01*
X14679911Y-8879958D01*
X14653948Y-8886915D01*
X14653947Y-8886916D01*
X14629115Y-8897201D01*
X14605835Y-8910642D01*
X14584511Y-8927004D01*
X14565504Y-8946011D01*
X14549141Y-8967336D01*
X14535701Y-8990615D01*
X14525415Y-9015447D01*
X14525415Y-9015448D01*
X14518458Y-9041411D01*
X14518458Y-9041412D01*
X14514950Y-9068060D01*
X10779868Y-9068060D01*
X10784298Y-9060386D01*
X10794585Y-9035553D01*
X10801542Y-9009589D01*
X10805050Y-8982940D01*
X10805050Y-8956060D01*
X10801542Y-8929411D01*
X10794585Y-8903447D01*
X10784298Y-8878614D01*
X10770859Y-8855336D01*
X10754496Y-8834011D01*
X10735489Y-8815004D01*
X10727226Y-8808664D01*
X10714164Y-8798642D01*
X10707659Y-8794885D01*
X10690886Y-8785202D01*
X10690886Y-8785201D01*
X10690885Y-8785201D01*
X10666053Y-8774916D01*
X10666053Y-8774915D01*
X10666053Y-8774915D01*
X10640089Y-8767958D01*
X10640089Y-8767958D01*
X10640089Y-8767958D01*
X10613440Y-8764450D01*
X10613440Y-8764450D01*
X10586560Y-8764450D01*
X10586560Y-8764450D01*
X10559912Y-8767958D01*
X10559911Y-8767958D01*
X10533948Y-8774915D01*
X10533947Y-8774916D01*
X10509115Y-8785201D01*
X10485836Y-8798642D01*
X10464511Y-8815004D01*
X10445504Y-8834011D01*
X10429142Y-8855336D01*
X10415701Y-8878615D01*
X10405416Y-8903447D01*
X10405415Y-8903448D01*
X10398458Y-8929411D01*
X10398458Y-8929412D01*
X10395053Y-8955279D01*
X10394950Y-8956060D01*
X10210463Y-8956060D01*
X10211581Y-8931895D01*
X10211618Y-8931383D01*
X10212306Y-8924398D01*
X10212352Y-8924010D01*
X10216412Y-8894905D01*
X10216505Y-8894354D01*
X10217771Y-8887988D01*
X10217840Y-8887672D01*
X10224712Y-8858452D01*
X10224873Y-8857853D01*
X10226455Y-8852640D01*
X10226536Y-8852386D01*
X10236426Y-8822877D01*
X10236664Y-8822242D01*
X10238053Y-8818887D01*
X10238143Y-8818678D01*
X10251462Y-8788513D01*
X10251785Y-8787851D01*
X10251951Y-8787540D01*
X10252021Y-8787411D01*
X10269292Y-8756404D01*
X10269773Y-8755628D01*
X10289980Y-8726130D01*
X10290531Y-8725401D01*
X10291008Y-8724825D01*
X10313374Y-8697892D01*
X10313988Y-8697219D01*
X10339272Y-8671934D01*
X10339945Y-8671320D01*
X10367456Y-8648477D01*
X10368183Y-8647928D01*
X10397683Y-8627720D01*
X10398457Y-8627241D01*
X10429472Y-8609965D01*
X10429591Y-8609901D01*
X10429907Y-8609732D01*
X10430569Y-8609409D01*
X10460744Y-8596086D01*
X10460931Y-8596006D01*
X10464298Y-8594612D01*
X10464930Y-8594375D01*
X10494442Y-8584484D01*
X10494686Y-8584406D01*
X10499910Y-8582821D01*
X10500505Y-8582661D01*
X10529726Y-8575789D01*
X10530046Y-8575720D01*
X10536406Y-8574455D01*
X10536964Y-8574360D01*
X10566064Y-8570301D01*
X10566452Y-8570255D01*
X10573441Y-8569567D01*
X10573948Y-8569530D01*
X10599649Y-8568342D01*
X10606735Y-8568015D01*
X10607499Y-8568009D01*
X14711840Y-8695668D01*
G37*
%TD.AperFunction*%
%TD*%
M02*
