%TF.GenerationSoftware,KiCad,Pcbnew,9.0.5-9.0.5~ubuntu24.04.1*%
%TF.CreationDate,2026-04-23T15:40:08+03:00*%
%TF.ProjectId,uv39_res,75763339-5f72-4657-932e-6b696361645f,rev?*%
%TF.SameCoordinates,Original*%
%TF.FileFunction,Copper,L1,Top*%
%TF.FilePolarity,Positive*%
%FSLAX45Y45*%
G04 Gerber Fmt 4.5, Leading zero omitted, Abs format (unit mm)*
G04 Created by KiCad (PCBNEW 9.0.5-9.0.5~ubuntu24.04.1) date 2026-04-23 15:40:08*
%MOMM*%
%LPD*%
G01*
G04 APERTURE LIST*
%TA.AperFunction,ComponentPad*%
%ADD10C,3.300000*%
%TD*%
%TA.AperFunction,ComponentPad*%
%ADD11C,2.400000*%
%TD*%
%TA.AperFunction,SMDPad,CuDef*%
%ADD12R,0.762000X0.939800*%
%TD*%
%TA.AperFunction,SMDPad,CuDef*%
%ADD13R,1.300000X2.800000*%
%TD*%
%TA.AperFunction,Conductor*%
%ADD14C,0.250000*%
%TD*%
G04 APERTURE END LIST*
D10*
%TO.P,J1,3*%
%TO.N,N/C*%
X10600000Y-10910500D03*
%TO.P,J1,4*%
X10600000Y-8969500D03*
D11*
%TO.P,J1,A,1*%
%TO.N,Net-(J1-1)*%
X10600000Y-10370000D03*
%TO.P,J1,B,2*%
%TO.N,Net-(J1-2)*%
X10600000Y-9510000D03*
%TO.P,J1,C,3*%
%TO.N,GND*%
X10600000Y-9940000D03*
%TD*%
D12*
%TO.P,R6,1,R1*%
%TO.N,Net-(R6-R1)*%
X11620000Y-9520000D03*
%TO.P,R6,2,R2*%
%TO.N,Net-(R5-R1)*%
X11452360Y-9520000D03*
%TD*%
%TO.P,R3,1,R1*%
%TO.N,Net-(R3-R1)*%
X11472360Y-9160000D03*
%TO.P,R3,2,R2*%
%TO.N,Net-(R2-R1)*%
X11640000Y-9160000D03*
%TD*%
%TO.P,R13,1,R1*%
%TO.N,Net-(R13-R1)*%
X11283820Y-10200000D03*
%TO.P,R13,2,R2*%
%TO.N,Net-(R12-R1)*%
X11116180Y-10200000D03*
%TD*%
%TO.P,R5,1,R1*%
%TO.N,Net-(R5-R1)*%
X11280000Y-9520000D03*
%TO.P,R5,2,R2*%
%TO.N,Net-(R4-R1)*%
X11112360Y-9520000D03*
%TD*%
%TO.P,R11,1,R1*%
%TO.N,Net-(R11-R1)*%
X11460000Y-9860000D03*
%TO.P,R11,2,R2*%
%TO.N,Net-(R10-R1)*%
X11627640Y-9860000D03*
%TD*%
%TO.P,R9,1,R1*%
%TO.N,Net-(R10-R2)*%
X12140000Y-9860000D03*
%TO.P,R9,2,R2*%
%TO.N,Net-(R8-R1)*%
X12307640Y-9860000D03*
%TD*%
%TO.P,R10,1,R1*%
%TO.N,Net-(R10-R1)*%
X11800000Y-9860000D03*
%TO.P,R10,2,R2*%
%TO.N,Net-(R10-R2)*%
X11967640Y-9860000D03*
%TD*%
%TO.P,R4,1,R1*%
%TO.N,Net-(R4-R1)*%
X11128540Y-9160000D03*
%TO.P,R4,2,R2*%
%TO.N,Net-(R3-R1)*%
X11296180Y-9160000D03*
%TD*%
%TO.P,R8,1,R1*%
%TO.N,Net-(R8-R1)*%
X12300000Y-9520000D03*
%TO.P,R8,2,R2*%
%TO.N,Net-(R7-R1)*%
X12132360Y-9520000D03*
%TD*%
%TO.P,R12,1,R1*%
%TO.N,Net-(R12-R1)*%
X11120000Y-9860000D03*
%TO.P,R12,2,R2*%
%TO.N,Net-(R11-R1)*%
X11287640Y-9860000D03*
%TD*%
D13*
%TO.P,J3,1,1*%
%TO.N,Net-(J1-1)*%
X12800000Y-9200000D03*
%TO.P,J3,2,2*%
%TO.N,Net-(R1-R1)*%
X12800000Y-10152000D03*
%TO.P,J3,3,3*%
X13054000Y-9200000D03*
%TO.P,J3,4,4*%
%TO.N,Net-(R2-R1)*%
X13054000Y-10152000D03*
%TO.P,J3,5,5*%
X13308000Y-9200000D03*
%TO.P,J3,6,6*%
%TO.N,Net-(R4-R1)*%
X13308000Y-10152000D03*
%TO.P,J3,7,7*%
X13562000Y-9200000D03*
%TO.P,J3,8,8*%
%TO.N,Net-(R8-R1)*%
X13562000Y-10152000D03*
%TO.P,J3,9,9*%
X13816000Y-9200000D03*
%TO.P,J3,10,10*%
%TO.N,Net-(R12-R1)*%
X13816000Y-10152000D03*
%TO.P,J3,11,11*%
X14070000Y-9200000D03*
%TO.P,J3,12,12*%
%TO.N,Net-(J1-2)*%
X14070000Y-10152000D03*
%TD*%
D12*
%TO.P,R14,1,R1*%
%TO.N,Net-(J1-2)*%
X11619620Y-10200000D03*
%TO.P,R14,2,R2*%
%TO.N,Net-(R13-R1)*%
X11451980Y-10200000D03*
%TD*%
D11*
%TO.P,J2,1,1*%
%TO.N,Net-(J1-2)*%
X14720000Y-10210000D03*
%TO.P,J2,2,2*%
%TO.N,GND*%
X14720000Y-9670000D03*
D10*
%TO.P,J2,3*%
%TO.N,N/C*%
X14720000Y-9081500D03*
%TO.P,J2,4*%
X14720000Y-10798500D03*
%TD*%
D12*
%TO.P,R7,1,R1*%
%TO.N,Net-(R7-R1)*%
X11960000Y-9520000D03*
%TO.P,R7,2,R2*%
%TO.N,Net-(R6-R1)*%
X11792360Y-9520000D03*
%TD*%
%TO.P,R1,1,R1*%
%TO.N,Net-(R1-R1)*%
X12148540Y-9160000D03*
%TO.P,R1,2,R2*%
%TO.N,Net-(J1-1)*%
X12316180Y-9160000D03*
%TD*%
%TO.P,R2,1,R1*%
%TO.N,Net-(R2-R1)*%
X11808540Y-9160000D03*
%TO.P,R2,2,R2*%
%TO.N,Net-(R1-R1)*%
X11976180Y-9160000D03*
%TD*%
D14*
%TO.N,Net-(J1-2)*%
X11619620Y-10414500D02*
X11265000Y-10414500D01*
X11265000Y-10414500D02*
X11119500Y-10560000D01*
X11119500Y-10560000D02*
X10525000Y-10560000D01*
X10525000Y-10560000D02*
X10300000Y-10335000D01*
X10300000Y-9660000D02*
X10450000Y-9510000D01*
X10300000Y-10335000D02*
X10300000Y-9660000D01*
X10450000Y-9510000D02*
X10600000Y-9510000D01*
%TO.N,Net-(J1-1)*%
X11100000Y-9680000D02*
X11045000Y-9680000D01*
X11045000Y-9925000D02*
X11045000Y-9680000D01*
X10600000Y-10370000D02*
X11045000Y-9925000D01*
X12316180Y-9151110D02*
X12316180Y-9160000D01*
X12800000Y-9125000D02*
X12710000Y-9035000D01*
X11209400Y-9570600D02*
X11100000Y-9680000D01*
X11320000Y-9340000D02*
X11209400Y-9450600D01*
X12316180Y-9160000D02*
X12136180Y-9340000D01*
X12710000Y-9035000D02*
X12432290Y-9035000D01*
X11209400Y-9450600D02*
X11209400Y-9570600D01*
X12136180Y-9340000D02*
X11320000Y-9340000D01*
X12800000Y-9200000D02*
X12800000Y-9125000D01*
X12432290Y-9035000D02*
X12316180Y-9151110D01*
%TO.N,Net-(J1-2)*%
X14440000Y-9860000D02*
X14120000Y-9860000D01*
X13886500Y-10414500D02*
X11619620Y-10414500D01*
X14070000Y-10231000D02*
X13886500Y-10414500D01*
X14070000Y-9910000D02*
X14070000Y-10152000D01*
X11619620Y-10414500D02*
X11619620Y-10200000D01*
X14120000Y-9860000D02*
X14070000Y-9910000D01*
X14070000Y-10152000D02*
X14070000Y-10231000D01*
X14720000Y-10140000D02*
X14440000Y-9860000D01*
X14720000Y-10210000D02*
X14720000Y-10140000D01*
%TO.N,Net-(R1-R1)*%
X12800000Y-9800000D02*
X13054000Y-9546000D01*
X12927000Y-8990000D02*
X12309650Y-8990000D01*
X12309650Y-8990000D02*
X12148540Y-9151110D01*
X12800000Y-10152000D02*
X12800000Y-9800000D01*
X13054000Y-9117000D02*
X12927000Y-8990000D01*
X12148540Y-9151110D02*
X12148540Y-9160000D01*
X13054000Y-9546000D02*
X13054000Y-9200000D01*
X12148540Y-9160000D02*
X11976180Y-9160000D01*
X13054000Y-9200000D02*
X13054000Y-9117000D01*
%TO.N,Net-(R2-R1)*%
X13308000Y-9200000D02*
X13308000Y-9104000D01*
X13308000Y-9532000D02*
X13308000Y-9200000D01*
X12014650Y-8945000D02*
X11808540Y-9151110D01*
X11808540Y-9160000D02*
X11640000Y-9160000D01*
X13054000Y-10152000D02*
X13054000Y-9786000D01*
X13054000Y-9786000D02*
X13308000Y-9532000D01*
X13308000Y-9104000D02*
X13149000Y-8945000D01*
X11808540Y-9151110D02*
X11808540Y-9160000D01*
X13149000Y-8945000D02*
X12014650Y-8945000D01*
%TO.N,Net-(R4-R1)*%
X11406090Y-8900000D02*
X11146090Y-9160000D01*
X11146090Y-9160000D02*
X11128540Y-9160000D01*
X13340000Y-8900000D02*
X11406090Y-8900000D01*
X13562000Y-9598000D02*
X13562000Y-9200000D01*
X11128540Y-9503820D02*
X11112360Y-9520000D01*
X13562000Y-9122000D02*
X13340000Y-8900000D01*
X13308000Y-10152000D02*
X13308000Y-9852000D01*
X13308000Y-9852000D02*
X13562000Y-9598000D01*
X13562000Y-9200000D02*
X13562000Y-9122000D01*
X11128540Y-9160000D02*
X11128540Y-9503820D01*
%TO.N,Net-(R8-R1)*%
X13562000Y-9838000D02*
X13816000Y-9584000D01*
X13462500Y-10324500D02*
X12664500Y-10324500D01*
X13562000Y-10225000D02*
X13462500Y-10324500D01*
X12664500Y-10324500D02*
X12307640Y-9967640D01*
X13816000Y-9584000D02*
X13816000Y-9200000D01*
X12307640Y-9967640D02*
X12307640Y-9860000D01*
X13562000Y-10152000D02*
X13562000Y-10225000D01*
X12300000Y-9520000D02*
X12300000Y-9852360D01*
X13562000Y-10152000D02*
X13562000Y-9838000D01*
X12300000Y-9852360D02*
X12307640Y-9860000D01*
%TO.N,Net-(R12-R1)*%
X11120000Y-10196180D02*
X11116180Y-10200000D01*
X13816000Y-10152000D02*
X13816000Y-10224000D01*
X13816000Y-10224000D02*
X13670500Y-10369500D01*
X14070000Y-9550000D02*
X14070000Y-9200000D01*
X11720000Y-10020000D02*
X11120000Y-10020000D01*
X12069500Y-10369500D02*
X11720000Y-10020000D01*
X13670500Y-10369500D02*
X12069500Y-10369500D01*
X13816000Y-9804000D02*
X14070000Y-9550000D01*
X11120000Y-10020000D02*
X11120000Y-10196180D01*
X11120000Y-9860000D02*
X11120000Y-10020000D01*
X13816000Y-10152000D02*
X13816000Y-9804000D01*
%TO.N,Net-(R3-R1)*%
X11472360Y-9160000D02*
X11296180Y-9160000D01*
%TO.N,Net-(R5-R1)*%
X11280000Y-9520000D02*
X11452360Y-9520000D01*
%TO.N,Net-(R6-R1)*%
X11620000Y-9520000D02*
X11792360Y-9520000D01*
%TO.N,Net-(R7-R1)*%
X11960000Y-9520000D02*
X12132360Y-9520000D01*
%TO.N,Net-(R10-R2)*%
X12140000Y-9860000D02*
X11967640Y-9860000D01*
%TO.N,Net-(R10-R1)*%
X11800000Y-9860000D02*
X11627640Y-9860000D01*
%TO.N,Net-(R11-R1)*%
X11460000Y-9860000D02*
X11287640Y-9860000D01*
%TO.N,Net-(R13-R1)*%
X11283820Y-10200000D02*
X11451980Y-10200000D01*
%TD*%
%TA.AperFunction,Conductor*%
%TO.N,GND*%
G36*
X14711920Y-8695671D02*
G01*
X14715883Y-8695797D01*
X14715891Y-8695800D01*
X14716054Y-8695804D01*
X14749537Y-8697449D01*
X14750078Y-8697490D01*
X14757993Y-8698322D01*
X14758401Y-8698374D01*
X14787604Y-8702706D01*
X14788204Y-8702814D01*
X14795405Y-8704345D01*
X14795738Y-8704422D01*
X14825046Y-8711763D01*
X14825698Y-8711950D01*
X14831591Y-8713865D01*
X14831854Y-8713955D01*
X14861461Y-8724549D01*
X14862151Y-8724825D01*
X14865874Y-8726483D01*
X14866077Y-8726576D01*
X14896454Y-8740943D01*
X14897309Y-8741400D01*
X14921045Y-8755627D01*
X14928809Y-8760281D01*
X14929617Y-8760821D01*
X14948622Y-8774916D01*
X14959115Y-8782698D01*
X14959866Y-8783314D01*
X14987077Y-8807978D01*
X14987764Y-8808664D01*
X15012426Y-8835875D01*
X15013043Y-8836626D01*
X15034920Y-8866124D01*
X15035460Y-8866932D01*
X15054340Y-8898432D01*
X15054798Y-8899288D01*
X15069164Y-8929664D01*
X15069259Y-8929870D01*
X15070915Y-8933589D01*
X15071192Y-8934281D01*
X15081784Y-8963883D01*
X15081878Y-8964159D01*
X15083789Y-8970042D01*
X15083977Y-8970695D01*
X15091317Y-8999997D01*
X15091397Y-9000344D01*
X15092925Y-9007534D01*
X15093035Y-9008139D01*
X15097365Y-9037336D01*
X15097418Y-9037753D01*
X15098249Y-9045659D01*
X15098292Y-9046208D01*
X15098991Y-9060449D01*
X15099746Y-9075819D01*
X15099938Y-9079720D01*
X15099950Y-9080206D01*
X15099950Y-10803785D01*
X15099938Y-10804270D01*
X15098272Y-10838185D01*
X15098230Y-10838734D01*
X15097436Y-10846285D01*
X15097383Y-10846702D01*
X15092961Y-10876517D01*
X15092852Y-10877122D01*
X15091402Y-10883940D01*
X15091322Y-10884288D01*
X15083824Y-10914222D01*
X15083636Y-10914875D01*
X15081859Y-10920345D01*
X15081765Y-10920621D01*
X15070933Y-10950893D01*
X15070656Y-10951585D01*
X15069220Y-10954810D01*
X15069125Y-10955016D01*
X15054461Y-10986021D01*
X15054003Y-10986878D01*
X15034978Y-11018619D01*
X15034438Y-11019427D01*
X15012395Y-11049150D01*
X15011778Y-11049901D01*
X14986925Y-11077321D01*
X14986238Y-11078008D01*
X14958820Y-11102859D01*
X14958069Y-11103476D01*
X14928344Y-11125521D01*
X14927536Y-11126060D01*
X14895795Y-11145085D01*
X14894938Y-11145543D01*
X14863936Y-11160206D01*
X14863730Y-11160300D01*
X14860502Y-11161737D01*
X14859810Y-11162015D01*
X14829538Y-11172846D01*
X14829262Y-11172940D01*
X14823792Y-11174717D01*
X14823139Y-11174905D01*
X14793205Y-11182403D01*
X14792857Y-11182483D01*
X14786040Y-11183932D01*
X14785434Y-11184041D01*
X14755620Y-11188463D01*
X14755202Y-11188516D01*
X14747651Y-11189310D01*
X14747102Y-11189352D01*
X14721982Y-11190586D01*
X14713123Y-11191021D01*
X14712940Y-11191028D01*
X14708981Y-11191147D01*
X14708971Y-11191147D01*
X14708969Y-11191146D01*
X14708960Y-11191147D01*
X10604559Y-11309128D01*
X10603817Y-11309121D01*
X10571527Y-11307628D01*
X10571014Y-11307591D01*
X10563629Y-11306864D01*
X10563231Y-11306816D01*
X10534788Y-11302849D01*
X10534224Y-11302753D01*
X10527448Y-11301405D01*
X10527112Y-11301333D01*
X10498578Y-11294621D01*
X10497970Y-11294458D01*
X10492303Y-11292739D01*
X10492031Y-11292652D01*
X10463239Y-11283002D01*
X10462597Y-11282761D01*
X10458717Y-11281154D01*
X10458507Y-11281064D01*
X10447109Y-11276032D01*
X10429109Y-11268084D01*
X10428442Y-11267759D01*
X10427496Y-11267253D01*
X10427345Y-11267171D01*
X10397102Y-11250325D01*
X10396324Y-11249844D01*
X10367045Y-11229787D01*
X10366315Y-11229236D01*
X10339012Y-11206563D01*
X10338336Y-11205947D01*
X10313241Y-11180853D01*
X10312625Y-11180177D01*
X10289953Y-11152873D01*
X10289402Y-11152143D01*
X10284880Y-11145543D01*
X10269345Y-11122864D01*
X10268864Y-11122087D01*
X10252018Y-11091843D01*
X10251936Y-11091693D01*
X10251904Y-11091633D01*
X10251430Y-11090746D01*
X10251106Y-11090080D01*
X10238121Y-11060673D01*
X10238036Y-11060474D01*
X10236427Y-11056589D01*
X10236188Y-11055951D01*
X10226536Y-11027154D01*
X10226452Y-11026890D01*
X10224731Y-11021216D01*
X10224569Y-11020614D01*
X10217856Y-10992072D01*
X10217785Y-10991746D01*
X10216436Y-10984961D01*
X10216341Y-10984402D01*
X10212373Y-10955955D01*
X10212327Y-10955565D01*
X10211598Y-10948171D01*
X10211562Y-10947663D01*
X10210061Y-10915197D01*
X10210050Y-10914739D01*
X10210050Y-10897060D01*
X10394950Y-10897060D01*
X10394950Y-10923940D01*
X10398458Y-10950588D01*
X10398458Y-10950589D01*
X10405415Y-10976552D01*
X10405416Y-10976553D01*
X10415701Y-11001385D01*
X10415701Y-11001386D01*
X10415702Y-11001386D01*
X10428100Y-11022861D01*
X10429142Y-11024664D01*
X10436999Y-11034904D01*
X10445504Y-11045989D01*
X10464511Y-11064996D01*
X10485836Y-11081359D01*
X10509114Y-11094798D01*
X10533947Y-11105085D01*
X10559911Y-11112042D01*
X10586560Y-11115550D01*
X10586560Y-11115550D01*
X10613440Y-11115550D01*
X10613440Y-11115550D01*
X10640089Y-11112042D01*
X10666053Y-11105085D01*
X10690886Y-11094798D01*
X10714164Y-11081359D01*
X10735489Y-11064996D01*
X10754496Y-11045989D01*
X10770859Y-11024664D01*
X10784298Y-11001386D01*
X10794585Y-10976553D01*
X10801542Y-10950589D01*
X10805050Y-10923940D01*
X10805050Y-10897060D01*
X10801542Y-10870411D01*
X10794585Y-10844447D01*
X10784298Y-10819614D01*
X10770859Y-10796336D01*
X10762207Y-10785060D01*
X14514950Y-10785060D01*
X14514950Y-10811940D01*
X14518458Y-10838588D01*
X14518458Y-10838589D01*
X14525415Y-10864552D01*
X14525415Y-10864553D01*
X14535701Y-10889385D01*
X14535701Y-10889386D01*
X14535702Y-10889386D01*
X14549141Y-10912664D01*
X14549141Y-10912664D01*
X14557793Y-10923940D01*
X14565504Y-10933989D01*
X14584511Y-10952996D01*
X14605836Y-10969359D01*
X14629114Y-10982798D01*
X14653947Y-10993085D01*
X14679911Y-11000042D01*
X14706560Y-11003550D01*
X14706560Y-11003550D01*
X14733440Y-11003550D01*
X14733440Y-11003550D01*
X14760089Y-11000042D01*
X14786053Y-10993085D01*
X14810886Y-10982798D01*
X14834164Y-10969359D01*
X14855489Y-10952996D01*
X14874496Y-10933989D01*
X14890859Y-10912664D01*
X14904298Y-10889386D01*
X14914585Y-10864553D01*
X14921542Y-10838589D01*
X14925050Y-10811940D01*
X14925050Y-10785060D01*
X14921542Y-10758411D01*
X14914585Y-10732447D01*
X14904298Y-10707614D01*
X14890859Y-10684336D01*
X14874496Y-10663011D01*
X14855489Y-10644004D01*
X14834164Y-10627641D01*
X14810886Y-10614202D01*
X14810885Y-10614201D01*
X14810885Y-10614201D01*
X14786053Y-10603916D01*
X14786053Y-10603915D01*
X14786053Y-10603915D01*
X14760089Y-10596958D01*
X14760089Y-10596958D01*
X14760089Y-10596958D01*
X14733440Y-10593450D01*
X14733440Y-10593450D01*
X14706560Y-10593450D01*
X14706560Y-10593450D01*
X14679912Y-10596958D01*
X14679911Y-10596958D01*
X14653948Y-10603915D01*
X14653947Y-10603916D01*
X14629115Y-10614201D01*
X14605835Y-10627642D01*
X14584511Y-10644004D01*
X14565504Y-10663011D01*
X14549141Y-10684336D01*
X14535701Y-10707615D01*
X14525415Y-10732447D01*
X14525415Y-10732448D01*
X14518458Y-10758411D01*
X14518458Y-10758412D01*
X14514950Y-10785060D01*
X10762207Y-10785060D01*
X10754496Y-10775011D01*
X10735489Y-10756004D01*
X10714164Y-10739641D01*
X10690886Y-10726202D01*
X10690886Y-10726201D01*
X10690885Y-10726201D01*
X10666053Y-10715916D01*
X10666053Y-10715915D01*
X10666053Y-10715915D01*
X10640089Y-10708958D01*
X10640089Y-10708958D01*
X10640089Y-10708958D01*
X10613440Y-10705450D01*
X10613440Y-10705450D01*
X10586560Y-10705450D01*
X10586560Y-10705450D01*
X10559912Y-10708958D01*
X10559911Y-10708958D01*
X10533948Y-10715915D01*
X10533947Y-10715916D01*
X10509115Y-10726201D01*
X10485836Y-10739642D01*
X10464511Y-10756004D01*
X10445504Y-10775011D01*
X10429142Y-10796336D01*
X10415701Y-10819615D01*
X10405416Y-10844447D01*
X10405415Y-10844448D01*
X10398458Y-10870411D01*
X10398458Y-10870412D01*
X10394950Y-10897060D01*
X10210050Y-10897060D01*
X10210050Y-9653081D01*
X10247450Y-9653081D01*
X10247450Y-9667716D01*
X10247450Y-9667717D01*
X10247450Y-10327474D01*
X10247450Y-10327476D01*
X10247450Y-10341919D01*
X10249405Y-10349216D01*
X10249405Y-10349216D01*
X10251031Y-10355283D01*
X10251031Y-10355284D01*
X10251031Y-10355284D01*
X10257950Y-10367267D01*
X10267734Y-10377051D01*
X10267734Y-10377051D01*
X10492734Y-10602051D01*
X10492734Y-10602051D01*
X10492734Y-10602051D01*
X10504716Y-10608969D01*
X10504716Y-10608969D01*
X10504716Y-10608969D01*
X10504717Y-10608969D01*
X10518082Y-10612550D01*
X10518082Y-10612550D01*
X10532525Y-10612550D01*
X10532526Y-10612550D01*
X11111974Y-10612550D01*
X11111975Y-10612550D01*
X11112582Y-10612550D01*
X11126418Y-10612550D01*
X11136959Y-10609726D01*
X11139784Y-10608969D01*
X11151767Y-10602051D01*
X11161551Y-10592267D01*
X11161551Y-10592266D01*
X11162366Y-10591451D01*
X11162366Y-10591451D01*
X11283867Y-10469950D01*
X11289319Y-10467172D01*
X11290868Y-10467050D01*
X11612702Y-10467050D01*
X11626538Y-10467050D01*
X13878974Y-10467050D01*
X13878975Y-10467050D01*
X13879582Y-10467050D01*
X13893418Y-10467050D01*
X13903959Y-10464226D01*
X13906784Y-10463469D01*
X13918766Y-10456551D01*
X13928550Y-10446767D01*
X13928551Y-10446766D01*
X14040367Y-10334950D01*
X14045819Y-10332172D01*
X14047368Y-10332050D01*
X14138152Y-10332050D01*
X14138152Y-10332050D01*
X14142841Y-10331307D01*
X14147530Y-10330565D01*
X14147530Y-10330565D01*
X14147530Y-10330565D01*
X14158834Y-10324805D01*
X14167805Y-10315834D01*
X14173565Y-10304530D01*
X14175050Y-10295152D01*
X14175050Y-10008848D01*
X14175050Y-10008848D01*
X14175050Y-10008848D01*
X14175050Y-10008848D01*
X14173565Y-9999470D01*
X14173565Y-9999470D01*
X14173565Y-9999470D01*
X14167805Y-9988166D01*
X14158834Y-9979195D01*
X14147530Y-9973435D01*
X14147530Y-9973435D01*
X14138152Y-9971950D01*
X14138152Y-9971950D01*
X14132450Y-9971950D01*
X14126631Y-9970059D01*
X14123034Y-9965109D01*
X14122550Y-9962050D01*
X14122550Y-9935868D01*
X14122797Y-9935108D01*
X14122672Y-9934319D01*
X14123724Y-9932254D01*
X14124441Y-9930049D01*
X14125450Y-9928867D01*
X14138867Y-9915450D01*
X14144319Y-9912672D01*
X14145868Y-9912550D01*
X14414132Y-9912550D01*
X14419951Y-9914441D01*
X14421133Y-9915450D01*
X14597669Y-10091986D01*
X14600446Y-10097437D01*
X14599489Y-10103481D01*
X14598109Y-10105384D01*
X14598173Y-10105439D01*
X14597921Y-10105734D01*
X14597921Y-10105734D01*
X14597921Y-10105734D01*
X14591592Y-10114445D01*
X14583113Y-10126116D01*
X14571676Y-10148562D01*
X14563891Y-10172522D01*
X14559950Y-10197403D01*
X14559950Y-10222597D01*
X14563891Y-10247478D01*
X14571676Y-10271438D01*
X14581903Y-10291510D01*
X14583113Y-10293885D01*
X14597921Y-10314266D01*
X14615734Y-10332079D01*
X14636115Y-10346887D01*
X14658562Y-10358324D01*
X14682521Y-10366109D01*
X14682522Y-10366109D01*
X14682522Y-10366109D01*
X14707403Y-10370050D01*
X14707404Y-10370050D01*
X14732596Y-10370050D01*
X14757478Y-10366109D01*
X14757478Y-10366109D01*
X14757478Y-10366109D01*
X14781438Y-10358324D01*
X14803884Y-10346887D01*
X14824266Y-10332079D01*
X14842079Y-10314266D01*
X14856887Y-10293885D01*
X14868324Y-10271438D01*
X14876109Y-10247479D01*
X14878384Y-10233113D01*
X14880050Y-10222597D01*
X14880050Y-10197403D01*
X14876109Y-10172522D01*
X14868745Y-10149858D01*
X14868324Y-10148562D01*
X14856887Y-10126116D01*
X14842079Y-10105734D01*
X14824266Y-10087921D01*
X14803884Y-10073113D01*
X14803884Y-10073113D01*
X14803884Y-10073113D01*
X14781438Y-10061676D01*
X14757478Y-10053891D01*
X14732596Y-10049950D01*
X14732596Y-10049950D01*
X14708368Y-10049950D01*
X14702549Y-10048059D01*
X14701367Y-10047050D01*
X14482051Y-9827734D01*
X14482050Y-9827734D01*
X14472266Y-9817950D01*
X14472266Y-9817949D01*
X14460284Y-9811031D01*
X14460284Y-9811031D01*
X14458805Y-9810635D01*
X14457459Y-9810274D01*
X14446918Y-9807450D01*
X14433082Y-9807450D01*
X14432475Y-9807450D01*
X14432474Y-9807450D01*
X14127526Y-9807450D01*
X14127525Y-9807450D01*
X14126918Y-9807450D01*
X14113082Y-9807450D01*
X14104902Y-9809642D01*
X14099716Y-9811031D01*
X14087733Y-9817949D01*
X14037169Y-9868514D01*
X14037169Y-9868514D01*
X14037169Y-9868514D01*
X14037169Y-9868514D01*
X14027950Y-9877733D01*
X14027949Y-9877733D01*
X14027949Y-9877734D01*
X14021031Y-9889716D01*
X14021031Y-9889717D01*
X14021031Y-9889717D01*
X14020694Y-9890976D01*
X14020694Y-9890976D01*
X14017450Y-9903081D01*
X14017450Y-9917716D01*
X14017450Y-9917717D01*
X14017450Y-9962050D01*
X14015559Y-9967869D01*
X14010609Y-9971466D01*
X14007550Y-9971950D01*
X14001848Y-9971950D01*
X14001848Y-9971950D01*
X13992470Y-9973435D01*
X13992469Y-9973435D01*
X13981166Y-9979195D01*
X13972195Y-9988166D01*
X13966435Y-9999470D01*
X13964950Y-10008848D01*
X13964950Y-10257632D01*
X13963059Y-10263451D01*
X13962050Y-10264633D01*
X13937950Y-10288733D01*
X13932499Y-10291510D01*
X13926455Y-10290553D01*
X13922129Y-10286227D01*
X13921050Y-10281733D01*
X13921050Y-10008848D01*
X13921050Y-10008848D01*
X13921050Y-10008848D01*
X13921050Y-10008848D01*
X13919565Y-9999470D01*
X13919565Y-9999470D01*
X13919565Y-9999470D01*
X13913805Y-9988166D01*
X13904834Y-9979195D01*
X13893530Y-9973435D01*
X13893530Y-9973435D01*
X13884152Y-9971950D01*
X13884152Y-9971950D01*
X13878450Y-9971950D01*
X13872631Y-9970059D01*
X13869034Y-9965109D01*
X13868550Y-9962050D01*
X13868550Y-9829868D01*
X13870441Y-9824049D01*
X13871449Y-9822868D01*
X14035459Y-9658857D01*
X14550000Y-9658857D01*
X14550000Y-9681143D01*
X14552909Y-9703237D01*
X14558676Y-9724762D01*
X14567204Y-9745350D01*
X14578347Y-9764650D01*
X14591079Y-9781243D01*
X14651637Y-9720684D01*
X14653976Y-9724184D01*
X14665816Y-9736024D01*
X14669315Y-9738362D01*
X14608757Y-9798921D01*
X14625350Y-9811653D01*
X14644650Y-9822796D01*
X14665238Y-9831324D01*
X14686763Y-9837091D01*
X14708857Y-9840000D01*
X14708858Y-9840000D01*
X14731142Y-9840000D01*
X14731142Y-9840000D01*
X14753236Y-9837091D01*
X14774762Y-9831324D01*
X14795350Y-9822796D01*
X14814649Y-9811653D01*
X14831243Y-9798921D01*
X14770684Y-9738362D01*
X14774184Y-9736024D01*
X14786024Y-9724184D01*
X14788362Y-9720685D01*
X14848921Y-9781243D01*
X14861653Y-9764650D01*
X14872796Y-9745350D01*
X14881324Y-9724762D01*
X14887091Y-9703237D01*
X14890000Y-9681143D01*
X14890000Y-9681142D01*
X14890000Y-9658858D01*
X14890000Y-9658857D01*
X14887091Y-9636763D01*
X14881324Y-9615238D01*
X14872796Y-9594650D01*
X14861653Y-9575350D01*
X14848920Y-9558757D01*
X14788362Y-9619315D01*
X14786024Y-9615816D01*
X14774184Y-9603976D01*
X14770684Y-9601638D01*
X14831243Y-9541079D01*
X14814650Y-9528347D01*
X14795350Y-9517204D01*
X14774762Y-9508676D01*
X14753236Y-9502909D01*
X14731142Y-9500000D01*
X14708857Y-9500000D01*
X14686763Y-9502909D01*
X14665238Y-9508676D01*
X14644650Y-9517204D01*
X14625350Y-9528347D01*
X14608757Y-9541079D01*
X14669315Y-9601638D01*
X14665816Y-9603976D01*
X14653976Y-9615816D01*
X14651638Y-9619315D01*
X14591079Y-9558757D01*
X14578347Y-9575350D01*
X14567204Y-9594650D01*
X14558676Y-9615238D01*
X14552909Y-9636763D01*
X14550000Y-9658857D01*
X14035459Y-9658857D01*
X14102266Y-9592051D01*
X14102266Y-9592051D01*
X14112050Y-9582267D01*
X14118969Y-9570284D01*
X14122550Y-9556918D01*
X14122550Y-9389950D01*
X14124441Y-9384131D01*
X14129391Y-9380534D01*
X14132450Y-9380050D01*
X14138152Y-9380050D01*
X14138152Y-9380050D01*
X14142841Y-9379307D01*
X14147530Y-9378565D01*
X14147530Y-9378565D01*
X14147530Y-9378565D01*
X14158834Y-9372805D01*
X14167805Y-9363834D01*
X14173565Y-9352530D01*
X14175050Y-9343152D01*
X14175050Y-9068060D01*
X14514950Y-9068060D01*
X14514950Y-9094940D01*
X14518458Y-9121588D01*
X14518458Y-9121589D01*
X14525415Y-9147552D01*
X14525415Y-9147553D01*
X14535701Y-9172385D01*
X14535701Y-9172386D01*
X14535702Y-9172386D01*
X14549141Y-9195664D01*
X14549141Y-9195664D01*
X14562450Y-9213009D01*
X14565504Y-9216989D01*
X14584511Y-9235996D01*
X14605836Y-9252359D01*
X14629114Y-9265798D01*
X14653947Y-9276085D01*
X14679911Y-9283042D01*
X14706560Y-9286550D01*
X14706560Y-9286550D01*
X14733440Y-9286550D01*
X14733440Y-9286550D01*
X14760089Y-9283042D01*
X14786053Y-9276085D01*
X14810886Y-9265798D01*
X14834164Y-9252359D01*
X14855489Y-9235996D01*
X14874496Y-9216989D01*
X14890859Y-9195664D01*
X14904298Y-9172386D01*
X14914585Y-9147553D01*
X14921542Y-9121589D01*
X14925050Y-9094940D01*
X14925050Y-9068060D01*
X14921542Y-9041411D01*
X14914585Y-9015447D01*
X14904298Y-8990614D01*
X14890859Y-8967336D01*
X14874496Y-8946011D01*
X14855489Y-8927004D01*
X14834164Y-8910641D01*
X14810886Y-8897202D01*
X14810885Y-8897201D01*
X14810885Y-8897201D01*
X14786053Y-8886916D01*
X14786053Y-8886915D01*
X14786053Y-8886915D01*
X14760089Y-8879958D01*
X14760089Y-8879958D01*
X14760089Y-8879958D01*
X14733440Y-8876450D01*
X14733440Y-8876450D01*
X14706560Y-8876450D01*
X14706560Y-8876450D01*
X14679912Y-8879958D01*
X14679911Y-8879958D01*
X14653948Y-8886915D01*
X14653947Y-8886916D01*
X14629115Y-8897201D01*
X14605835Y-8910642D01*
X14584511Y-8927004D01*
X14565504Y-8946011D01*
X14549141Y-8967336D01*
X14535701Y-8990615D01*
X14525415Y-9015447D01*
X14525415Y-9015448D01*
X14518458Y-9041411D01*
X14518458Y-9041412D01*
X14514950Y-9068060D01*
X14175050Y-9068060D01*
X14175050Y-9056848D01*
X14175050Y-9056848D01*
X14175050Y-9056848D01*
X14175050Y-9056848D01*
X14173565Y-9047470D01*
X14173565Y-9047470D01*
X14173565Y-9047470D01*
X14167805Y-9036166D01*
X14158834Y-9027195D01*
X14147530Y-9021435D01*
X14147530Y-9021435D01*
X14138152Y-9019950D01*
X14001848Y-9019950D01*
X14001848Y-9019950D01*
X13992470Y-9021435D01*
X13992469Y-9021435D01*
X13981166Y-9027195D01*
X13972195Y-9036166D01*
X13966435Y-9047470D01*
X13964950Y-9056848D01*
X13964950Y-9343152D01*
X13964950Y-9343152D01*
X13966435Y-9352530D01*
X13966435Y-9352530D01*
X13972195Y-9363834D01*
X13981166Y-9372805D01*
X13992470Y-9378565D01*
X14001848Y-9380050D01*
X14007550Y-9380050D01*
X14013369Y-9381941D01*
X14016965Y-9386891D01*
X14017450Y-9389950D01*
X14017450Y-9524132D01*
X14015559Y-9529951D01*
X14014550Y-9531133D01*
X13783733Y-9761950D01*
X13783733Y-9761949D01*
X13773950Y-9771733D01*
X13773949Y-9771733D01*
X13773949Y-9771734D01*
X13767031Y-9783716D01*
X13767031Y-9783717D01*
X13767031Y-9783717D01*
X13766694Y-9784976D01*
X13766694Y-9784976D01*
X13763450Y-9797081D01*
X13763450Y-9811716D01*
X13763450Y-9811717D01*
X13763450Y-9962050D01*
X13761559Y-9967869D01*
X13756609Y-9971466D01*
X13753550Y-9971950D01*
X13747848Y-9971950D01*
X13747848Y-9971950D01*
X13738470Y-9973435D01*
X13738469Y-9973435D01*
X13727166Y-9979195D01*
X13718195Y-9988166D01*
X13712435Y-9999470D01*
X13710950Y-10008848D01*
X13710950Y-10250632D01*
X13709059Y-10256451D01*
X13708050Y-10257633D01*
X13683950Y-10281733D01*
X13678499Y-10284510D01*
X13672455Y-10283553D01*
X13668129Y-10279227D01*
X13667050Y-10274732D01*
X13667050Y-10008848D01*
X13667050Y-10008848D01*
X13667050Y-10008848D01*
X13667050Y-10008848D01*
X13665565Y-9999470D01*
X13665565Y-9999470D01*
X13665565Y-9999470D01*
X13659805Y-9988166D01*
X13650834Y-9979195D01*
X13639530Y-9973435D01*
X13639530Y-9973435D01*
X13630152Y-9971950D01*
X13630152Y-9971950D01*
X13624450Y-9971950D01*
X13618631Y-9970059D01*
X13615034Y-9965109D01*
X13614550Y-9962050D01*
X13614550Y-9863868D01*
X13616441Y-9858049D01*
X13617449Y-9856868D01*
X13848266Y-9626051D01*
X13848266Y-9626051D01*
X13858050Y-9616267D01*
X13864969Y-9604284D01*
X13867755Y-9593885D01*
X13868550Y-9590918D01*
X13868550Y-9577082D01*
X13868550Y-9389950D01*
X13870441Y-9384131D01*
X13875391Y-9380534D01*
X13878450Y-9380050D01*
X13884152Y-9380050D01*
X13884152Y-9380050D01*
X13888841Y-9379307D01*
X13893530Y-9378565D01*
X13893530Y-9378565D01*
X13893530Y-9378565D01*
X13904834Y-9372805D01*
X13913805Y-9363834D01*
X13919565Y-9352530D01*
X13921050Y-9343152D01*
X13921050Y-9056848D01*
X13921050Y-9056848D01*
X13921050Y-9056848D01*
X13921050Y-9056848D01*
X13919565Y-9047470D01*
X13919565Y-9047470D01*
X13919565Y-9047470D01*
X13913805Y-9036166D01*
X13904834Y-9027195D01*
X13893530Y-9021435D01*
X13893530Y-9021435D01*
X13884152Y-9019950D01*
X13747848Y-9019950D01*
X13747848Y-9019950D01*
X13738470Y-9021435D01*
X13738469Y-9021435D01*
X13727166Y-9027195D01*
X13718195Y-9036166D01*
X13712435Y-9047470D01*
X13710950Y-9056848D01*
X13710950Y-9343152D01*
X13710950Y-9343152D01*
X13712435Y-9352530D01*
X13712435Y-9352530D01*
X13718195Y-9363834D01*
X13727166Y-9372805D01*
X13738470Y-9378565D01*
X13747848Y-9380050D01*
X13753550Y-9380050D01*
X13759369Y-9381941D01*
X13762965Y-9386891D01*
X13763450Y-9389950D01*
X13763450Y-9558132D01*
X13761559Y-9563951D01*
X13760550Y-9565133D01*
X13529733Y-9795950D01*
X13529733Y-9795949D01*
X13519950Y-9805733D01*
X13519949Y-9805733D01*
X13519949Y-9805734D01*
X13518958Y-9807450D01*
X13513031Y-9817717D01*
X13512985Y-9817887D01*
X13512969Y-9817950D01*
X13510347Y-9827734D01*
X13509450Y-9831082D01*
X13509450Y-9845716D01*
X13509450Y-9845717D01*
X13509450Y-9962050D01*
X13507559Y-9967869D01*
X13502609Y-9971466D01*
X13499550Y-9971950D01*
X13493848Y-9971950D01*
X13493848Y-9971950D01*
X13484470Y-9973435D01*
X13484469Y-9973435D01*
X13473166Y-9979195D01*
X13464195Y-9988166D01*
X13458435Y-9999470D01*
X13456950Y-10008848D01*
X13456950Y-10251632D01*
X13456703Y-10252392D01*
X13456828Y-10253181D01*
X13455776Y-10255246D01*
X13455059Y-10257451D01*
X13454050Y-10258633D01*
X13443633Y-10269050D01*
X13438181Y-10271828D01*
X13436632Y-10271950D01*
X13422950Y-10271950D01*
X13417131Y-10270059D01*
X13413534Y-10265109D01*
X13413050Y-10262050D01*
X13413050Y-10008848D01*
X13413050Y-10008848D01*
X13411565Y-9999470D01*
X13411565Y-9999470D01*
X13411565Y-9999470D01*
X13405805Y-9988166D01*
X13396834Y-9979195D01*
X13385530Y-9973435D01*
X13385530Y-9973435D01*
X13376152Y-9971950D01*
X13376152Y-9971950D01*
X13370450Y-9971950D01*
X13364631Y-9970059D01*
X13361034Y-9965109D01*
X13360550Y-9962050D01*
X13360550Y-9877868D01*
X13362441Y-9872049D01*
X13363449Y-9870868D01*
X13594266Y-9640051D01*
X13594266Y-9640051D01*
X13604050Y-9630267D01*
X13610969Y-9618284D01*
X13611785Y-9615238D01*
X13612912Y-9611031D01*
X13613790Y-9607756D01*
X13614550Y-9604918D01*
X13614550Y-9591082D01*
X13614550Y-9389950D01*
X13616441Y-9384131D01*
X13621391Y-9380534D01*
X13624450Y-9380050D01*
X13630152Y-9380050D01*
X13630152Y-9380050D01*
X13634841Y-9379307D01*
X13639530Y-9378565D01*
X13639530Y-9378565D01*
X13639530Y-9378565D01*
X13650834Y-9372805D01*
X13659805Y-9363834D01*
X13665565Y-9352530D01*
X13667050Y-9343152D01*
X13667050Y-9056848D01*
X13667050Y-9056848D01*
X13667050Y-9056848D01*
X13667050Y-9056848D01*
X13665565Y-9047470D01*
X13665565Y-9047470D01*
X13665565Y-9047470D01*
X13659805Y-9036166D01*
X13650834Y-9027195D01*
X13639530Y-9021435D01*
X13639530Y-9021435D01*
X13630152Y-9019950D01*
X13630152Y-9019950D01*
X13538368Y-9019950D01*
X13532549Y-9018059D01*
X13531367Y-9017050D01*
X13382051Y-8867734D01*
X13382050Y-8867734D01*
X13372266Y-8857950D01*
X13372266Y-8857949D01*
X13360284Y-8851031D01*
X13360284Y-8851031D01*
X13358805Y-8850635D01*
X13357459Y-8850274D01*
X13346918Y-8847450D01*
X13333082Y-8847450D01*
X13332475Y-8847450D01*
X13332474Y-8847450D01*
X11413008Y-8847450D01*
X11399172Y-8847450D01*
X11392489Y-8849241D01*
X11392489Y-8849241D01*
X11385807Y-8851031D01*
X11385806Y-8851031D01*
X11373824Y-8857949D01*
X11373823Y-8857950D01*
X11364039Y-8867733D01*
X11364039Y-8867734D01*
X11364039Y-8867734D01*
X11161713Y-9070060D01*
X11156261Y-9072838D01*
X11154712Y-9072960D01*
X11087288Y-9072960D01*
X11087288Y-9072960D01*
X11077910Y-9074445D01*
X11077910Y-9074445D01*
X11066606Y-9080205D01*
X11057635Y-9089176D01*
X11051875Y-9100480D01*
X11050390Y-9109858D01*
X11050390Y-9210142D01*
X11050390Y-9210142D01*
X11051875Y-9219520D01*
X11051875Y-9219520D01*
X11057635Y-9230824D01*
X11066606Y-9239795D01*
X11070585Y-9241822D01*
X11074911Y-9246149D01*
X11075990Y-9250643D01*
X11075990Y-9423731D01*
X11074099Y-9429551D01*
X11069149Y-9433147D01*
X11067639Y-9433510D01*
X11061730Y-9434445D01*
X11061730Y-9434445D01*
X11050426Y-9440205D01*
X11041455Y-9449176D01*
X11035695Y-9460480D01*
X11034210Y-9469858D01*
X11034210Y-9570142D01*
X11034210Y-9570142D01*
X11035695Y-9579520D01*
X11035695Y-9579520D01*
X11041455Y-9590824D01*
X11050426Y-9599795D01*
X11061730Y-9605555D01*
X11071108Y-9607040D01*
X11074742Y-9607040D01*
X11076946Y-9607756D01*
X11079235Y-9608118D01*
X11079801Y-9608683D01*
X11080561Y-9608931D01*
X11081923Y-9610805D01*
X11083563Y-9612444D01*
X11083688Y-9613234D01*
X11084158Y-9613880D01*
X11084158Y-9616198D01*
X11084521Y-9618487D01*
X11084158Y-9619200D01*
X11084158Y-9619999D01*
X11081744Y-9623939D01*
X11081134Y-9624549D01*
X11075683Y-9627328D01*
X11074132Y-9627450D01*
X11051918Y-9627450D01*
X11038082Y-9627450D01*
X11024716Y-9631031D01*
X11012734Y-9637950D01*
X11002950Y-9647734D01*
X10996031Y-9659716D01*
X10993262Y-9670050D01*
X10992450Y-9673082D01*
X10992450Y-9899132D01*
X10990559Y-9904951D01*
X10989550Y-9906133D01*
X10674851Y-10220832D01*
X10669399Y-10223610D01*
X10663356Y-10222653D01*
X10661438Y-10221676D01*
X10637478Y-10213891D01*
X10612597Y-10209950D01*
X10612596Y-10209950D01*
X10587404Y-10209950D01*
X10587404Y-10209950D01*
X10562522Y-10213891D01*
X10538562Y-10221676D01*
X10516116Y-10233113D01*
X10495735Y-10247921D01*
X10477921Y-10265735D01*
X10463113Y-10286116D01*
X10451676Y-10308562D01*
X10443891Y-10332522D01*
X10439950Y-10357403D01*
X10439950Y-10376732D01*
X10438059Y-10382551D01*
X10433109Y-10386148D01*
X10426991Y-10386148D01*
X10423050Y-10383733D01*
X10355450Y-10316133D01*
X10352672Y-10310681D01*
X10352550Y-10309132D01*
X10352550Y-9928857D01*
X10430000Y-9928857D01*
X10430000Y-9951143D01*
X10432909Y-9973237D01*
X10438676Y-9994762D01*
X10447204Y-10015350D01*
X10458347Y-10034650D01*
X10471079Y-10051243D01*
X10531638Y-9990684D01*
X10533976Y-9994184D01*
X10545816Y-10006024D01*
X10549315Y-10008362D01*
X10488757Y-10068921D01*
X10505350Y-10081653D01*
X10524650Y-10092796D01*
X10545238Y-10101324D01*
X10566763Y-10107091D01*
X10588857Y-10110000D01*
X10588858Y-10110000D01*
X10611142Y-10110000D01*
X10611143Y-10110000D01*
X10633237Y-10107091D01*
X10654762Y-10101324D01*
X10675350Y-10092796D01*
X10694650Y-10081653D01*
X10711243Y-10068921D01*
X10650685Y-10008362D01*
X10654184Y-10006024D01*
X10666024Y-9994184D01*
X10668362Y-9990685D01*
X10728921Y-10051243D01*
X10741653Y-10034650D01*
X10752796Y-10015350D01*
X10761324Y-9994762D01*
X10767091Y-9973237D01*
X10770000Y-9951143D01*
X10770000Y-9951142D01*
X10770000Y-9928858D01*
X10770000Y-9928857D01*
X10767091Y-9906763D01*
X10761324Y-9885238D01*
X10752796Y-9864650D01*
X10741653Y-9845350D01*
X10728921Y-9828757D01*
X10668362Y-9889315D01*
X10666024Y-9885816D01*
X10654184Y-9873976D01*
X10650684Y-9871638D01*
X10711243Y-9811079D01*
X10694650Y-9798347D01*
X10675350Y-9787204D01*
X10654762Y-9778676D01*
X10633237Y-9772909D01*
X10611143Y-9770000D01*
X10588857Y-9770000D01*
X10566763Y-9772909D01*
X10545238Y-9778676D01*
X10524650Y-9787204D01*
X10505350Y-9798347D01*
X10488757Y-9811079D01*
X10549315Y-9871638D01*
X10545816Y-9873976D01*
X10533976Y-9885816D01*
X10531638Y-9889315D01*
X10471079Y-9828757D01*
X10458347Y-9845350D01*
X10447204Y-9864650D01*
X10438676Y-9885238D01*
X10432909Y-9906763D01*
X10430000Y-9928857D01*
X10352550Y-9928857D01*
X10352550Y-9685868D01*
X10354441Y-9680049D01*
X10355449Y-9678868D01*
X10445822Y-9588494D01*
X10451274Y-9585717D01*
X10457317Y-9586674D01*
X10461643Y-9591000D01*
X10463113Y-9593884D01*
X10463113Y-9593884D01*
X10463113Y-9593885D01*
X10477921Y-9614266D01*
X10495734Y-9632079D01*
X10516116Y-9646887D01*
X10538562Y-9658324D01*
X10562522Y-9666109D01*
X10562522Y-9666109D01*
X10562522Y-9666109D01*
X10587404Y-9670050D01*
X10587404Y-9670050D01*
X10612597Y-9670050D01*
X10637478Y-9666109D01*
X10637478Y-9666109D01*
X10637479Y-9666109D01*
X10661438Y-9658324D01*
X10683885Y-9646887D01*
X10704266Y-9632079D01*
X10722079Y-9614266D01*
X10736887Y-9593885D01*
X10736887Y-9593884D01*
X10742540Y-9582789D01*
X10748324Y-9571438D01*
X10756109Y-9547479D01*
X10757465Y-9538918D01*
X10760050Y-9522597D01*
X10760050Y-9497403D01*
X10756109Y-9472522D01*
X10754624Y-9467950D01*
X10748324Y-9448562D01*
X10736887Y-9426116D01*
X10722079Y-9405734D01*
X10704266Y-9387921D01*
X10683885Y-9373113D01*
X10683884Y-9373113D01*
X10683884Y-9373113D01*
X10661438Y-9361676D01*
X10637478Y-9353891D01*
X10612597Y-9349950D01*
X10612596Y-9349950D01*
X10587404Y-9349950D01*
X10587404Y-9349950D01*
X10562522Y-9353891D01*
X10538562Y-9361676D01*
X10516116Y-9373113D01*
X10495735Y-9387921D01*
X10477921Y-9405735D01*
X10463113Y-9426116D01*
X10451676Y-9448562D01*
X10450973Y-9450725D01*
X10447377Y-9455675D01*
X10443674Y-9457152D01*
X10443708Y-9457282D01*
X10443082Y-9457450D01*
X10443082Y-9457450D01*
X10436399Y-9459241D01*
X10436399Y-9459241D01*
X10429717Y-9461031D01*
X10427182Y-9462494D01*
X10419402Y-9466986D01*
X10417733Y-9467950D01*
X10407949Y-9477733D01*
X10407950Y-9477734D01*
X10407949Y-9477734D01*
X10267734Y-9617949D01*
X10267734Y-9617950D01*
X10267733Y-9617949D01*
X10257950Y-9627733D01*
X10257950Y-9627733D01*
X10257950Y-9627734D01*
X10251031Y-9639716D01*
X10251031Y-9639717D01*
X10251031Y-9639717D01*
X10250694Y-9640976D01*
X10250694Y-9640976D01*
X10247450Y-9653081D01*
X10210050Y-9653081D01*
X10210050Y-8965228D01*
X10210061Y-8964771D01*
X10210096Y-8963999D01*
X10210463Y-8956060D01*
X10394950Y-8956060D01*
X10394950Y-8982940D01*
X10398268Y-9008139D01*
X10398458Y-9009588D01*
X10398458Y-9009589D01*
X10405415Y-9035552D01*
X10405416Y-9035553D01*
X10415701Y-9060385D01*
X10415701Y-9060386D01*
X10415702Y-9060386D01*
X10429141Y-9083664D01*
X10429142Y-9083664D01*
X10437793Y-9094940D01*
X10445504Y-9104989D01*
X10464511Y-9123996D01*
X10485836Y-9140359D01*
X10509114Y-9153798D01*
X10533947Y-9164085D01*
X10559911Y-9171042D01*
X10586560Y-9174550D01*
X10586560Y-9174550D01*
X10613440Y-9174550D01*
X10613440Y-9174550D01*
X10640089Y-9171042D01*
X10666053Y-9164085D01*
X10690886Y-9153798D01*
X10714164Y-9140359D01*
X10735489Y-9123996D01*
X10754496Y-9104989D01*
X10770859Y-9083664D01*
X10784298Y-9060386D01*
X10794585Y-9035553D01*
X10801542Y-9009589D01*
X10805050Y-8982940D01*
X10805050Y-8956060D01*
X10801542Y-8929411D01*
X10794585Y-8903447D01*
X10784298Y-8878614D01*
X10770859Y-8855336D01*
X10754496Y-8834011D01*
X10735489Y-8815004D01*
X10727226Y-8808664D01*
X10714164Y-8798642D01*
X10707659Y-8794885D01*
X10690886Y-8785202D01*
X10690886Y-8785201D01*
X10690885Y-8785201D01*
X10666053Y-8774916D01*
X10666053Y-8774915D01*
X10666053Y-8774915D01*
X10640089Y-8767958D01*
X10640089Y-8767958D01*
X10640089Y-8767958D01*
X10613440Y-8764450D01*
X10613440Y-8764450D01*
X10586560Y-8764450D01*
X10586560Y-8764450D01*
X10559912Y-8767958D01*
X10559911Y-8767958D01*
X10533948Y-8774915D01*
X10533947Y-8774916D01*
X10509115Y-8785201D01*
X10485836Y-8798642D01*
X10464511Y-8815004D01*
X10445504Y-8834011D01*
X10429142Y-8855336D01*
X10415701Y-8878615D01*
X10405416Y-8903447D01*
X10405415Y-8903448D01*
X10398458Y-8929411D01*
X10398458Y-8929412D01*
X10395053Y-8955279D01*
X10394950Y-8956060D01*
X10210463Y-8956060D01*
X10211581Y-8931895D01*
X10211618Y-8931383D01*
X10212306Y-8924398D01*
X10212352Y-8924010D01*
X10216412Y-8894905D01*
X10216505Y-8894354D01*
X10217771Y-8887988D01*
X10217840Y-8887672D01*
X10224712Y-8858452D01*
X10224873Y-8857853D01*
X10226455Y-8852640D01*
X10226536Y-8852386D01*
X10236426Y-8822877D01*
X10236664Y-8822242D01*
X10238053Y-8818887D01*
X10238143Y-8818678D01*
X10251462Y-8788513D01*
X10251785Y-8787851D01*
X10251951Y-8787540D01*
X10252021Y-8787411D01*
X10269292Y-8756404D01*
X10269773Y-8755628D01*
X10289980Y-8726130D01*
X10290531Y-8725401D01*
X10291008Y-8724825D01*
X10313374Y-8697892D01*
X10313988Y-8697219D01*
X10339272Y-8671934D01*
X10339945Y-8671320D01*
X10367456Y-8648477D01*
X10368183Y-8647928D01*
X10397683Y-8627720D01*
X10398457Y-8627241D01*
X10429472Y-8609965D01*
X10429591Y-8609901D01*
X10429907Y-8609732D01*
X10430569Y-8609409D01*
X10460744Y-8596086D01*
X10460931Y-8596006D01*
X10464298Y-8594612D01*
X10464930Y-8594375D01*
X10494442Y-8584484D01*
X10494686Y-8584406D01*
X10499910Y-8582821D01*
X10500505Y-8582661D01*
X10529726Y-8575789D01*
X10530046Y-8575720D01*
X10536406Y-8574455D01*
X10536964Y-8574360D01*
X10566064Y-8570301D01*
X10566452Y-8570255D01*
X10573441Y-8569567D01*
X10573948Y-8569530D01*
X10599649Y-8568342D01*
X10606735Y-8568015D01*
X10607499Y-8568009D01*
X14711920Y-8695671D01*
G37*
%TD.AperFunction*%
%TD*%
M02*
