%TF.GenerationSoftware,KiCad,Pcbnew,7.0.10-7.0.10~ubuntu22.04.1*%
%TF.CreationDate,2025-10-18T11:15:32+03:00*%
%TF.ProjectId,uv39_res,75763339-5f72-4657-932e-6b696361645f,rev?*%
%TF.SameCoordinates,Original*%
%TF.FileFunction,Legend,Bot*%
%TF.FilePolarity,Positive*%
%FSLAX45Y45*%
G04 Gerber Fmt 4.5, Leading zero omitted, Abs format (unit mm)*
G04 Created by KiCad (PCBNEW 7.0.10-7.0.10~ubuntu22.04.1) date 2025-10-18 11:15:32*
%MOMM*%
%LPD*%
G01*
G04 APERTURE LIST*
%ADD10C,0.300000*%
G04 APERTURE END LIST*
D10*
X14237882Y-9801964D02*
X14352168Y-9801964D01*
X14295025Y-9801964D02*
X14295025Y-9601964D01*
X14295025Y-9601964D02*
X14314073Y-9630535D01*
X14314073Y-9630535D02*
X14333120Y-9649583D01*
X14333120Y-9649583D02*
X14352168Y-9659107D01*
X14152168Y-9782916D02*
X14142644Y-9792440D01*
X14142644Y-9792440D02*
X14152168Y-9801964D01*
X14152168Y-9801964D02*
X14161692Y-9792440D01*
X14161692Y-9792440D02*
X14152168Y-9782916D01*
X14152168Y-9782916D02*
X14152168Y-9801964D01*
X14152168Y-9678154D02*
X14142644Y-9687678D01*
X14142644Y-9687678D02*
X14152168Y-9697202D01*
X14152168Y-9697202D02*
X14161692Y-9687678D01*
X14161692Y-9687678D02*
X14152168Y-9678154D01*
X14152168Y-9678154D02*
X14152168Y-9697202D01*
X13790263Y-9801964D02*
X13856930Y-9706726D01*
X13904549Y-9801964D02*
X13904549Y-9601964D01*
X13904549Y-9601964D02*
X13828358Y-9601964D01*
X13828358Y-9601964D02*
X13809311Y-9611488D01*
X13809311Y-9611488D02*
X13799787Y-9621011D01*
X13799787Y-9621011D02*
X13790263Y-9640059D01*
X13790263Y-9640059D02*
X13790263Y-9668630D01*
X13790263Y-9668630D02*
X13799787Y-9687678D01*
X13799787Y-9687678D02*
X13809311Y-9697202D01*
X13809311Y-9697202D02*
X13828358Y-9706726D01*
X13828358Y-9706726D02*
X13904549Y-9706726D01*
X13704549Y-9697202D02*
X13637882Y-9697202D01*
X13609311Y-9801964D02*
X13704549Y-9801964D01*
X13704549Y-9801964D02*
X13704549Y-9601964D01*
X13704549Y-9601964D02*
X13609311Y-9601964D01*
X13533120Y-9792440D02*
X13504549Y-9801964D01*
X13504549Y-9801964D02*
X13456930Y-9801964D01*
X13456930Y-9801964D02*
X13437882Y-9792440D01*
X13437882Y-9792440D02*
X13428358Y-9782916D01*
X13428358Y-9782916D02*
X13418834Y-9763869D01*
X13418834Y-9763869D02*
X13418834Y-9744821D01*
X13418834Y-9744821D02*
X13428358Y-9725773D01*
X13428358Y-9725773D02*
X13437882Y-9716250D01*
X13437882Y-9716250D02*
X13456930Y-9706726D01*
X13456930Y-9706726D02*
X13495025Y-9697202D01*
X13495025Y-9697202D02*
X13514073Y-9687678D01*
X13514073Y-9687678D02*
X13523596Y-9678154D01*
X13523596Y-9678154D02*
X13533120Y-9659107D01*
X13533120Y-9659107D02*
X13533120Y-9640059D01*
X13533120Y-9640059D02*
X13523596Y-9621011D01*
X13523596Y-9621011D02*
X13514073Y-9611488D01*
X13514073Y-9611488D02*
X13495025Y-9601964D01*
X13495025Y-9601964D02*
X13447406Y-9601964D01*
X13447406Y-9601964D02*
X13418834Y-9611488D01*
X13333120Y-9801964D02*
X13333120Y-9601964D01*
X13237882Y-9801964D02*
X13237882Y-9601964D01*
X13237882Y-9601964D02*
X13123596Y-9801964D01*
X13123596Y-9801964D02*
X13123596Y-9601964D01*
X14352168Y-9943011D02*
X14342644Y-9933488D01*
X14342644Y-9933488D02*
X14323596Y-9923964D01*
X14323596Y-9923964D02*
X14275977Y-9923964D01*
X14275977Y-9923964D02*
X14256930Y-9933488D01*
X14256930Y-9933488D02*
X14247406Y-9943011D01*
X14247406Y-9943011D02*
X14237882Y-9962059D01*
X14237882Y-9962059D02*
X14237882Y-9981107D01*
X14237882Y-9981107D02*
X14247406Y-10009678D01*
X14247406Y-10009678D02*
X14361692Y-10123964D01*
X14361692Y-10123964D02*
X14237882Y-10123964D01*
X14152168Y-10104916D02*
X14142644Y-10114440D01*
X14142644Y-10114440D02*
X14152168Y-10123964D01*
X14152168Y-10123964D02*
X14161692Y-10114440D01*
X14161692Y-10114440D02*
X14152168Y-10104916D01*
X14152168Y-10104916D02*
X14152168Y-10123964D01*
X14152168Y-10000154D02*
X14142644Y-10009678D01*
X14142644Y-10009678D02*
X14152168Y-10019202D01*
X14152168Y-10019202D02*
X14161692Y-10009678D01*
X14161692Y-10009678D02*
X14152168Y-10000154D01*
X14152168Y-10000154D02*
X14152168Y-10019202D01*
X13799787Y-9933488D02*
X13818834Y-9923964D01*
X13818834Y-9923964D02*
X13847406Y-9923964D01*
X13847406Y-9923964D02*
X13875977Y-9933488D01*
X13875977Y-9933488D02*
X13895025Y-9952535D01*
X13895025Y-9952535D02*
X13904549Y-9971583D01*
X13904549Y-9971583D02*
X13914073Y-10009678D01*
X13914073Y-10009678D02*
X13914073Y-10038250D01*
X13914073Y-10038250D02*
X13904549Y-10076345D01*
X13904549Y-10076345D02*
X13895025Y-10095392D01*
X13895025Y-10095392D02*
X13875977Y-10114440D01*
X13875977Y-10114440D02*
X13847406Y-10123964D01*
X13847406Y-10123964D02*
X13828358Y-10123964D01*
X13828358Y-10123964D02*
X13799787Y-10114440D01*
X13799787Y-10114440D02*
X13790263Y-10104916D01*
X13790263Y-10104916D02*
X13790263Y-10038250D01*
X13790263Y-10038250D02*
X13828358Y-10038250D01*
X13704549Y-10123964D02*
X13704549Y-9923964D01*
X13704549Y-9923964D02*
X13590263Y-10123964D01*
X13590263Y-10123964D02*
X13590263Y-9923964D01*
X13495025Y-10123964D02*
X13495025Y-9923964D01*
X13495025Y-9923964D02*
X13447406Y-9923964D01*
X13447406Y-9923964D02*
X13418834Y-9933488D01*
X13418834Y-9933488D02*
X13399787Y-9952535D01*
X13399787Y-9952535D02*
X13390263Y-9971583D01*
X13390263Y-9971583D02*
X13380739Y-10009678D01*
X13380739Y-10009678D02*
X13380739Y-10038250D01*
X13380739Y-10038250D02*
X13390263Y-10076345D01*
X13390263Y-10076345D02*
X13399787Y-10095392D01*
X13399787Y-10095392D02*
X13418834Y-10114440D01*
X13418834Y-10114440D02*
X13447406Y-10123964D01*
X13447406Y-10123964D02*
X13495025Y-10123964D01*
X10977832Y-10207179D02*
X11073070Y-10207179D01*
X10958784Y-10150036D02*
X11025451Y-10350036D01*
X11025451Y-10350036D02*
X11092118Y-10150036D01*
X11158784Y-10169084D02*
X11168308Y-10159560D01*
X11168308Y-10159560D02*
X11158784Y-10150036D01*
X11158784Y-10150036D02*
X11149261Y-10159560D01*
X11149261Y-10159560D02*
X11158784Y-10169084D01*
X11158784Y-10169084D02*
X11158784Y-10150036D01*
X11158784Y-10273846D02*
X11168308Y-10264322D01*
X11168308Y-10264322D02*
X11158784Y-10254798D01*
X11158784Y-10254798D02*
X11149261Y-10264322D01*
X11149261Y-10264322D02*
X11158784Y-10273846D01*
X11158784Y-10273846D02*
X11158784Y-10254798D01*
X11377832Y-10350036D02*
X11444499Y-10150036D01*
X11444499Y-10150036D02*
X11511165Y-10350036D01*
X11692118Y-10169084D02*
X11682594Y-10159560D01*
X11682594Y-10159560D02*
X11654023Y-10150036D01*
X11654023Y-10150036D02*
X11634975Y-10150036D01*
X11634975Y-10150036D02*
X11606403Y-10159560D01*
X11606403Y-10159560D02*
X11587356Y-10178608D01*
X11587356Y-10178608D02*
X11577832Y-10197655D01*
X11577832Y-10197655D02*
X11568308Y-10235750D01*
X11568308Y-10235750D02*
X11568308Y-10264322D01*
X11568308Y-10264322D02*
X11577832Y-10302417D01*
X11577832Y-10302417D02*
X11587356Y-10321465D01*
X11587356Y-10321465D02*
X11606403Y-10340512D01*
X11606403Y-10340512D02*
X11634975Y-10350036D01*
X11634975Y-10350036D02*
X11654023Y-10350036D01*
X11654023Y-10350036D02*
X11682594Y-10340512D01*
X11682594Y-10340512D02*
X11692118Y-10330989D01*
X11892118Y-10169084D02*
X11882594Y-10159560D01*
X11882594Y-10159560D02*
X11854023Y-10150036D01*
X11854023Y-10150036D02*
X11834975Y-10150036D01*
X11834975Y-10150036D02*
X11806403Y-10159560D01*
X11806403Y-10159560D02*
X11787356Y-10178608D01*
X11787356Y-10178608D02*
X11777832Y-10197655D01*
X11777832Y-10197655D02*
X11768308Y-10235750D01*
X11768308Y-10235750D02*
X11768308Y-10264322D01*
X11768308Y-10264322D02*
X11777832Y-10302417D01*
X11777832Y-10302417D02*
X11787356Y-10321465D01*
X11787356Y-10321465D02*
X11806403Y-10340512D01*
X11806403Y-10340512D02*
X11834975Y-10350036D01*
X11834975Y-10350036D02*
X11854023Y-10350036D01*
X11854023Y-10350036D02*
X11882594Y-10340512D01*
X11882594Y-10340512D02*
X11892118Y-10330989D01*
X11054023Y-9932798D02*
X11082594Y-9923274D01*
X11082594Y-9923274D02*
X11092118Y-9913750D01*
X11092118Y-9913750D02*
X11101642Y-9894703D01*
X11101642Y-9894703D02*
X11101642Y-9866131D01*
X11101642Y-9866131D02*
X11092118Y-9847084D01*
X11092118Y-9847084D02*
X11082594Y-9837560D01*
X11082594Y-9837560D02*
X11063546Y-9828036D01*
X11063546Y-9828036D02*
X10987356Y-9828036D01*
X10987356Y-9828036D02*
X10987356Y-10028036D01*
X10987356Y-10028036D02*
X11054023Y-10028036D01*
X11054023Y-10028036D02*
X11073070Y-10018512D01*
X11073070Y-10018512D02*
X11082594Y-10008989D01*
X11082594Y-10008989D02*
X11092118Y-9989941D01*
X11092118Y-9989941D02*
X11092118Y-9970893D01*
X11092118Y-9970893D02*
X11082594Y-9951846D01*
X11082594Y-9951846D02*
X11073070Y-9942322D01*
X11073070Y-9942322D02*
X11054023Y-9932798D01*
X11054023Y-9932798D02*
X10987356Y-9932798D01*
X11187356Y-9847084D02*
X11196880Y-9837560D01*
X11196880Y-9837560D02*
X11187356Y-9828036D01*
X11187356Y-9828036D02*
X11177832Y-9837560D01*
X11177832Y-9837560D02*
X11187356Y-9847084D01*
X11187356Y-9847084D02*
X11187356Y-9828036D01*
X11187356Y-9951846D02*
X11196880Y-9942322D01*
X11196880Y-9942322D02*
X11187356Y-9932798D01*
X11187356Y-9932798D02*
X11177832Y-9942322D01*
X11177832Y-9942322D02*
X11187356Y-9951846D01*
X11187356Y-9951846D02*
X11187356Y-9932798D01*
X11406403Y-10028036D02*
X11473070Y-9828036D01*
X11473070Y-9828036D02*
X11539737Y-10028036D01*
X11644499Y-10028036D02*
X11682594Y-10028036D01*
X11682594Y-10028036D02*
X11701642Y-10018512D01*
X11701642Y-10018512D02*
X11720689Y-9999465D01*
X11720689Y-9999465D02*
X11730213Y-9961370D01*
X11730213Y-9961370D02*
X11730213Y-9894703D01*
X11730213Y-9894703D02*
X11720689Y-9856608D01*
X11720689Y-9856608D02*
X11701642Y-9837560D01*
X11701642Y-9837560D02*
X11682594Y-9828036D01*
X11682594Y-9828036D02*
X11644499Y-9828036D01*
X11644499Y-9828036D02*
X11625451Y-9837560D01*
X11625451Y-9837560D02*
X11606403Y-9856608D01*
X11606403Y-9856608D02*
X11596880Y-9894703D01*
X11596880Y-9894703D02*
X11596880Y-9961370D01*
X11596880Y-9961370D02*
X11606403Y-9999465D01*
X11606403Y-9999465D02*
X11625451Y-10018512D01*
X11625451Y-10018512D02*
X11644499Y-10028036D01*
X11815927Y-10028036D02*
X11815927Y-9866131D01*
X11815927Y-9866131D02*
X11825451Y-9847084D01*
X11825451Y-9847084D02*
X11834975Y-9837560D01*
X11834975Y-9837560D02*
X11854022Y-9828036D01*
X11854022Y-9828036D02*
X11892118Y-9828036D01*
X11892118Y-9828036D02*
X11911165Y-9837560D01*
X11911165Y-9837560D02*
X11920689Y-9847084D01*
X11920689Y-9847084D02*
X11930213Y-9866131D01*
X11930213Y-9866131D02*
X11930213Y-10028036D01*
X11996880Y-10028036D02*
X12111165Y-10028036D01*
X12054022Y-9828036D02*
X12054022Y-10028036D01*
X11101642Y-9525084D02*
X11092118Y-9515560D01*
X11092118Y-9515560D02*
X11063546Y-9506036D01*
X11063546Y-9506036D02*
X11044499Y-9506036D01*
X11044499Y-9506036D02*
X11015927Y-9515560D01*
X11015927Y-9515560D02*
X10996880Y-9534608D01*
X10996880Y-9534608D02*
X10987356Y-9553655D01*
X10987356Y-9553655D02*
X10977832Y-9591750D01*
X10977832Y-9591750D02*
X10977832Y-9620322D01*
X10977832Y-9620322D02*
X10987356Y-9658417D01*
X10987356Y-9658417D02*
X10996880Y-9677465D01*
X10996880Y-9677465D02*
X11015927Y-9696512D01*
X11015927Y-9696512D02*
X11044499Y-9706036D01*
X11044499Y-9706036D02*
X11063546Y-9706036D01*
X11063546Y-9706036D02*
X11092118Y-9696512D01*
X11092118Y-9696512D02*
X11101642Y-9686989D01*
X11187356Y-9525084D02*
X11196880Y-9515560D01*
X11196880Y-9515560D02*
X11187356Y-9506036D01*
X11187356Y-9506036D02*
X11177832Y-9515560D01*
X11177832Y-9515560D02*
X11187356Y-9525084D01*
X11187356Y-9525084D02*
X11187356Y-9506036D01*
X11187356Y-9629846D02*
X11196880Y-9620322D01*
X11196880Y-9620322D02*
X11187356Y-9610798D01*
X11187356Y-9610798D02*
X11177832Y-9620322D01*
X11177832Y-9620322D02*
X11187356Y-9629846D01*
X11187356Y-9629846D02*
X11187356Y-9610798D01*
X11539737Y-9696512D02*
X11520689Y-9706036D01*
X11520689Y-9706036D02*
X11492118Y-9706036D01*
X11492118Y-9706036D02*
X11463546Y-9696512D01*
X11463546Y-9696512D02*
X11444499Y-9677465D01*
X11444499Y-9677465D02*
X11434975Y-9658417D01*
X11434975Y-9658417D02*
X11425451Y-9620322D01*
X11425451Y-9620322D02*
X11425451Y-9591750D01*
X11425451Y-9591750D02*
X11434975Y-9553655D01*
X11434975Y-9553655D02*
X11444499Y-9534608D01*
X11444499Y-9534608D02*
X11463546Y-9515560D01*
X11463546Y-9515560D02*
X11492118Y-9506036D01*
X11492118Y-9506036D02*
X11511165Y-9506036D01*
X11511165Y-9506036D02*
X11539737Y-9515560D01*
X11539737Y-9515560D02*
X11549261Y-9525084D01*
X11549261Y-9525084D02*
X11549261Y-9591750D01*
X11549261Y-9591750D02*
X11511165Y-9591750D01*
X11634975Y-9506036D02*
X11634975Y-9706036D01*
X11634975Y-9706036D02*
X11749261Y-9506036D01*
X11749261Y-9506036D02*
X11749261Y-9706036D01*
X11844499Y-9506036D02*
X11844499Y-9706036D01*
X11844499Y-9706036D02*
X11892118Y-9706036D01*
X11892118Y-9706036D02*
X11920689Y-9696512D01*
X11920689Y-9696512D02*
X11939737Y-9677465D01*
X11939737Y-9677465D02*
X11949261Y-9658417D01*
X11949261Y-9658417D02*
X11958784Y-9620322D01*
X11958784Y-9620322D02*
X11958784Y-9591750D01*
X11958784Y-9591750D02*
X11949261Y-9553655D01*
X11949261Y-9553655D02*
X11939737Y-9534608D01*
X11939737Y-9534608D02*
X11920689Y-9515560D01*
X11920689Y-9515560D02*
X11892118Y-9506036D01*
X11892118Y-9506036D02*
X11844499Y-9506036D01*
M02*
