%TF.GenerationSoftware,KiCad,Pcbnew,9.0.5-9.0.5~ubuntu24.04.1*%
%TF.CreationDate,2026-04-23T15:40:08+03:00*%
%TF.ProjectId,uv39_res,75763339-5f72-4657-932e-6b696361645f,rev?*%
%TF.SameCoordinates,Original*%
%TF.FileFunction,Paste,Top*%
%TF.FilePolarity,Positive*%
%FSLAX45Y45*%
G04 Gerber Fmt 4.5, Leading zero omitted, Abs format (unit mm)*
G04 Created by KiCad (PCBNEW 9.0.5-9.0.5~ubuntu24.04.1) date 2026-04-23 15:40:08*
%MOMM*%
%LPD*%
G01*
G04 APERTURE LIST*
%ADD10R,0.762000X0.939800*%
%ADD11R,1.300000X2.800000*%
G04 APERTURE END LIST*
D10*
%TO.C,R6*%
X11620000Y-9520000D03*
X11452360Y-9520000D03*
%TD*%
%TO.C,R3*%
X11472360Y-9160000D03*
X11640000Y-9160000D03*
%TD*%
%TO.C,R13*%
X11283820Y-10200000D03*
X11116180Y-10200000D03*
%TD*%
%TO.C,R5*%
X11280000Y-9520000D03*
X11112360Y-9520000D03*
%TD*%
%TO.C,R11*%
X11460000Y-9860000D03*
X11627640Y-9860000D03*
%TD*%
%TO.C,R9*%
X12140000Y-9860000D03*
X12307640Y-9860000D03*
%TD*%
%TO.C,R10*%
X11800000Y-9860000D03*
X11967640Y-9860000D03*
%TD*%
%TO.C,R4*%
X11128540Y-9160000D03*
X11296180Y-9160000D03*
%TD*%
%TO.C,R8*%
X12300000Y-9520000D03*
X12132360Y-9520000D03*
%TD*%
%TO.C,R12*%
X11120000Y-9860000D03*
X11287640Y-9860000D03*
%TD*%
D11*
%TO.C,J3*%
X12800000Y-9200000D03*
X12800000Y-10152000D03*
X13054000Y-9200000D03*
X13054000Y-10152000D03*
X13308000Y-9200000D03*
X13308000Y-10152000D03*
X13562000Y-9200000D03*
X13562000Y-10152000D03*
X13816000Y-9200000D03*
X13816000Y-10152000D03*
X14070000Y-9200000D03*
X14070000Y-10152000D03*
%TD*%
D10*
%TO.C,R14*%
X11619620Y-10200000D03*
X11451980Y-10200000D03*
%TD*%
%TO.C,R7*%
X11960000Y-9520000D03*
X11792360Y-9520000D03*
%TD*%
%TO.C,R1*%
X12148540Y-9160000D03*
X12316180Y-9160000D03*
%TD*%
%TO.C,R2*%
X11808540Y-9160000D03*
X11976180Y-9160000D03*
%TD*%
M02*
